<?xml version="1.0" standalone="no"?>
<!DOCTYPE svg PUBLIC "-//W3C//DTD SVG 20010904//EN"
 "http://www.w3.org/TR/2001/REC-SVG-20010904/DTD/svg10.dtd">
<svg version="1.0" xmlns="http://www.w3.org/2000/svg"
 width="1280.000000pt" height="803.000000pt" viewBox="0 0 1280.000000 803.000000"
 preserveAspectRatio="xMidYMid meet">
<metadata>
Created by potrace 1.15, written by Peter Selinger 2001-2017
</metadata>
<g transform="translate(0.000000,803.000000) scale(0.100000,-0.100000)"
fill="#000000" stroke="none">
<path d="M8764 8017 c-37 -21 -114 -94 -114 -107 0 -7 -46 -74 -102 -149 -57
-74 -106 -140 -110 -147 -4 -6 1 -35 12 -64 10 -29 22 -73 25 -99 10 -71 33
-139 78 -223 22 -43 39 -79 36 -82 -11 -10 -532 -226 -545 -226 -37 0 -176 56
-326 131 -172 86 -160 83 -232 54 -18 -8 -19 -5 -13 57 l6 65 -209 -70 -208
-70 29 -64 c16 -36 29 -68 29 -72 0 -4 -23 -17 -51 -29 l-52 -21 7 70 c5 56 4
70 -6 67 -7 -3 -100 -34 -205 -69 -106 -35 -193 -68 -193 -74 0 -5 14 -39 30
-75 21 -47 25 -67 17 -72 -18 -12 -25 -10 -31 10 -6 17 -41 9 -416 -88 -225
-58 -411 -108 -414 -111 -8 -8 25 -102 65 -182 40 -81 13 -81 294 -1 291 84
384 124 514 219 19 14 39 25 46 25 7 0 27 -34 46 -76 l33 -76 61 6 c77 8 173
32 203 52 32 21 38 43 19 73 -33 51 -57 106 -57 131 0 21 10 29 68 53 37 16
72 28 77 26 6 -1 25 -37 44 -81 l35 -79 45 6 c216 29 287 74 228 145 -25 29
-53 97 -44 106 2 3 133 -38 291 -91 157 -52 296 -95 310 -95 20 0 33 -16 75
-90 28 -49 51 -94 51 -99 0 -5 -16 -12 -35 -15 -20 -4 -33 -11 -31 -15 3 -4
-90 -60 -206 -124 l-212 -117 -55 10 c-175 31 -470 31 -671 -1 -468 -74 -933
-289 -1350 -624 l-128 -102 -11 38 c-8 26 -19 41 -34 44 -12 3 -146 -23 -298
-59 -310 -73 -519 -116 -689 -143 -158 -25 -564 -25 -692 -1 -153 29 -174 43
-359 225 l-166 164 -459 39 c-252 22 -661 56 -909 76 l-450 37 -35 36 c-19 20
-85 98 -146 172 -123 150 -164 187 -218 196 -30 5 -40 1 -65 -24 -52 -52 -50
-160 5 -392 72 -300 199 -635 322 -849 36 -62 63 -114 61 -115 -2 -2 -33 -18
-69 -37 -145 -74 -303 -195 -453 -345 l-94 -95 5 49 c8 84 -38 135 -191 216
-90 48 -254 108 -268 100 -5 -4 -6 1 -3 9 6 16 5 16 -126 36 -77 12 -76 13
-120 -102 -90 -234 -75 -332 60 -395 33 -16 60 -32 60 -38 0 -5 -35 -191 -78
-413 -77 -394 -78 -403 -58 -406 12 -3 40 -8 62 -13 l42 -8 -49 -104 c-27 -57
-47 -106 -45 -108 4 -5 447 47 457 53 4 2 32 49 63 103 63 112 188 305 218
338 l20 22 47 -22 c25 -12 47 -22 49 -23 2 -1 -9 -19 -23 -39 -14 -21 -23 -40
-21 -42 2 -2 -9 -17 -25 -33 -16 -16 -29 -38 -29 -49 0 -11 -6 -24 -14 -28
-15 -9 -50 -73 -43 -80 3 -2 -6 -15 -19 -28 -15 -15 -24 -36 -24 -55 0 -16 -5
-30 -11 -30 -13 0 -42 -68 -33 -81 3 -6 -2 -16 -11 -23 -11 -8 -18 -27 -19
-52 0 -21 -8 -44 -15 -50 -9 -7 -15 -29 -15 -53 -1 -22 -4 -41 -8 -41 -10 0
-30 -69 -24 -85 3 -8 -2 -28 -11 -45 -9 -19 -13 -43 -9 -60 3 -16 1 -32 -5
-35 -5 -4 -10 -28 -9 -53 0 -26 -3 -64 -6 -85 -4 -22 -2 -43 5 -51 8 -10 9
-16 1 -21 -14 -9 -13 -78 2 -93 9 -9 9 -12 0 -12 -14 0 -17 -76 -3 -84 5 -3 6
-25 4 -49 -4 -32 -1 -48 11 -60 10 -9 12 -18 6 -22 -13 -8 -13 -37 1 -72 6
-15 12 -45 13 -67 2 -22 9 -44 19 -51 10 -7 13 -15 7 -21 -10 -10 8 -84 21
-84 4 0 7 -12 7 -27 0 -34 18 -83 31 -83 6 0 8 -6 5 -14 -6 -16 21 -86 33 -86
4 0 9 -12 10 -26 0 -15 10 -39 22 -55 12 -15 21 -34 21 -41 0 -7 11 -30 25
-50 14 -20 25 -39 25 -42 0 -10 94 -152 160 -241 492 -665 1365 -945 2148
-689 198 64 450 201 612 331 251 202 467 488 614 814 l21 46 114 7 c63 3 121
12 129 18 9 8 12 25 10 50 -4 42 1 44 62 32 l32 -7 -4 -66 -3 -66 90 -7 c233
-18 420 -29 643 -38 142 -5 249 -13 256 -19 7 -6 80 -16 162 -21 285 -19 669
-40 739 -40 l70 0 85 63 85 63 125 18 c292 41 625 120 862 207 150 54 392 173
498 244 174 117 311 250 410 394 45 67 130 236 130 259 0 9 2 13 5 11 2 -3 9
-61 14 -129 13 -155 39 -283 86 -425 43 -128 61 -155 51 -78 -6 44 -4 52 8 47
8 -3 12 -12 9 -19 -6 -18 15 -85 27 -85 5 0 7 -6 4 -14 -7 -17 21 -86 35 -86
6 0 8 -6 5 -14 -7 -17 22 -76 37 -76 6 0 8 -8 5 -18 -6 -19 27 -82 44 -82 5 0
7 -6 5 -12 -6 -16 31 -78 45 -78 6 0 8 -4 5 -10 -7 -11 25 -70 37 -70 4 0 14
-16 22 -34 8 -19 24 -41 35 -48 12 -7 21 -20 21 -28 1 -21 35 -60 54 -60 10 0
13 -6 9 -16 -6 -17 45 -77 59 -68 4 3 8 -3 8 -14 0 -20 39 -62 58 -62 7 0 12
-6 12 -13 0 -21 57 -70 71 -62 8 6 10 4 4 -4 -7 -12 40 -71 57 -71 5 0 21 -13
36 -30 15 -16 34 -31 42 -32 8 -2 19 -12 25 -22 5 -10 24 -26 40 -35 17 -9 43
-29 59 -44 16 -15 37 -27 46 -27 10 0 20 -7 24 -15 3 -8 22 -23 43 -33 21 -9
47 -25 58 -35 11 -10 31 -21 45 -24 14 -3 27 -10 30 -14 3 -5 66 -37 140 -73
446 -212 895 -275 1300 -182 151 35 218 59 375 136 457 225 750 637 837 1175
16 103 16 435 -1 540 -40 252 -130 520 -258 764 -15 30 -38 74 -51 98 -12 24
-29 46 -36 49 -8 3 -13 11 -10 18 3 7 -9 28 -26 45 -16 18 -30 38 -30 43 0 18
-41 68 -56 68 -8 0 -12 4 -9 10 8 12 -35 70 -52 70 -7 0 -13 8 -13 18 0 20
-39 62 -58 62 -7 0 -12 9 -12 19 0 22 -47 64 -61 55 -5 -3 -9 3 -9 14 0 18
-38 62 -53 62 -4 0 -21 16 -38 35 -17 19 -35 35 -39 35 -4 0 -24 16 -44 36
-19 19 -40 33 -45 30 -5 -4 -12 2 -15 12 -7 21 -62 56 -76 47 -6 -3 -10 1 -10
9 0 15 -32 42 -58 48 -8 2 -27 15 -44 31 -17 15 -37 27 -45 27 -8 0 -28 11
-45 25 -16 14 -37 25 -47 25 -10 0 -25 8 -35 19 -15 16 -15 19 -1 31 8 7 15
16 15 20 0 17 -322 169 -440 208 -213 70 -314 86 -545 87 -172 0 -216 -3 -313
-24 -62 -13 -114 -22 -116 -20 -10 15 -466 770 -466 774 0 2 57 34 126 71 85
45 124 71 120 80 -5 14 -175 306 -182 313 -2 3 -20 -3 -40 -13 -35 -16 -36
-16 -29 1 111 265 97 635 -31 821 -62 89 -87 103 -217 118 -62 7 -154 13 -206
14 -112 0 -262 28 -258 48 1 7 -18 31 -43 52 -31 27 -40 39 -27 40 9 0 17 3
17 8 0 4 -27 45 -61 92 -64 91 -113 171 -123 207 -5 14 2 33 19 59 21 30 25
49 24 89 -2 50 -1 53 104 193 101 135 107 146 107 191 0 57 -26 96 -76 117
-40 17 -72 17 -100 1z m-7553 -1948 c72 -89 128 -164 122 -168 -5 -3 -9 -87
-8 -186 0 -99 -4 -216 -9 -260 l-9 -80 -19 45 c-40 93 -131 370 -169 518 -36
140 -60 292 -46 292 3 0 65 -72 138 -161z m7829 -377 c5 -20 8 -37 7 -38 -1
-1 -25 -13 -54 -28 -50 -25 -53 -25 -62 -7 -8 15 -2 30 30 75 46 64 61 63 79
-2z m-395 -174 c-11 -6 -22 -12 -24 -14 -2 -2 44 -70 102 -152 81 -115 441
-693 640 -1030 l20 -33 -40 -42 c-176 -182 -377 -558 -419 -782 -10 -56 -21
-49 -27 18 -14 151 -113 392 -217 529 -78 103 -189 210 -278 268 -76 49 -80
54 -71 79 72 216 309 1012 309 1040 0 20 -8 53 -18 73 -19 36 -19 36 2 46 29
14 46 14 21 0z m938 -465 c234 -394 250 -423 246 -427 -2 -2 -26 -16 -54 -31
-27 -16 -76 -46 -107 -67 -31 -21 -61 -38 -65 -38 -10 0 -39 48 -279 458
l-183 312 117 60 c64 32 120 59 123 59 4 1 94 -146 202 -326z m-1308 290 c-11
-29 -135 -438 -135 -446 0 -1 -117 0 -260 3 l-260 5 0 -47 0 -48 248 -3 247
-2 -252 -3 -253 -2 0 -25 c0 -14 5 -25 10 -25 6 0 10 -13 10 -30 l0 -30 220 0
c160 0 220 -3 220 -12 0 -8 -61 -10 -242 -5 -133 4 -283 7 -335 7 l-93 0 0 55
0 55 -255 0 -255 0 0 -25 c0 -16 -6 -25 -15 -25 -9 0 -15 -9 -15 -25 0 -24 2
-25 73 -26 39 0 81 -4 92 -8 16 -7 14 -9 -14 -14 -19 -4 -51 -7 -72 -7 -35 0
-39 -3 -39 -25 0 -24 3 -25 55 -25 30 0 55 -4 55 -9 0 -11 -25 -21 -51 -21
-12 0 -19 -7 -19 -20 0 -14 7 -20 24 -20 13 0 29 -7 36 -15 10 -12 10 -15 -4
-15 -17 0 -23 -46 -7 -52 6 -2 11 -180 13 -430 2 -234 0 -424 -3 -422 -4 2 -7
30 -7 63 0 142 -109 268 -253 290 -105 17 -191 -26 -235 -116 -23 -46 -26 -63
-21 -113 12 -139 143 -268 274 -270 25 0 30 -4 27 -17 -3 -10 16 -60 41 -112
25 -51 44 -95 43 -97 -7 -6 -137 80 -276 184 l-151 114 -233 -80 c-128 -43
-273 -90 -323 -102 -60 -16 -97 -31 -110 -46 -11 -12 -34 -24 -52 -26 l-32 -4
19 36 c10 20 24 41 32 46 7 6 85 43 173 83 88 41 161 75 163 76 2 2 -2 104 -9
228 l-12 226 79 96 c154 188 158 194 145 209 -9 11 -9 16 0 22 7 4 14 3 16 -3
9 -27 29 -42 49 -37 17 4 23 18 32 77 6 39 16 73 21 75 6 2 11 15 11 28 0 21
4 24 40 24 35 0 40 3 40 24 0 34 55 45 79 15 16 -21 22 -21 149 -14 l132 7 0
68 c0 37 -3 94 -6 126 l-6 59 -214 -4 c-190 -3 -214 -1 -220 13 -4 11 -18 16
-45 16 l-39 0 0 75 c0 41 -1 75 -2 76 -2 0 -43 4 -91 8 -49 4 -92 12 -95 17
-7 10 -40 15 -392 54 -102 12 -211 25 -242 29 -32 4 -59 4 -60 -1 -2 -5 -17
34 -35 86 -25 77 -28 97 -18 106 10 9 17 0 30 -39 20 -60 72 -111 114 -111 16
0 91 7 167 15 241 25 438 35 822 42 l372 6 0 -166 0 -167 255 0 255 0 0 44 c0
38 -3 45 -22 49 -20 3 -19 5 9 12 41 9 48 38 33 141 -8 61 -8 79 2 86 7 4 54
7 103 6 l90 -3 3 -109 3 -109 250 5 c195 5 254 9 265 20 17 17 19 103 5 176
-6 30 -13 57 -15 61 -3 4 -39 16 -81 26 -42 9 -74 19 -72 21 6 6 291 132 301
133 4 1 5 -7 1 -16z m-2630 -353 c94 -10 213 -24 265 -30 157 -17 146 -11 164
-93 9 -40 19 -87 22 -104 l7 -33 -52 0 c-33 0 -53 -5 -56 -12 -2 -7 -6 -50 -8
-95 l-5 -83 59 0 58 0 -1 -52 c0 -29 4 -71 10 -93 14 -50 76 -112 116 -117 16
-2 31 -8 33 -14 2 -6 -48 -74 -110 -151 -63 -76 -117 -146 -120 -154 -2 -8 -3
-1 -1 14 8 63 -137 406 -229 542 -73 108 -159 185 -205 185 -10 0 -24 6 -31
13 -10 10 -11 7 -6 -15 4 -16 5 -28 2 -28 -3 0 -29 71 -58 158 -28 86 -54 163
-57 170 -6 16 2 16 203 -8z m-2940 -242 c-18 -56 -17 -89 4 -128 11 -22 16
-40 11 -40 -6 0 -10 4 -10 9 0 13 -62 20 -82 10 -10 -6 -19 -5 -23 1 -8 13
-82 13 -91 -1 -4 -8 -9 -8 -17 0 -12 12 -80 15 -91 4 -3 -4 -29 -6 -56 -4 -28
1 -50 -2 -50 -7 0 -5 -22 -7 -50 -4 -40 4 -51 1 -56 -12 -5 -12 -10 -14 -19
-6 -16 14 -95 -5 -95 -22 0 -7 -4 -7 -13 0 -16 13 -87 -3 -87 -19 0 -6 -9 -8
-19 -4 -11 3 -37 -2 -58 -11 -21 -10 -49 -19 -61 -20 -13 -2 -36 -11 -50 -21
-15 -10 -34 -18 -42 -19 -15 -2 -54 -17 -80 -33 -8 -5 -32 -16 -52 -25 -21 -8
-38 -22 -38 -30 0 -9 -7 -12 -20 -9 -23 6 -83 -34 -73 -49 4 -7 0 -9 -10 -5
-21 8 -75 -22 -83 -46 -3 -9 -10 -15 -15 -12 -13 8 -69 -33 -69 -51 0 -8 -8
-14 -19 -14 -19 0 -71 -43 -71 -59 0 -5 -10 -11 -22 -13 -13 -2 -32 -17 -43
-35 -11 -18 -24 -32 -29 -33 -18 0 -56 -43 -56 -62 0 -10 -7 -18 -17 -18 -18
0 -60 -53 -56 -71 5 -15 -25 -10 -69 12 -38 19 -43 20 -53 5 -14 -18 -25 -21
-25 -6 0 16 143 180 237 271 377 368 781 548 1328 592 22 2 98 4 169 5 l128 2
-7 -22z m4868 -115 c-29 -2 -77 -2 -105 0 -29 2 -6 3 52 3 58 0 81 -1 53 -3z
m475 -25 c-3 -9 -41 -14 -133 -16 -71 -1 -136 0 -144 3 -38 15 22 25 147 25
103 0 133 -3 130 -12z m-970 -9 c-2 -6 -8 -10 -13 -10 -5 0 -11 4 -13 10 -2 6
4 11 13 11 9 0 15 -5 13 -11z m2 -80 c0 -5 -7 -9 -15 -9 -15 0 -20 12 -9 23 8
8 24 -1 24 -14z m931 -31 l-18 -53 -81 -3 c-72 -2 -80 -1 -78 15 2 10 9 18 17
18 8 0 15 10 17 23 3 20 0 22 -47 22 -39 0 -51 4 -51 15 0 13 21 15 129 15
l130 0 -18 -52z m-3591 -1 c0 -1 23 -65 50 -140 l50 -138 -47 -61 -47 -61 -28
109 c-15 60 -44 140 -63 178 -19 38 -34 70 -32 71 53 25 117 48 117 42z m3390
-61 c0 -2 -9 -6 -20 -9 -11 -3 -20 -1 -20 4 0 5 9 9 20 9 11 0 20 -2 20 -4z
m-741 -68 c-1 -72 -5 -68 -12 10 -2 28 0 52 4 52 5 0 9 -28 8 -62z m-6421 12
c-14 -22 -23 -23 -83 -11 l-40 9 40 2 c32 2 65 8 93 19 1 1 -3 -8 -10 -19z
m7334 -182 c14 -12 10 -30 -37 -178 -29 -91 -81 -252 -115 -358 -34 -107 -63
-192 -65 -190 -1 1 1 29 5 61 11 78 13 221 4 345 l-7 102 52 0 51 0 0 39 0 40
-52 3 c-29 2 -53 8 -53 13 0 6 24 11 53 13 44 3 52 6 52 23 0 15 -7 19 -32 19
-18 0 -43 3 -55 6 -41 11 -24 24 32 24 48 0 55 3 55 19 0 29 81 43 112 19z
m390 -186 c261 -246 362 -603 259 -912 -48 -143 -108 -236 -236 -365 -120
-122 -226 -198 -393 -284 l-103 -53 30 43 c43 58 61 127 61 226 0 131 -13 165
-90 247 l-67 71 177 562 c98 310 180 570 184 578 8 22 91 -31 178 -113z m2338
-167 c0 -140 -2 -255 -4 -255 -16 0 -81 152 -121 285 -26 88 -49 162 -51 164
-15 17 -8 -21 21 -119 19 -63 35 -119 35 -125 0 -9 -156 255 -167 282 -6 14
34 19 180 21 l107 2 0 -255z m155 235 c113 -19 317 -80 350 -104 14 -10 7 -41
-69 -288 -77 -253 -89 -284 -137 -355 -29 -43 -53 -80 -55 -81 -5 -7 -74 20
-74 29 0 5 -36 71 -80 146 l-80 137 0 268 c0 223 2 268 14 268 8 0 67 -9 131
-20z m-8415 -180 c0 -123 -1 -130 -20 -130 -11 0 -20 -5 -20 -11 0 -6 9 -13
20 -16 23 -6 28 -51 8 -71 -9 -9 -9 -15 0 -24 22 -22 14 -57 -13 -64 -14 -4
-29 -4 -32 0 -3 3 -29 92 -58 198 -28 106 -55 203 -59 215 -7 23 2 26 132 31
l42 2 0 -130z m86 114 c-3 -9 -6 -19 -6 -24 0 -5 -10 -10 -22 -12 -12 -2 -23
-8 -25 -15 -5 -15 41 -21 242 -29 88 -4 156 -8 150 -10 -11 -4 -337 -44 -355
-44 -5 0 -10 -6 -10 -14 0 -17 44 -26 129 -26 36 0 91 -3 121 -7 52 -7 47 -8
-90 -24 -80 -10 -157 -18 -172 -18 l-28 -1 0 120 0 120 36 0 c29 0 35 -3 30
-16z m-209 -266 c60 -225 68 -265 56 -275 -20 -16 -7 -53 18 -53 14 0 19 -7
19 -25 0 -21 -6 -26 -40 -31 -30 -5 -40 -11 -40 -25 0 -15 10 -19 53 -21 44
-3 52 -6 52 -23 0 -17 -10 -22 -60 -30 -33 -5 -64 -13 -70 -16 -5 -3 -84 30
-175 75 l-165 81 -117 200 c-64 110 -117 203 -117 207 -1 12 137 85 224 119
77 30 243 77 276 79 12 0 31 -59 86 -262z m7986 -124 l204 -352 -40 -16 c-23
-9 -44 -13 -48 -8 -6 7 -418 644 -433 669 -8 14 94 77 105 65 4 -4 99 -165
212 -358z m1009 303 l57 -32 -137 -207 c-75 -114 -138 -206 -139 -205 -6 6
144 477 152 477 6 0 36 -15 67 -33z m-5285 -19 c-3 -8 -6 -5 -6 6 -1 11 2 17
5 13 3 -3 4 -12 1 -19z m-3057 -20 c0 -7 -4 -17 -8 -23 -8 -12 -232 -8 -232 4
0 5 42 13 93 18 134 14 147 14 147 1z m26 -36 c-12 -11 -18 7 -10 30 l8 23 4
-23 c2 -13 1 -26 -2 -30z m8464 -10 c104 -66 303 -234 289 -245 -7 -6 -543
-469 -566 -490 l-22 -20 -43 39 c-24 21 -58 50 -77 64 l-33 25 30 99 c28 89
45 119 188 336 87 131 163 236 169 232 5 -3 35 -21 65 -40z m-8470 -46 c0 -13
3 -31 6 -40 4 -11 1 -16 -10 -16 -21 0 -30 23 -22 55 8 32 26 33 26 1z m-40
10 c0 -2 -3 -11 -6 -20 -5 -13 -26 -16 -132 -16 -69 0 -122 3 -118 7 11 11
256 39 256 29z m-1127 -191 c59 -102 107 -187 107 -189 0 -3 -71 29 -157 70
-111 53 -171 88 -201 117 -23 23 -41 46 -39 52 5 14 159 134 173 135 6 0 59
-83 117 -185z m827 116 l75 -6 -115 -18 c-63 -10 -123 -20 -132 -23 -14 -4
-18 1 -18 25 l0 31 58 -1 c31 -1 91 -4 132 -8z m7243 -293 c85 -148 154 -268
152 -268 -2 0 -117 59 -255 131 l-250 131 39 71 c49 89 144 219 152 209 3 -4
76 -127 162 -274z m-6881 241 c7 -22 -4 -48 -77 -175 -47 -82 -85 -142 -85
-134 0 9 7 26 16 38 8 12 13 26 9 31 -3 5 1 29 9 53 8 24 17 60 20 81 4 22 13
37 21 37 20 0 29 20 16 33 -16 16 -13 45 7 56 27 17 55 8 64 -20z m-92 14 c-1
-30 -18 -34 -126 -26 l-109 7 95 12 c126 15 140 15 140 7z m4137 -125 c-2 -24
-4 -7 -4 37 0 44 2 63 4 43 2 -21 2 -57 0 -80z m-5511 45 c-8 -9 -46 18 -40
28 4 6 13 4 25 -7 11 -9 17 -19 15 -21z m1104 18 l85 -6 -100 -13 c-55 -7
-117 -15 -137 -18 -36 -5 -38 -4 -38 20 0 25 2 26 53 25 28 -1 90 -4 137 -8z
m472 -113 c42 -41 87 -71 158 -105 54 -27 98 -50 98 -53 -1 -3 -98 -100 -217
-217 l-216 -212 -42 19 c-23 10 -64 36 -90 57 l-49 39 30 116 c28 103 43 137
131 292 l100 175 19 -27 c11 -15 46 -53 78 -84z m-229 72 c-3 -11 -9 -23 -14
-26 -5 -3 -60 -2 -121 2 -62 4 -108 9 -102 11 13 4 193 31 221 32 16 1 20 -3
16 -19z m8959 -92 l39 -47 -333 -167 c-183 -91 -326 -159 -318 -151 8 9 130
115 270 236 l254 221 24 -23 c13 -12 42 -43 64 -69z m-10155 -71 c57 -29 103
-67 237 -198 91 -89 166 -165 166 -169 0 -4 -25 -24 -56 -44 -31 -21 -75 -55
-99 -77 l-42 -39 -336 193 c-244 139 -335 196 -331 207 8 23 110 172 149 218
l35 41 103 -49 c57 -26 135 -64 174 -83z m724 103 c14 0 19 -7 19 -25 0 -18
-5 -25 -20 -25 -11 0 -20 6 -20 13 0 6 -3 23 -5 37 -3 14 -3 19 1 13 3 -7 14
-13 25 -13z m158 -11 l56 -1 -75 -13 c-101 -18 -100 -18 -100 6 0 19 4 21 31
15 17 -3 57 -6 88 -7z m287 -25 c-3 -9 -6 -20 -6 -25 0 -5 -54 -9 -122 -8
-137 1 -136 5 2 29 128 23 133 23 126 4z m7460 -132 c78 -120 89 -142 65 -128
-8 5 -130 206 -159 261 -20 37 25 -26 94 -133z m1631 -4 c70 -102 137 -228
127 -237 -9 -9 -835 -194 -839 -189 -9 9 -75 142 -72 144 9 9 713 353 723 354
6 0 34 -33 61 -72z m-9517 42 c0 -11 -2 -20 -4 -20 -2 0 -6 9 -9 20 -3 11 -1
20 4 20 5 0 9 -9 9 -20z m190 16 c0 -2 -30 -9 -67 -15 -38 -7 -76 -14 -85 -17
-13 -4 -18 0 -18 15 0 20 6 21 85 21 47 0 85 -2 85 -4z m205 -33 c-3 -16 -9
-31 -13 -35 -4 -4 -79 -4 -167 0 l-160 7 130 26 c72 15 150 27 174 28 42 1 43
0 36 -26z m6972 -109 c237 -123 262 -138 282 -175 12 -21 17 -39 11 -39 -20 0
-615 151 -622 158 -8 9 50 192 61 192 5 0 126 -61 268 -136z m-2109 84 c-3
-36 -7 -43 -30 -49 -20 -5 -30 -3 -36 8 -7 11 -36 15 -138 18 -150 3 -257 19
-299 46 -30 19 -28 19 238 19 l268 0 -3 -42z m-5763 -46 l90 -47 57 -97 c31
-54 53 -100 49 -102 -4 -3 -74 62 -157 145 -82 82 -144 149 -139 149 6 -1 50
-22 100 -48z m1543 14 c119 -41 121 -33 -44 -128 -82 -47 -216 -125 -299 -172
l-150 -87 205 205 c113 113 207 206 211 206 3 0 38 -11 77 -24z m7535 -45
c-19 -64 -20 -66 -42 -52 -11 7 -7 20 20 64 18 31 35 55 37 53 1 -2 -5 -31
-15 -65z m-8375 34 c-3 -3 -32 -10 -64 -15 -33 -5 -71 -12 -86 -16 -24 -5 -28
-2 -28 15 0 20 5 21 92 21 50 0 89 -2 86 -5z m172 -15 c0 -5 -5 -21 -12 -35
-10 -22 -17 -25 -68 -25 -31 0 -99 3 -151 7 l-94 6 155 28 c85 15 158 27 163
28 4 0 7 -3 7 -9z m884 -47 c57 -17 60 -20 84 -73 27 -62 85 -231 80 -235 -2
-1 -138 -39 -303 -83 l-300 -81 -138 67 -139 67 314 182 c172 99 320 180 328
178 8 -2 42 -12 74 -22z m-2131 -178 c180 -103 327 -191 327 -195 0 -3 -6 -14
-13 -24 -12 -16 -36 -11 -372 79 -198 53 -366 98 -373 100 -9 3 -6 20 12 68
31 83 75 169 84 164 4 -2 154 -88 335 -192z m690 84 c26 -12 47 -25 47 -29 0
-5 -122 -50 -138 -50 -9 0 -102 151 -102 164 0 5 95 -36 193 -85z m5429 64
c-5 -25 -6 -25 -13 -8 -11 29 -10 35 5 35 9 0 12 -8 8 -27z m-5282 -13 c0 -13
-11 -13 -30 0 -12 8 -11 10 8 10 12 0 22 -4 22 -10z m3239 -42 c-7 -23 -24
-58 -37 -77 -16 -21 -27 -52 -30 -83 -4 -44 -7 -48 -26 -42 -11 4 -22 8 -24 9
-1 1 26 56 60 123 35 66 64 119 66 117 2 -2 -2 -23 -9 -47z m-2879 37 c0 -11
-63 -116 -67 -112 -2 3 3 30 12 61 13 43 21 56 36 56 10 0 19 -2 19 -5z m21
-31 c-6 -16 -15 -48 -21 -71 -11 -45 -16 -49 -38 -34 -11 7 -6 22 24 74 40 70
50 79 35 31z m7027 -59 c296 -73 313 -79 333 -107 19 -26 20 -34 10 -73 -6
-24 -11 -55 -11 -69 l0 -26 -192 0 c-106 0 -264 3 -350 7 l-158 6 0 83 c0 75
15 220 25 251 2 7 10 11 17 9 7 -3 154 -39 326 -81z m2330 -92 c59 -152 91
-284 107 -440 5 -52 3 -63 -9 -63 -12 0 -789 191 -938 231 -35 9 -38 13 -38
45 l0 35 428 -7 c300 -4 424 -3 417 4 -7 7 -151 12 -427 14 -229 2 -419 5
-421 8 -3 3 -7 18 -9 34 l-3 28 410 93 c226 51 419 93 431 94 17 1 27 -13 52
-76z m-10638 -104 c190 -51 347 -94 349 -95 2 -2 -6 -27 -19 -55 -12 -29 -27
-80 -34 -113 l-13 -61 -366 -3 -367 -2 0 57 c0 77 15 178 41 286 20 81 23 88
43 83 11 -3 176 -47 366 -97z m3763 94 c-7 -2 -19 -2 -25 0 -7 3 -2 5 12 5 14
0 19 -2 13 -5z m-1382 -171 l12 -74 -28 -22 -29 -23 32 -47 c18 -26 32 -49 32
-52 0 -2 -70 -4 -156 -4 l-157 0 -148 72 c-82 39 -149 74 -149 77 0 9 564 158
572 152 4 -3 12 -39 19 -79z m6107 -19 l152 -6 0 -37 c0 -38 25 -125 43 -147
6 -9 5 -14 -4 -18 -19 -6 -647 -145 -659 -145 -17 0 -54 153 -75 313 l-6 47
199 0 c109 0 267 -3 350 -7z m-6946 -44 c66 -33 65 -41 -3 -54 -36 -7 -37 -6
-52 39 -9 25 -14 46 -11 46 2 0 32 -14 66 -31z m8723 -160 l485 -121 0 -57 c0
-336 -163 -694 -404 -889 -217 -176 -436 -257 -721 -269 -365 -15 -719 109
-1040 363 -88 69 -265 245 -265 262 0 11 566 502 580 502 5 0 10 -2 10 -5 0
-2 -91 -143 -203 -312 -241 -366 -220 -333 -209 -333 5 0 103 142 217 315 114
173 209 315 211 315 2 0 36 -11 76 -24 40 -14 101 -28 136 -32 l62 -7 0 -76
c0 -67 -10 -109 -80 -340 -45 -145 -79 -269 -77 -275 6 -14 5 -16 77 219 34
110 64 209 68 220 4 11 9 -95 12 -235 l6 -255 2 285 c3 276 4 288 30 375 l27
90 52 7 c29 4 76 17 105 28 29 11 56 20 59 20 3 0 26 -33 51 -72 45 -71 91
-205 205 -598 22 -76 43 -122 43 -94 0 5 -25 93 -56 194 -98 324 -112 372
-105 363 4 -4 69 -104 145 -220 76 -117 142 -213 147 -213 5 0 -6 24 -24 53
-19 28 -93 142 -165 253 -106 164 -135 215 -155 283 l-26 82 76 74 76 75 36
-32 c20 -17 177 -158 350 -312 172 -155 317 -282 322 -284 32 -12 -27 44 -307
293 -278 247 -384 345 -334 309 34 -25 661 -346 666 -341 5 5 -37 28 -481 261
-151 79 -239 130 -236 138 28 90 48 138 59 138 6 0 230 -55 497 -121z m-8543
72 c45 -21 99 -45 118 -54 34 -15 28 -16 -142 -16 l-177 -1 -7 35 c-3 20 -4
38 -1 41 6 6 94 32 114 33 6 1 49 -16 95 -38z m1298 -190 l23 -123 39 39 40
40 196 -63 c269 -85 461 -149 560 -186 73 -27 86 -29 108 -18 20 11 86 9 412
-12 l387 -25 393 36 c215 20 392 34 392 31 -1 -3 -21 -20 -46 -38 -49 -36 -72
-42 -289 -66 -312 -35 -444 -41 -940 -40 -371 0 -559 4 -730 17 -126 10 -270
20 -320 23 -49 3 -104 7 -122 10 l-32 5 2 86 c2 81 1 86 -23 104 -14 11 -49
22 -78 26 -44 5 -49 8 -36 18 13 9 16 22 12 59 -3 26 -1 49 4 52 6 4 8 28 6
56 -3 27 -1 51 3 54 5 3 9 17 10 32 1 38 4 24 29 -117z m-1025 63 c42 -19 78
-34 80 -32 1 2 10 18 19 36 l17 32 144 0 145 0 0 -72 c0 -40 -3 -97 -6 -125
l-7 -53 -116 0 c-112 0 -124 2 -401 76 -386 102 -350 88 -350 135 l0 39 199 0
198 0 78 -36z m6705 28 c0 -4 -139 -75 -310 -159 l-309 -151 -31 80 c-17 44
-29 83 -26 86 6 6 632 149 659 151 9 1 17 -2 17 -7z m-8417 -88 c4 -39 12 -88
19 -110 l13 -39 -92 -17 c-51 -9 -118 -28 -150 -43 l-58 -27 -215 2 c-118 1
-217 3 -218 5 -8 8 -32 193 -32 245 l0 55 364 0 363 0 6 -71z m8465 27 c18
-22 52 -54 77 -72 25 -18 45 -35 45 -39 0 -3 -126 -115 -281 -249 -271 -235
-281 -242 -300 -226 -24 22 -126 180 -168 260 l-31 60 303 152 c166 84 307
152 313 152 6 1 25 -17 42 -38z m-6927 -111 l254 -69 -299 0 -298 -1 7 23 c4
12 12 46 18 75 11 50 13 52 38 47 14 -3 140 -37 280 -75z m7722 -52 c9 -27 14
-48 12 -48 -3 0 -17 18 -32 41 -22 33 -24 42 -13 49 8 5 15 8 16 7 0 -1 8 -23
17 -49z m-309 -85 c-19 -64 -24 -65 -24 -5 0 44 3 52 19 52 18 0 18 -3 5 -47z
m-3394 -63 c-63 -15 -116 -27 -118 -25 -2 2 14 15 35 29 33 23 47 26 118 25
l80 0 -115 -29z m-5860 -175 c0 -2 -44 -30 -97 -61 -54 -31 -113 -66 -131 -76
l-32 -20 -34 74 -33 73 156 5 c86 3 159 7 164 8 4 1 7 0 7 -3z m160 -96 c45
-13 100 -20 173 -22 59 -1 107 -4 107 -7 0 -10 -395 -400 -406 -400 -25 0
-198 209 -257 310 l-27 46 132 75 132 76 40 -29 c22 -16 69 -38 106 -49z m250
-308 c-89 -155 -166 -281 -170 -281 -11 0 -161 112 -177 131 -10 13 22 49 195
222 l207 206 50 3 c28 2 51 2 53 1 2 0 -69 -128 -158 -282z m577 267 c-3 -8
-6 -5 -6 6 -1 11 2 17 5 13 3 -3 4 -12 1 -19z m1194 -14 c43 -27 49 -29 49
-14 0 6 -11 16 -25 22 -36 16 -31 24 15 20 22 -2 40 -7 40 -11 0 -11 -96 -162
-124 -196 l-25 -30 -115 115 c-64 63 -116 117 -116 120 0 3 59 4 131 2 119 -3
135 -5 170 -28z m-1221 -30 c0 -49 -80 -376 -155 -636 -8 -27 -10 -48 -5 -48
11 0 11 2 95 310 l64 235 0 -294 1 -294 -82 6 c-169 12 -351 63 -511 143 -51
25 -96 49 -100 53 -4 4 30 73 76 152 46 79 121 208 166 287 l83 142 184 0 184
0 0 -56z m412 -14 c10 -36 50 -186 90 -333 59 -223 69 -270 57 -278 -25 -16
-162 -58 -244 -74 -44 -10 -128 -19 -187 -22 l-108 -6 0 339 c0 304 4 367 25
432 4 10 44 12 176 10 l172 -3 19 -65z m607 -54 l124 -124 -39 -47 c-52 -64
-161 -163 -253 -229 -75 -53 -250 -151 -257 -143 -3 2 -38 130 -79 283 -42
153 -77 285 -80 292 -14 38 18 -13 151 -244 82 -141 150 -251 152 -245 2 6
-69 136 -157 290 -89 153 -161 281 -161 285 0 3 107 6 238 6 l237 0 124 -124z"/>
</g>
</svg>
