<?xml version="1.0" standalone="no"?>
<!DOCTYPE svg PUBLIC "-//W3C//DTD SVG 20010904//EN"
 "http://www.w3.org/TR/2001/REC-SVG-20010904/DTD/svg10.dtd">
<svg version="1.0" xmlns="http://www.w3.org/2000/svg"
 width="1280.000000pt" height="822.000000pt" viewBox="0 0 1280.000000 822.000000"
 preserveAspectRatio="xMidYMid meet">
<metadata>
Created by potrace 1.15, written by Peter Selinger 2001-2017
</metadata>
<g transform="translate(0.000000,822.000000) scale(0.100000,-0.100000)"
fill="#000000" stroke="none">
<path d="M8343 8203 c-2 -10 -53 -189 -112 -398 -72 -253 -104 -382 -97 -386
6 -3 104 -32 217 -63 l206 -58 7 -66 c3 -37 6 -81 6 -98 l0 -30 -196 -24 -197
-23 7 -78 6 -78 -42 -5 c-24 -3 -88 -8 -142 -11 -132 -8 -167 -28 -201 -108
-51 -122 39 -278 177 -306 42 -9 89 -7 233 8 98 11 180 19 181 18 2 -1 -11
-49 -26 -105 -75 -267 -65 -438 56 -917 39 -155 150 -494 212 -651 50 -124 62
-188 62 -325 0 -195 -22 -280 -233 -914 -107 -319 -203 -598 -215 -621 -48
-93 -166 -162 -324 -190 -219 -38 -595 11 -1038 136 -117 33 -361 109 -367
114 -3 2 34 286 38 289 2 2 33 17 69 34 110 51 160 120 168 234 4 58 -1 82
-33 180 -132 397 -340 776 -528 964 -77 77 -107 99 -177 132 -156 74 -244 83
-525 54 -456 -46 -809 -57 -1049 -32 -235 25 -482 82 -637 146 -185 77 -288
74 -387 -9 l-32 -28 -115 7 c-93 6 -115 10 -119 24 -3 9 -17 68 -32 131 -14
63 -30 119 -35 124 -11 12 -373 53 -594 67 -190 12 -436 7 -544 -11 -78 -13
-167 -44 -201 -68 -39 -29 -70 -82 -70 -118 0 -19 -2 -34 -4 -34 -2 0 -98 14
-212 30 -649 94 -845 101 -1007 34 -110 -45 -147 -94 -148 -195 -1 -33 0 -61
2 -63 2 -1 76 -42 164 -91 88 -48 200 -110 248 -137 l88 -50 -101 -108 c-55
-59 -100 -112 -100 -116 1 -5 109 -85 241 -179 186 -132 236 -172 227 -181
-11 -9 -495 -412 -506 -420 -2 -1 28 -49 66 -106 l69 -103 -374 -584 -374
-584 70 -71 c39 -38 72 -68 74 -66 29 39 620 690 626 690 4 0 15 -8 24 -18 15
-16 13 -24 -32 -112 -83 -161 -143 -338 -178 -523 -25 -132 -25 -504 0 -634
50 -261 143 -492 285 -704 272 -407 690 -686 1172 -783 738 -148 1504 176
1912 810 l26 41 234 6 c128 4 501 7 828 7 l595 0 77 88 77 88 118 -3 c227 -6
943 -23 1502 -35 516 -11 578 -11 716 5 401 45 595 154 718 403 103 207 137
415 137 834 l0 249 56 83 c237 348 530 614 836 757 107 51 171 74 134 49 -10
-7 -48 -33 -85 -57 -274 -184 -510 -465 -647 -772 -284 -638 -186 -1374 256
-1914 76 -92 227 -236 320 -306 666 -494 1559 -491 2218 6 407 307 665 765
721 1277 56 512 -116 1032 -473 1430 l-96 106 21 46 c41 93 35 181 -18 288
-47 95 -85 144 -161 206 -356 290 -814 460 -1607 597 -115 20 -211 37 -211 38
-1 1 -26 90 -57 198 -140 493 -316 875 -541 1178 -104 138 -333 366 -464 461
l-104 75 6 50 c3 28 6 69 6 91 l0 41 128 6 c146 6 217 26 295 83 132 96 176
234 177 550 0 244 -21 312 -127 416 -53 51 -123 78 -315 120 -92 20 -132 22
-369 23 l-266 0 -7 120 c-9 151 -27 256 -56 323 -32 75 -53 89 -173 116 -22 5
-30 3 -34 -11z m-5784 -4983 c35 -5 65 -11 68 -14 6 -6 -274 -606 -290 -623
-7 -7 -32 -13 -57 -14 -42 -2 -62 9 -300 154 -244 150 -257 159 -292 214 -20
32 -37 61 -37 65 -2 13 134 88 223 124 98 40 249 80 346 93 90 12 262 12 339
1z m8701 -24 c539 -125 945 -542 1061 -1087 18 -83 22 -137 22 -269 0 -132 -4
-186 -22 -269 -183 -862 -1077 -1343 -1889 -1016 -478 193 -824 663 -860 1171
-31 425 114 811 415 1107 220 217 501 350 823 391 19 2 105 3 190 1 119 -3
179 -10 260 -29z m-9807 -868 c150 -89 274 -163 275 -164 2 -1 -8 -36 -22 -76
-141 -411 82 -841 499 -960 131 -37 327 -29 448 18 10 3 52 -40 123 -125 l108
-131 266 0 265 -1 -70 -65 c-190 -176 -434 -298 -700 -350 -122 -24 -367 -24
-490 0 -208 40 -416 129 -577 247 -229 169 -412 421 -502 694 -88 264 -85 602
7 870 29 84 83 205 92 205 3 0 128 -73 278 -162z"/>
<path d="M10822 2570 c-76 -14 -198 -64 -268 -110 -81 -53 -193 -172 -239
-255 -21 -37 -49 -101 -63 -143 -23 -69 -26 -93 -26 -222 0 -129 3 -153 26
-222 41 -123 92 -204 188 -299 71 -71 103 -94 181 -133 198 -97 383 -110 580
-41 229 80 409 277 470 513 26 103 26 262 -1 366 -63 248 -254 447 -505 526
-80 25 -255 35 -343 20z"/>
</g>
</svg>
