<?xml version="1.0" standalone="no"?>
<!DOCTYPE svg PUBLIC "-//W3C//DTD SVG 20010904//EN"
 "http://www.w3.org/TR/2001/REC-SVG-20010904/DTD/svg10.dtd">
<svg version="1.0" xmlns="http://www.w3.org/2000/svg"
 width="1280.000000pt" height="640.000000pt" viewBox="0 0 1280.000000 640.000000"
 preserveAspectRatio="xMidYMid meet">
<g transform="translate(0.000000,640.000000) scale(0.100000,-0.100000)"
fill="#000000" stroke="none">
<path d="M7990 5612 c-58 -43 -150 -109 -205 -147 l-100 -68 -115 7 c-727 39
-1307 33 -2055 -24 -260 -20 -544 -66 -695 -112 -79 -24 -430 -199 -624 -310
-262 -151 -552 -339 -745 -484 -126 -96 -164 -107 -351 -109 -85 -1 -198 -7
-250 -13 -52 -7 -187 -19 -300 -28 -828 -62 -1562 -200 -1908 -359 -66 -31
-75 -38 -94 -82 -12 -26 -24 -75 -26 -108 -2 -36 -20 -104 -44 -170 -22 -60
-45 -126 -52 -145 l-12 -35 -104 -5 c-128 -7 -165 -23 -179 -78 -13 -50 -29
-186 -36 -302 -13 -212 41 -685 89 -778 25 -48 88 -104 151 -133 116 -55 208
-67 534 -71 l294 -3 -2 73 c-2 65 -1 72 17 72 11 0 36 7 55 15 21 9 67 15 109
15 123 0 114 15 113 -183 0 -138 4 -186 19 -241 77 -284 270 -518 513 -620
139 -58 206 -71 373 -71 129 0 169 4 236 22 264 72 459 235 588 490 45 91 74
194 89 325 l12 103 420 -3 c231 -1 821 -7 1310 -12 2278 -25 2776 -31 3268
-35 290 -2 532 -7 536 -9 5 -3 11 -32 15 -65 22 -195 136 -414 289 -558 161
-150 344 -228 563 -240 267 -14 487 65 673 241 174 166 265 353 294 600 11
102 26 139 40 102 3 -8 21 -117 39 -242 31 -213 42 -253 65 -230 3 3 -7 114
-22 246 -18 150 -25 244 -19 250 5 5 106 27 224 49 185 35 235 41 351 41 133
0 136 0 160 -26 l24 -26 130 6 c72 3 155 13 185 21 71 19 109 19 117 0 3 -9
21 -22 39 -30 25 -10 36 -22 40 -45 7 -31 27 -40 41 -17 4 6 8 46 8 87 l0 75
82 3 81 3 21 -58 c12 -32 25 -65 29 -73 24 -42 132 -57 190 -26 17 9 44 35 60
58 22 34 27 53 27 104 0 78 -11 91 -62 78 -37 -9 -38 -11 -44 -62 -8 -60 -22
-82 -53 -82 -39 0 -56 22 -67 90 -6 36 -14 68 -18 72 -3 3 -23 10 -43 13 -31
6 -38 4 -38 -8 0 -27 -18 -29 -90 -7 -64 19 -87 39 -62 54 5 3 121 10 258 17
259 12 294 19 294 58 0 33 -30 46 -114 51 l-81 5 1 40 c0 22 4 69 8 105 8 62
7 67 -18 98 -34 39 -82 50 -125 29 -17 -9 -33 -11 -36 -6 -9 13 33 216 52 252
21 41 32 332 14 401 -9 36 -8 51 5 83 25 58 14 198 -21 269 -15 30 -35 98 -46
152 -11 53 -21 106 -24 117 -2 11 -19 29 -36 39 -31 18 -81 19 -1163 29 -710
6 -1136 13 -1143 20 -9 6 -13 45 -13 126 l0 116 -385 360 c-211 198 -401 369
-422 380 -56 29 -126 26 -190 -10 l-51 -29 -40 18 c-73 33 -133 20 -247 -53
-53 -35 -100 -59 -105 -55 -4 5 -18 46 -30 91 -17 65 -31 92 -62 128 -78 89
-157 120 -358 141 -144 16 -170 25 -170 59 0 7 68 62 151 124 82 62 148 118
146 124 -9 30 -48 14 -147 -61z m-182 -209 c2 -8 -6 -13 -22 -13 -25 0 -33 10
-19 24 10 10 36 3 41 -11z m1361 -562 c100 -85 181 -157 181 -161 0 -13 -138
-22 -158 -11 -28 15 -262 277 -262 293 0 20 22 39 41 36 9 -2 98 -72 198 -157z
m-455 105 c2 -11 16 -97 31 -191 15 -93 29 -182 32 -197 5 -23 2 -28 -14 -28
-24 0 -48 24 -63 65 -13 34 -36 346 -27 369 8 21 36 9 41 -18z m-1066 -2 l24
-5 -4 -307 c-2 -169 -8 -314 -12 -323 -4 -10 -19 -20 -34 -23 -22 -5 -690 -21
-1167 -29 l-120 -2 -3 80 c-3 89 32 598 43 615 5 7 192 9 628 5 342 -4 633 -8
645 -11z m-1628 -9 c0 -9 -72 -494 -90 -609 -10 -66 -25 -125 -32 -132 -13
-13 -753 -34 -1183 -34 l-190 0 -65 112 c-38 65 -72 114 -82 116 -29 6 -21
-22 33 -118 29 -50 49 -97 45 -105 -6 -16 -81 -21 -103 -7 -11 7 -73 201 -73
226 0 6 44 40 97 75 93 61 98 63 130 52 19 -7 47 -10 63 -6 37 8 112 75 182
162 39 48 66 72 103 88 127 57 371 113 610 140 298 34 555 53 555 40z m2530
-94 c0 -17 9 -174 21 -351 11 -177 19 -323 17 -325 -2 -2 -21 -5 -43 -7 l-40
-3 3 190 c2 105 -1 259 -8 344 -11 162 -8 181 31 181 14 0 19 -7 19 -29z
m1021 -404 c81 -11 102 -18 130 -41 19 -16 37 -34 40 -40 11 -18 -8 -124 -29
-164 -28 -54 -51 -52 -109 10 -114 121 -203 224 -203 236 0 15 46 15 171 -1z
m-336 -42 c43 -15 83 -38 107 -61 39 -39 112 -166 101 -178 -3 -3 -111 -6
-240 -6 l-233 0 -10 26 c-6 14 -10 68 -10 119 l0 95 28 6 c15 3 41 10 57 14
58 16 131 10 200 -15z m-435 -24 c17 -32 11 -109 -11 -162 -17 -39 -26 -49
-45 -49 -23 0 -24 4 -26 70 -4 140 -5 134 22 147 35 18 48 16 60 -6z m-8450
-1141 c19 -12 34 -298 16 -317 -6 -7 -31 -13 -56 -15 l-45 -3 2 155 c3 144 4
156 24 173 24 19 37 21 59 7z m-18 -398 c42 -7 51 -25 44 -85 -16 -141 -24
-157 -77 -157 -24 0 -27 4 -33 53 -8 70 -8 192 1 201 4 3 14 4 22 0 9 -4 28
-9 43 -12z m11946 -211 c50 -46 41 -65 -35 -76 -42 -5 -54 -4 -59 8 -7 19 32
97 49 97 7 0 27 -13 45 -29z m-11833 -199 c6 -4 30 -33 53 -64 24 -32 72 -76
107 -100 36 -24 65 -46 65 -50 0 -5 -25 -8 -56 -8 -127 0 -277 59 -310 121
-14 28 -14 32 1 49 20 22 93 60 115 60 8 0 20 -4 25 -8z"/>
<path d="M6950 4659 c-25 -12 -82 -27 -127 -34 -45 -8 -97 -22 -115 -31 -37
-19 -188 -152 -188 -165 0 -5 35 -9 79 -9 87 0 80 -4 206 105 39 33 95 78 125
99 89 64 91 68 20 35z"/>
<path d="M5375 4625 c-197 -51 -303 -98 -370 -163 -40 -38 -138 -152 -131
-152 6 0 638 339 645 346 8 8 -15 3 -144 -31z"/>
</g>
</svg>
