<?xml version="1.0" standalone="no"?>
<!DOCTYPE svg PUBLIC "-//W3C//DTD SVG 20010904//EN"
 "http://www.w3.org/TR/2001/REC-SVG-20010904/DTD/svg10.dtd">
<svg version="1.0" xmlns="http://www.w3.org/2000/svg"
 width="1280.000000pt" height="682.000000pt" viewBox="0 0 1280.000000 682.000000"
 preserveAspectRatio="xMidYMid meet">
<metadata>
Created by potrace 1.15, written by Peter Selinger 2001-2017
</metadata>
<g transform="translate(0.000000,682.000000) scale(0.100000,-0.100000)"
fill="#000000" stroke="none">
<path d="M4810 6804 c-20 -9 -69 -16 -116 -17 -67 -2 -86 -6 -116 -26 -45 -31
-77 -79 -85 -126 -4 -28 -12 -39 -32 -46 -49 -18 -71 -32 -77 -52 -10 -32 -7
-87 6 -102 16 -19 9 -19 -77 -1 -129 27 -259 37 -473 37 -179 0 -235 -4 -335
-22 -67 -13 -184 -25 -265 -28 l-146 -6 59 -301 59 -301 63 -6 c87 -6 235 -69
254 -106 7 -14 15 -56 18 -93 5 -62 4 -68 -13 -68 -11 0 -50 -14 -89 -30 -38
-17 -82 -30 -98 -30 -26 0 -29 -3 -23 -22 3 -13 6 -51 6 -85 0 -58 2 -63 22
-63 30 0 168 -82 168 -100 0 -20 -20 -144 -24 -148 -2 -1 -38 11 -80 28 -285
113 -664 187 -1012 197 -461 14 -874 -63 -1319 -244 -267 -109 -570 -298 -552
-346 16 -42 190 -96 342 -106 55 -3 177 -3 270 1 94 3 321 10 505 13 325 7
341 7 540 -19 489 -63 695 -112 907 -212 l92 -44 -20 -47 c-11 -26 -22 -49
-23 -50 -2 -2 -34 11 -72 28 -390 177 -843 236 -1269 163 -495 -84 -969 -354
-1286 -733 -233 -278 -384 -578 -463 -921 -42 -181 -51 -273 -50 -495 0 -225
17 -358 69 -553 195 -730 776 -1318 1503 -1523 190 -53 310 -70 527 -76 298
-8 488 18 747 104 509 168 935 515 1204 980 57 98 138 270 150 317 3 15 9 28
13 30 3 2 40 -2 81 -10 101 -19 185 -21 205 -4 39 33 89 165 130 346 126 563
128 1170 5 1664 -72 285 -155 457 -401 821 l-99 145 0 72 0 72 213 -142 c323
-215 485 -336 732 -547 138 -118 374 -350 393 -386 9 -19 17 -68 20 -129 l5
-99 -54 6 c-141 17 -580 49 -586 44 -6 -7 154 -350 298 -639 52 -104 89 -190
89 -207 0 -49 -21 -81 -69 -106 -134 -68 -241 -183 -289 -314 -34 -91 -42
-242 -17 -344 59 -250 250 -448 495 -516 80 -23 357 -45 710 -59 157 -6 184
-9 181 -22 -2 -8 -5 -51 -8 -95 -8 -132 -86 -117 707 -131 628 -11 734 -15
813 -30 l28 -6 -3 63 -3 63 -45 13 c-32 9 -220 18 -635 29 -324 8 -604 17
-622 20 -28 4 -33 10 -39 40 -3 19 -4 37 -2 40 6 5 670 -10 1383 -31 369 -11
482 -17 488 -27 89 -150 120 -198 180 -278 84 -112 261 -297 367 -383 717
-579 1714 -646 2503 -168 574 348 960 961 1028 1633 l12 115 96 7 c53 3 136 6
184 6 84 0 88 1 82 20 -5 14 -2 20 9 20 20 0 21 -19 -10 249 -65 576 -106 755
-256 1111 -39 91 -72 174 -75 185 -4 16 11 29 75 68 43 26 95 53 116 59 36 11
36 12 36 68 0 31 -3 84 -6 117 l-7 61 -58 6 c-125 14 -348 85 -436 138 -82 50
-194 158 -302 292 -174 217 -182 228 -188 290 l-6 56 47 0 c59 0 104 22 112
57 6 21 1 32 -23 54 -49 43 -141 57 -468 69 -159 6 -371 15 -470 20 -99 5
-378 14 -620 19 -242 6 -520 13 -617 17 l-178 6 0 122 c-1 200 -25 457 -44
471 -21 16 -115 21 -776 45 -489 18 -598 20 -923 10 -202 -7 -389 -15 -414
-18 -66 -10 -76 -30 -69 -152 9 -170 73 -320 182 -424 l46 -45 -36 -263 c-21
-145 -43 -279 -51 -298 -18 -46 -77 -459 -69 -486 3 -12 -4 -85 -15 -163 -12
-79 -21 -144 -21 -147 0 -2 -19 -2 -42 1 -24 3 -104 9 -178 15 -322 26 -751
80 -792 101 -32 17 -432 302 -573 408 -301 228 -587 483 -805 718 -121 131
-159 204 -195 381 -21 97 -45 291 -45 354 0 43 3 50 26 58 102 39 143 68 257
182 l119 119 -39 28 c-131 98 -156 124 -178 191 -41 122 -42 117 14 124 35 5
61 2 91 -10 95 -38 200 19 216 118 9 52 -27 124 -72 146 -26 12 -34 22 -34 42
0 37 -38 89 -80 111 -42 23 -93 24 -140 3z m-2437 -2838 c59 -8 110 -16 112
-18 2 -2 -19 -66 -46 -143 -27 -77 -93 -261 -145 -409 -52 -148 -98 -276 -103
-283 -4 -8 -60 157 -139 414 -72 235 -130 429 -128 430 1 1 34 7 72 12 105 13
257 12 377 -3z m-460 -93 c14 -43 77 -247 141 -453 l116 -375 -53 -149 -53
-148 -40 -14 c-21 -8 -44 -14 -51 -14 -7 0 -70 38 -140 84 l-128 83 -77 209
c-43 115 -118 316 -166 446 l-89 237 66 32 c91 44 209 87 316 115 136 35 130
37 158 -53z m679 53 c128 -33 348 -119 348 -136 0 -4 -79 -168 -177 -366 -97
-197 -176 -367 -175 -376 0 -10 -28 -80 -63 -155 -56 -122 -68 -141 -102 -160
-37 -21 -40 -22 -84 -6 l-46 17 -46 152 -47 152 35 93 c18 52 88 247 155 434
66 187 122 346 125 353 6 15 12 15 77 -2z m-1233 -193 c6 -16 65 -174 131
-353 66 -179 132 -354 146 -389 14 -35 23 -65 21 -67 -2 -3 -173 105 -380 238
l-376 243 67 68 c37 38 96 92 132 122 67 55 228 165 240 165 4 0 13 -12 19
-27z m8533 2 l98 -7 45 -144 c25 -79 81 -259 124 -400 l79 -256 -23 -61 c-26
-69 -37 -75 -125 -59 l-45 7 -23 90 c-12 50 -24 108 -27 130 -4 34 -63 216
-204 619 -17 49 -31 91 -31 93 0 3 8 2 18 -1 9 -2 61 -7 114 -11z m383 -30
c94 -8 183 -15 199 -15 25 0 28 -3 22 -26 -5 -19 -193 -554 -235 -668 -5 -12
-46 107 -119 346 -62 200 -112 367 -112 371 0 10 52 9 245 -8z m535 -51 c171
-22 282 -45 276 -58 -2 -6 -83 -197 -180 -425 -96 -228 -180 -417 -186 -421
-9 -6 -369 26 -397 35 -6 2 -21 36 -33 74 l-21 71 110 307 c60 170 120 339
132 377 l24 68 80 -6 c44 -4 132 -14 195 -22z m-1250 -396 c79 -211 145 -389
148 -395 3 -9 -6 -13 -27 -13 -24 0 -113 53 -369 217 -185 119 -339 218 -341
220 -8 6 120 131 199 196 82 66 218 157 236 157 6 0 76 -172 154 -382z m-6182
214 c56 -57 102 -107 102 -112 0 -7 -542 -330 -555 -330 -3 0 61 132 142 294
l147 294 31 -21 c16 -12 76 -68 133 -125z m7822 93 c99 -63 351 -296 350 -322
-1 -9 -761 -455 -766 -450 -2 2 69 174 157 383 88 208 165 389 170 402 11 27
32 24 89 -13z m-9901 -452 l384 -248 54 -145 55 -145 -24 -43 c-26 -49 -18
-46 -197 -68 -104 -12 -139 -13 -159 -4 -21 9 -799 447 -810 455 -2 2 15 40
36 86 45 99 132 240 197 322 37 47 49 56 63 48 9 -5 190 -122 401 -258z m2254
152 c61 -84 138 -221 175 -310 41 -98 45 -113 30 -117 -7 -2 -196 -96 -420
-211 l-407 -207 -161 27 c-120 19 -163 31 -170 43 -6 12 22 67 113 217 67 111
128 201 134 200 7 -1 21 14 30 33 15 29 62 61 318 212 165 97 303 177 306 177
3 1 26 -28 52 -64z m5715 -204 c166 -107 300 -196 298 -198 -1 -1 -112 8 -247
22 -188 19 -247 28 -255 40 -16 22 -113 269 -121 307 -5 24 -3 29 9 27 8 -2
151 -92 316 -198z m2366 72 c60 -86 140 -232 180 -332 14 -35 25 -65 23 -66
-1 -1 -40 -23 -87 -48 l-85 -46 -443 48 c-244 27 -445 50 -447 53 -5 5 776
466 792 467 7 1 37 -34 67 -76z m-9379 -363 c4 -13 -8 -15 -75 -15 -44 0 -80
0 -80 1 0 1 60 173 71 204 l13 35 33 -105 c18 -58 35 -112 38 -120z m-889
-327 c-3 -3 -856 -113 -880 -113 -11 0 0 134 20 252 12 74 67 278 80 299 2 4
179 -92 394 -214 215 -121 388 -222 386 -224z m8913 355 c1 -5 -12 -8 -29 -8
-35 0 -34 -3 -14 46 l17 39 13 -35 c7 -19 13 -38 13 -42z m-8422 -46 l82 -54
-37 -25 c-20 -14 -49 -36 -63 -49 l-26 -25 -38 103 c-21 57 -40 109 -43 117
-7 18 17 5 125 -67z m1937 23 c13 -66 -87 -239 -212 -367 -56 -58 -82 -78
-101 -78 -27 0 -481 77 -486 82 -6 5 779 406 786 402 4 -2 10 -20 13 -39z
m8070 -113 c5 -18 7 -35 4 -38 -8 -7 -138 7 -138 15 0 9 103 60 115 57 5 -1
14 -17 19 -34z m-10150 -262 c-8 -30 -14 -65 -14 -78 0 -13 -4 -22 -9 -20 -25
9 -211 114 -211 118 0 4 229 36 247 35 1 0 -5 -25 -13 -55z m1081 11 l90 -17
-114 -58 c-62 -31 -115 -55 -118 -53 -2 3 -8 35 -14 72 -5 37 -12 72 -15 77
-7 11 31 6 171 -21z m-1239 -70 l139 -79 9 -45 c10 -52 14 -47 -146 -214 l-69
-72 -462 -85 c-253 -47 -462 -84 -464 -82 -8 8 -44 148 -58 226 -9 47 -18 136
-22 198 -5 92 -4 112 8 112 16 1 923 117 925 119 1 0 64 -34 140 -78z m1634 4
c118 -19 226 -38 240 -41 24 -6 25 -6 5 -20 -11 -8 -49 -24 -85 -35 -55 -18
-103 -22 -325 -29 -274 -8 -316 -15 -362 -57 -14 -13 -27 -22 -30 -19 -2 2 -2
24 2 48 l7 43 146 77 c89 47 155 75 167 73 11 -3 117 -21 235 -40z m2202 -60
c19 -8 43 -26 53 -41 17 -26 16 -28 -4 -73 -120 -257 -26 -549 224 -696 36
-21 65 -38 65 -39 0 -8 -251 16 -295 28 -205 60 -342 201 -376 389 -46 251
152 508 333 432z m-3657 -177 c4 -13 20 -44 36 -70 l29 -48 -23 -5 c-64 -15
-223 -42 -226 -39 -5 4 161 182 171 183 4 1 10 -9 13 -21z m905 -37 c5 -21 21
-55 35 -75 l24 -36 -45 0 c-24 0 -60 6 -79 14 l-34 15 34 51 c19 29 35 56 35
61 0 25 21 4 30 -30z m9285 -86 c-10 -94 -40 -234 -71 -331 -21 -67 -30 -84
-43 -80 -9 3 -205 48 -436 100 -231 53 -430 98 -442 101 -18 4 -218 224 -210
231 1 1 236 9 522 18 286 10 529 18 540 20 11 2 49 4 84 5 l63 1 -7 -65z
m-1139 -103 c40 -48 71 -88 70 -89 0 0 -43 9 -94 20 -74 18 -91 25 -85 37 3 8
11 39 17 68 6 28 13 52 16 51 3 0 37 -39 76 -87z m-8926 51 l32 -27 -7 -160
c-6 -142 -9 -165 -28 -191 -11 -16 -146 -182 -300 -367 -238 -289 -281 -337
-296 -328 -88 46 -391 316 -391 347 0 6 144 165 319 354 l319 344 144 26 c181
34 171 34 208 2z m660 -82 c53 -24 150 -27 252 -7 l66 12 294 -344 c161 -189
294 -348 296 -353 9 -23 -209 -212 -345 -299 -73 -47 -79 -49 -94 -32 -9 9
-139 178 -288 376 l-271 358 0 162 c0 90 3 166 7 169 3 4 14 1 22 -7 9 -8 37
-24 61 -35z m-1101 2 c-20 -21 -156 -168 -303 -326 -208 -223 -271 -285 -281
-277 -22 18 -120 170 -162 250 -34 65 -105 229 -100 230 43 10 848 159 862
159 16 1 13 -5 -16 -36z m1676 -11 c-6 -6 -164 32 -159 39 2 4 40 -3 83 -14
44 -12 78 -23 76 -25z m-1100 9 c28 -11 58 -22 68 -25 14 -5 2 -24 -65 -105
-45 -55 -84 -98 -86 -96 -3 2 -1 61 3 130 5 89 10 125 19 121 6 -2 34 -14 61
-25z m407 -159 c2 -50 2 -92 1 -92 -2 0 -39 48 -83 107 l-81 108 43 11 c24 6
59 18 78 26 l35 15 2 -41 c2 -23 4 -83 5 -134z m903 68 c462 -105 435 -98 435
-113 0 -42 -177 -339 -257 -435 l-28 -33 -275 322 c-301 353 -308 361 -288
354 7 -2 193 -45 413 -95z m-996 -88 l100 -133 1 -464 0 -464 -57 -7 c-84 -12
-305 -9 -403 5 -47 7 -86 14 -88 16 -4 4 38 893 44 922 2 12 51 77 108 145
l104 124 45 -5 c45 -6 47 -8 146 -139z m8475 107 l108 -24 146 -169 c80 -93
137 -167 126 -163 -10 3 -72 26 -137 51 -138 53 -269 82 -419 92 l-108 7 0 62
0 63 53 30 c28 16 63 42 77 56 13 15 29 25 35 23 5 -3 59 -15 119 -28z m608
-140 c230 -52 418 -98 418 -103 0 -21 -93 -203 -143 -278 -67 -103 -136 -190
-146 -186 -5 2 -40 40 -80 86 l-71 83 0 85 0 84 -72 0 -73 1 -117 138 c-153
180 -166 196 -148 190 8 -3 203 -48 432 -100z m-922 -9 l0 -60 -33 0 c-27 0
-39 8 -65 42 l-33 43 63 17 c35 9 64 17 66 17 1 1 2 -26 2 -59z m-110 -52 c0
-5 -63 -8 -141 -8 l-140 0 20 28 c32 46 43 51 121 54 74 3 75 3 107 -32 18
-19 32 -38 33 -42z m-412 30 l-3 -43 -180 -6 c-99 -4 -234 -10 -299 -14 l-119
-7 42 49 c41 46 45 48 109 54 37 3 154 6 260 7 l193 2 -3 -42z m122 2 c-24
-30 -39 -40 -61 -40 -27 0 -29 2 -29 40 l0 40 61 0 61 0 -32 -40z m-709 -8
c-52 -66 -44 -64 -299 -78 -130 -7 -270 -13 -310 -14 l-73 0 -13 33 c-32 77
-33 74 36 85 35 5 204 10 376 11 l314 1 -31 -38z m-1200 -57 l16 -54 -71 -5
c-39 -3 -240 -10 -446 -16 -206 -5 -440 -12 -520 -15 -119 -4 -142 -3 -125 7
10 7 42 34 71 61 l51 47 157 0 c117 0 162 -4 179 -14 33 -21 202 -58 292 -63
63 -4 104 0 192 20 136 31 167 45 171 75 5 32 13 21 33 -43z m-6311 -492 c-12
-230 -23 -419 -25 -421 -6 -6 -198 49 -272 79 -91 36 -229 105 -238 119 -3 5
119 161 272 346 214 259 279 332 281 315 2 -11 -6 -209 -18 -438z m854 97
c146 -192 266 -352 266 -355 0 -7 -122 -62 -213 -96 -91 -34 -202 -64 -269
-74 l-48 -7 0 410 c0 225 -3 424 -6 441 -4 17 -4 31 -1 31 3 0 125 -157 271
-350z m8707 -2 c35 -40 70 -81 78 -91 13 -16 10 -23 -45 -78 -102 -105 -334
-279 -370 -279 -6 0 -78 89 -161 198 l-150 199 81 12 c86 13 232 58 294 90 28
15 57 20 123 21 l87 0 63 -72z m-2481 -12 c0 -11 -19 -15 -25 -6 -3 5 1 10 9
10 9 0 16 -2 16 -4z m425 -22 c154 -9 282 -17 284 -19 6 -6 -292 -360 -300
-358 -42 13 -250 184 -339 280 l-71 76 22 23 c18 19 29 22 72 18 29 -2 178
-11 332 -20z m568 -44 c-1 -8 -7 -136 -13 -285 -7 -148 -13 -271 -14 -272 -1
-2 -44 9 -96 23 -116 30 -273 92 -362 142 l-67 38 85 104 c48 58 119 143 158
190 l72 85 120 -5 c98 -4 119 -8 117 -20z m557 -284 l0 -293 -61 -7 c-130 -13
-468 0 -488 20 -4 4 18 551 24 569 1 6 96 9 264 7 l261 -3 0 -293z m406 99
c84 -110 153 -203 153 -206 1 -8 -164 -81 -246 -110 -60 -21 -249 -69 -270
-69 -10 0 -13 65 -13 289 l0 290 43 4 c23 2 73 3 111 3 l70 -1 152 -200z"/>
</g>
</svg>
