<?xml version="1.0" standalone="no"?>
<!DOCTYPE svg PUBLIC "-//W3C//DTD SVG 20010904//EN"
 "http://www.w3.org/TR/2001/REC-SVG-20010904/DTD/svg10.dtd">
<svg version="1.0" xmlns="http://www.w3.org/2000/svg"
 width="1062.000000pt" height="1280.000000pt" viewBox="0 0 1062.000000 1280.000000"
 preserveAspectRatio="xMidYMid meet">
<metadata>
Created by potrace 1.15, written by Peter Selinger 2001-2017
</metadata>
<g transform="translate(0.000000,1280.000000) scale(0.100000,-0.100000)"
fill="#000000" stroke="none">
<path d="M4643 12786 c-159 -39 -284 -162 -323 -318 -7 -28 -11 -91 -8 -155 3
-93 8 -115 31 -161 37 -71 93 -131 143 -152 37 -16 398 -143 710 -250 110 -37
128 -47 189 -102 68 -60 69 -60 116 -54 l49 7 187 -178 c102 -98 208 -198 235
-221 l48 -44 0 -124 0 -124 -189 0 -189 0 -46 -62 c-41 -55 -46 -67 -46 -115
l0 -53 -332 5 c-183 3 -421 7 -528 10 -115 3 -210 1 -231 -5 -44 -12 -82 -74
-82 -134 0 -47 28 -139 47 -156 9 -7 173 -14 497 -21 266 -6 492 -14 503 -18
14 -5 -2 -15 -66 -43 -46 -20 -146 -65 -221 -99 l-138 -62 6 -31 c4 -17 14
-41 22 -54 14 -23 15 -23 41 -7 15 9 39 31 54 48 28 31 28 31 230 54 112 12
208 21 214 19 5 -2 16 -23 23 -47 7 -24 23 -67 36 -95 l23 -53 339 -3 c300 -3
344 -5 388 -22 101 -38 250 -153 316 -245 70 -98 159 -375 159 -493 0 -31 -4
-35 -68 -65 -37 -17 -112 -60 -167 -94 -134 -84 -413 -286 -424 -307 -19 -37
-22 -137 -7 -210 15 -74 140 -510 199 -697 l32 -100 0 -235 0 -235 40 -85 c84
-180 212 -389 391 -640 161 -224 172 -243 190 -331 24 -113 22 -342 -4 -449
-62 -256 -223 -621 -443 -1003 -97 -168 -190 -291 -413 -545 -87 -99 -91 -102
-131 -102 -85 0 -275 62 -354 116 l-36 24 -1 243 c-1 273 -17 446 -64 681 -31
154 -109 465 -154 615 l-26 83 29 42 c99 144 186 401 231 686 7 41 17 78 23
81 5 4 81 10 168 14 175 8 173 7 202 82 69 177 58 380 -30 601 -40 98 -130
226 -230 324 -122 120 -152 142 -278 203 -126 61 -209 88 -315 104 -68 10
-335 30 -402 31 -20 0 -32 10 -51 43 -48 79 -161 176 -243 207 -15 6 -140 44
-278 85 -339 100 -594 185 -897 298 -202 76 -275 99 -359 112 -139 21 -506 36
-700 29 l-155 -7 -61 -43 c-84 -59 -221 -207 -301 -325 l-66 -98 -66 -6 c-174
-16 -387 -140 -577 -337 l-62 -63 -9 -401 -9 -400 -31 -45 c-17 -24 -49 -75
-72 -113 l-42 -68 60 -105 60 -104 -40 -77 c-28 -55 -85 -230 -200 -617 -88
-297 -164 -544 -168 -548 -4 -4 -34 -1 -66 8 -67 17 -171 20 -209 5 -50 -19
-175 -122 -205 -168 -57 -90 -74 -213 -47 -342 29 -132 47 -164 237 -405 100
-126 192 -244 205 -261 l24 -31 -21 -59 c-68 -197 -102 -435 -103 -724 0 -231
12 -362 50 -560 48 -247 110 -407 222 -575 163 -246 409 -431 702 -529 252
-84 451 -76 665 28 165 79 344 237 469 414 30 43 62 84 70 91 17 14 20 14 309
-50 l178 -39 285 40 c157 22 299 40 315 40 29 0 176 -61 259 -108 25 -14 93
-59 152 -101 106 -74 108 -75 165 -72 131 6 204 20 259 52 l55 31 230 -51
c222 -49 234 -51 382 -51 83 1 242 5 351 9 191 9 203 8 298 -15 108 -26 383
-74 568 -99 247 -33 890 -49 907 -23 4 7 15 -64 24 -157 42 -412 154 -751 343
-1034 249 -372 603 -606 1081 -714 145 -32 351 -30 485 6 274 72 479 195 691
414 208 215 378 494 522 858 74 186 93 258 122 460 37 263 49 444 42 685 -9
315 -42 513 -126 758 l-49 142 26 0 c15 0 65 -5 112 -10 64 -7 86 -7 92 3 11
17 10 161 -3 237 -44 274 -264 678 -592 1090 -122 152 -279 330 -307 348 -19
12 -199 91 -259 113 -44 17 -15 19 65 3 112 -21 297 -29 363 -15 75 16 105 41
146 124 47 96 64 218 66 453 1 200 -3 224 -60 347 -28 61 -39 98 -39 133 0
107 -111 328 -186 372 -45 27 -148 238 -255 523 -44 119 -94 246 -110 283 -50
110 -227 372 -492 727 -126 169 -151 221 -241 493 -65 200 -111 274 -264 431
-88 90 -132 122 -278 206 -58 32 -102 64 -105 74 -1 10 0 46 4 81 l7 64 152 0
c166 0 199 7 330 69 35 17 67 31 70 31 4 0 20 -10 35 -21 l29 -21 84 27 c45
15 140 49 210 75 l126 48 114 -44 c62 -24 127 -43 143 -44 17 0 122 -40 235
-89 190 -82 207 -87 235 -76 25 10 30 17 28 44 -1 34 -27 71 -49 71 -6 0 -93
40 -193 90 l-181 89 6 44 6 43 -121 68 -121 69 -34 71 c-21 42 -65 105 -109
155 l-74 84 107 221 c225 463 254 518 307 567 46 44 55 47 144 63 206 37 193
32 252 95 30 32 81 104 114 160 52 87 63 113 77 188 20 112 23 212 8 239 -31
58 -138 124 -199 124 -58 0 -161 -28 -215 -57 -78 -42 -204 -183 -267 -296
-74 -134 -124 -253 -129 -307 -3 -39 0 -51 31 -90 l34 -45 -120 -292 -120
-291 -43 -20 c-36 -18 -45 -28 -59 -71 -9 -28 -21 -53 -26 -56 -5 -4 -71 56
-147 133 -139 141 -344 317 -462 397 -122 83 -399 170 -695 217 -110 18 -179
23 -325 22 -264 -1 -377 -22 -770 -144 -201 -62 -296 -80 -341 -62 -26 10 -26
12 -33 139 l-7 128 -252 252 c-249 250 -251 252 -249 292 2 25 -4 51 -18 73
-15 25 -20 50 -20 108 0 113 -19 388 -31 450 -25 130 -100 206 -300 304 -260
129 -443 169 -596 132z m-3532 -9282 c21 -25 251 -137 287 -139 22 -2 45 -14
69 -36 50 -49 173 -195 173 -206 0 -16 -43 -51 -85 -69 -26 -11 -70 -17 -125
-18 -101 -1 -125 11 -211 101 -88 93 -122 161 -139 280 -12 89 0 124 31 87z
m7685 -728 c84 -22 154 -66 231 -142 57 -57 81 -92 117 -166 62 -130 80 -220
73 -372 -4 -94 -11 -139 -32 -201 -94 -284 -331 -457 -571 -417 -146 24 -296
130 -372 264 -36 62 -84 183 -76 191 3 3 35 -7 71 -21 42 -16 70 -22 78 -16 7
5 37 25 66 45 30 19 69 53 87 74 28 31 33 43 28 69 -103 525 -113 591 -97 610
19 22 100 64 156 82 53 17 178 17 241 0z m-5839 -146 c175 -14 170 -13 183
-61 7 -25 8 -45 2 -51 -5 -5 -38 -14 -75 -20 -60 -10 -76 -8 -204 22 -181 43
-233 59 -233 71 0 5 19 19 43 29 49 23 101 24 284 10z"/>
</g>
</svg>
