<?xml version="1.0" standalone="no"?>
<!DOCTYPE svg PUBLIC "-//W3C//DTD SVG 20010904//EN"
 "http://www.w3.org/TR/2001/REC-SVG-20010904/DTD/svg10.dtd">
<svg version="1.0" xmlns="http://www.w3.org/2000/svg"
 width="1280.000000pt" height="787.000000pt" viewBox="0 0 1280.000000 787.000000"
 preserveAspectRatio="xMidYMid meet">
<metadata>
Created by potrace 1.15, written by Peter Selinger 2001-2017
</metadata>
<g transform="translate(0.000000,787.000000) scale(0.100000,-0.100000)"
fill="#000000" stroke="none">
<path d="M5246 7854 c-56 -20 -100 -57 -148 -122 -23 -31 -79 -102 -124 -157
-44 -55 -87 -111 -95 -125 -10 -18 -14 -62 -15 -150 0 -111 -3 -133 -27 -191
-22 -57 -40 -137 -51 -229 -3 -23 -10 -26 -92 -42 -49 -9 -96 -15 -105 -12
-11 3 -18 21 -22 56 -9 69 -24 85 -65 64 -49 -25 -105 -97 -208 -269 -54 -89
-110 -175 -125 -191 l-26 -30 -17 33 c-16 30 -16 35 0 76 26 69 16 88 -76 141
-92 53 -92 54 -109 114 -17 61 -41 110 -54 110 -6 0 -8 -23 -4 -65 l6 -65 -91
-127 c-268 -374 -304 -417 -394 -470 -62 -36 -64 -39 -64 -77 0 -34 -17 -65
-111 -210 -174 -267 -176 -269 -226 -320 -87 -87 -138 -109 -378 -163 -409
-90 -677 -214 -1133 -521 -128 -86 -285 -191 -349 -232 -63 -41 -111 -76 -105
-78 5 -1 68 10 139 27 70 17 218 50 328 75 245 55 260 60 377 133 195 123 267
155 383 168 33 3 164 -1 291 -10 126 -9 341 -22 477 -29 136 -7 250 -16 253
-19 3 -3 -56 -135 -131 -294 -76 -158 -194 -407 -262 -552 -68 -146 -125 -267
-128 -269 -2 -2 -19 12 -37 31 -33 35 -35 35 -94 30 -59 -5 -60 -5 -87 30 -34
45 -80 56 -131 32 -36 -17 -37 -17 -74 7 -63 42 -89 42 -163 1 -3 -2 -23 10
-44 27 -46 37 -99 40 -139 9 -20 -16 -34 -19 -54 -14 -73 19 -121 17 -157 -5
-35 -22 -37 -22 -75 -5 -50 23 -99 14 -146 -27 -32 -28 -38 -30 -68 -21 -44
14 -96 -4 -135 -46 -26 -27 -32 -30 -56 -21 -62 23 -118 3 -144 -51 -15 -31
-20 -34 -63 -35 -55 -1 -92 -22 -120 -70 -18 -31 -24 -34 -68 -34 -57 0 -110
-36 -110 -75 0 -30 -25 -55 -54 -55 -13 0 -44 -16 -69 -35 -35 -27 -46 -42
-49 -67 -3 -30 -6 -33 -40 -36 -49 -4 -93 -53 -102 -115 -6 -40 -11 -46 -46
-60 -45 -17 -80 -67 -80 -113 0 -35 -12 -48 -52 -58 -40 -9 -62 -49 -63 -113
0 -49 -4 -58 -32 -81 -43 -37 -57 -69 -58 -127 0 -44 -3 -51 -28 -63 -38 -19
-50 -55 -43 -131 6 -56 4 -66 -14 -86 -26 -28 -46 -103 -30 -119 17 -17 11
-58 -11 -82 -32 -34 -36 -95 -10 -140 l22 -37 -20 -48 c-27 -61 -26 -102 0
-138 20 -27 20 -30 4 -62 -22 -42 -23 -101 -1 -131 9 -13 23 -32 31 -43 12
-17 13 -28 5 -55 -14 -48 -3 -103 26 -131 25 -24 30 -49 15 -78 -6 -11 -6 -33
1 -59 8 -33 19 -47 49 -64 45 -25 52 -41 39 -87 -8 -28 -5 -39 15 -71 14 -23
34 -40 47 -42 20 -3 23 -9 23 -43 0 -66 29 -117 83 -145 42 -23 48 -29 53 -68
6 -46 47 -99 82 -104 22 -3 33 -19 42 -62 9 -43 69 -99 96 -91 26 9 69 -29 69
-60 0 -31 50 -75 86 -75 33 0 57 -21 68 -58 13 -40 67 -72 124 -72 54 0 72
-15 72 -60 0 -11 8 -23 18 -26 9 -3 27 -10 38 -16 16 -7 32 -6 58 3 36 13 37
13 69 -22 44 -48 72 -58 148 -52 62 5 65 4 76 -20 7 -15 26 -30 47 -37 32 -10
39 -9 62 9 37 29 60 26 86 -9 12 -17 38 -35 60 -42 34 -10 41 -9 78 15 49 33
55 33 76 2 14 -21 24 -25 65 -25 46 0 61 9 65 38 4 21 11 25 39 18 14 -4 29
-14 32 -24 10 -26 24 -32 76 -32 41 0 49 3 57 25 5 14 21 27 36 31 22 6 31 2
46 -20 31 -42 110 -30 122 18 8 31 40 35 91 10 30 -14 36 -14 71 1 21 9 51 31
67 51 27 33 31 34 76 28 45 -6 50 -4 95 35 53 46 53 46 108 29 35 -10 40 -10
54 10 8 12 21 22 29 22 7 0 19 17 25 37 16 51 34 64 71 51 26 -9 33 -6 64 23
20 19 35 43 35 56 0 29 42 57 74 49 36 -9 96 47 96 90 0 38 22 64 55 64 29 0
85 62 85 95 0 30 32 65 59 65 10 0 33 16 50 35 24 27 31 45 31 75 0 39 26 80
50 80 18 0 50 64 50 99 0 28 9 42 45 75 56 52 71 92 55 142 -11 34 -10 38 17
67 42 46 59 91 44 123 -12 28 -12 29 36 92 36 47 39 69 21 137 -10 38 -10 49
4 73 25 44 29 89 12 130 -14 37 -13 41 11 93 31 67 31 75 -1 123 -21 30 -25
45 -19 69 14 62 7 113 -20 152 -23 35 -24 40 -10 61 26 40 19 87 -20 138 -28
36 -35 55 -35 90 0 60 -16 99 -50 125 -29 21 -30 24 -24 75 6 46 3 59 -14 84
-12 16 -35 35 -52 42 -28 12 -48 47 -42 77 5 22 -40 93 -58 93 -25 0 -38 19
-56 81 -18 62 -48 99 -79 99 -27 0 -65 35 -65 59 0 31 -39 70 -80 81 -35 9
-40 16 -55 61 -10 29 -27 56 -41 66 -13 8 -24 20 -24 27 0 23 483 913 566
1044 37 58 55 63 95 29 103 -88 317 -466 419 -743 52 -139 103 -325 136 -494
14 -74 34 -153 43 -175 21 -48 97 -145 113 -145 21 0 -10 446 -52 743 -11 77
-17 143 -14 146 9 9 112 -105 134 -150 12 -22 26 -66 31 -97 13 -67 21 -79 63
-90 26 -7 39 -23 88 -113 32 -57 57 -107 58 -112 0 -4 -11 -5 -24 -1 -65 16
-205 -101 -156 -131 6 -3 10 -16 10 -28 0 -12 11 -40 25 -62 31 -51 31 -58 -4
-108 -31 -45 -120 -220 -140 -277 -7 -19 -46 -105 -87 -190 -76 -159 -101
-239 -129 -410 -48 -299 -21 -449 98 -538 28 -20 57 -42 66 -49 25 -19 195 26
263 70 149 95 281 295 418 632 31 77 61 140 66 140 5 0 38 -43 74 -95 195
-284 496 -477 853 -546 98 -19 877 -33 877 -16 0 5 -26 13 -57 16 -85 10 -113
16 -113 27 0 5 31 9 69 9 67 0 71 -1 111 -40 23 -23 55 -47 71 -56 27 -13 32
-13 89 16 69 35 70 35 70 15 0 -18 -5 -18 70 1 69 17 116 14 244 -17 149 -36
213 -59 255 -91 91 -70 105 -78 136 -78 36 0 72 29 81 65 6 26 4 39 -17 113
-11 36 -11 44 3 58 14 14 19 14 44 1 16 -8 61 -25 99 -37 90 -29 133 -52 169
-90 16 -16 33 -30 37 -30 21 0 15 -34 -13 -66 -31 -35 -31 -35 -19 -92 15 -67
35 -102 59 -102 40 -1 45 -15 22 -69 l-23 -51 27 -63 c33 -75 49 -94 87 -102
40 -9 44 -21 24 -65 -17 -39 -17 -39 10 -87 43 -74 64 -93 103 -93 l34 0 -7
-48 c-6 -46 -4 -51 39 -106 55 -71 72 -83 117 -88 33 -3 34 -4 31 -44 -3 -37
1 -44 57 -97 58 -56 60 -57 105 -51 l46 7 0 -37 c0 -39 43 -106 67 -106 7 0
23 -14 35 -31 22 -30 25 -31 81 -24 51 5 57 4 57 -13 0 -27 48 -68 106 -90 49
-20 51 -20 80 -2 48 30 74 34 74 13 0 -41 47 -89 110 -112 71 -26 106 -22 144
16 15 14 29 24 31 21 3 -3 8 -28 12 -56 l6 -50 52 -7 c76 -9 102 1 126 47 26
51 52 48 59 -7 4 -29 11 -43 30 -52 29 -15 118 -16 174 -3 25 5 60 5 94 -1 30
-6 82 -8 114 -4 64 8 63 7 107 118 6 15 15 27 20 27 5 0 32 -18 60 -40 50 -40
51 -40 98 -29 69 17 91 33 104 81 18 62 23 65 69 33 l40 -28 57 29 c57 29 58
30 57 71 -1 38 2 43 29 53 20 6 34 7 42 0 6 -5 28 -16 48 -25 36 -15 37 -15
63 14 14 16 37 32 50 35 29 8 39 41 30 102 -7 54 9 65 60 40 19 -9 39 -16 45
-16 15 0 99 81 99 96 0 7 -7 29 -17 48 -25 53 -7 69 66 60 l56 -6 43 50 c46
55 51 79 27 135 -21 50 -4 66 63 59 l50 -4 27 56 c26 56 27 57 8 83 -10 14
-22 32 -28 40 -13 19 14 39 64 47 48 7 71 29 71 65 0 16 7 34 15 41 22 18 19
37 -16 80 -42 52 -37 82 16 95 57 14 60 18 75 80 l13 56 -38 39 c-42 43 -42
44 7 68 40 21 58 53 58 107 0 23 5 46 11 52 8 8 0 19 -31 42 -24 17 -46 31
-50 31 -5 0 -11 7 -14 16 -7 19 10 54 27 54 8 0 26 13 41 28 26 29 27 29 14
88 -11 48 -19 62 -46 81 -18 12 -38 24 -45 26 -7 3 -2 12 14 25 38 30 55 76
40 108 -6 14 -11 38 -11 53 0 32 -21 54 -72 75 -41 18 -53 39 -32 57 9 7 22
26 30 42 14 27 14 33 -6 81 -29 67 -44 83 -86 91 -29 5 -34 10 -28 23 18 41
16 101 -5 131 -12 16 -21 33 -21 38 0 19 -41 46 -87 58 -51 13 -50 10 -37 86
5 30 1 41 -20 65 -14 16 -35 39 -46 52 -14 16 -30 22 -59 22 -39 0 -40 1 -46
37 -3 21 -8 47 -10 58 -3 11 -27 39 -55 63 -42 36 -59 44 -104 49 l-54 6 -7
48 c-6 46 -10 50 -65 84 -65 39 -76 41 -108 19 -26 -18 -38 -13 -46 22 -11 43
-37 74 -80 96 -66 34 -93 38 -137 22 -47 -16 -59 -12 -59 21 0 34 -21 50 -95
75 l-65 22 -31 -26 c-33 -28 -59 -24 -78 13 -16 29 -56 50 -115 59 -57 9 -65
7 -120 -32 l-27 -19 -33 37 c-32 34 -37 36 -97 36 -61 0 -65 -2 -92 -35 -27
-34 -68 -47 -82 -26 -13 21 96 83 315 179 63 28 149 70 190 94 42 23 223 115
403 203 276 135 329 164 335 185 20 73 -6 290 -42 345 -11 16 -45 39 -84 57
-37 17 -79 39 -94 49 -14 11 -36 19 -48 19 -13 0 -169 -75 -348 -166 l-325
-167 -24 29 c-13 16 -40 49 -60 73 l-37 44 -122 -6 -122 -6 -26 28 c-14 15
-34 43 -44 64 l-18 37 -59 -42 c-33 -22 -81 -58 -107 -80 -35 -29 -62 -42
-105 -50 -112 -21 -133 -29 -149 -53 -15 -23 -16 -23 -35 -4 -42 42 -222 22
-802 -90 -199 -39 -406 -77 -459 -86 -118 -19 -121 -20 -133 -48 -13 -28 -60
-50 -110 -51 -34 -1 -40 2 -43 21 -3 18 -12 23 -49 29 -25 3 -67 4 -94 1 -54
-7 -59 6 -7 17 18 4 366 67 773 142 542 98 758 134 810 133 56 -1 86 5 151 29
160 60 373 163 419 202 11 10 38 23 60 30 87 27 343 175 578 332 125 84 136
99 95 140 -21 21 -25 21 -252 15 -342 -10 -357 -21 -36 -27 l275 -5 -110 -39
c-227 -80 -699 -258 -773 -292 -42 -19 -86 -42 -97 -52 -11 -9 -14 -10 -7 -2
6 8 12 19 12 24 0 6 -20 -11 -45 -37 -25 -27 -45 -57 -45 -66 0 -19 -128 -169
-167 -196 -33 -23 -28 -9 12 40 19 23 41 62 49 86 10 29 29 56 58 79 88 72
100 87 93 120 -5 22 -1 38 14 59 12 16 21 37 21 47 0 9 20 39 45 65 47 50 53
67 33 87 -9 9 -9 12 0 12 29 0 128 46 151 70 17 17 49 33 91 44 59 15 97 16
440 5 491 -14 469 -14 591 -23 110 -8 173 -2 166 17 -7 22 39 55 88 62 79 12
88 24 19 25 -34 0 -75 3 -92 6 -30 6 -30 7 -16 29 14 22 14 24 -5 34 -15 9
-23 7 -36 -5 -12 -13 -19 -14 -28 -5 -20 20 -384 11 -371 -10 11 -18 -143 -30
-508 -38 -266 -6 -298 -8 -316 -25 -20 -17 -21 -17 -48 13 -26 30 -30 31 -110
31 -101 0 -248 -15 -814 -85 -1404 -172 -1892 -191 -2309 -90 -57 14 -232 61
-390 106 -307 86 -403 109 -456 109 -64 0 -137 36 -195 96 -58 59 -214 180
-293 226 -40 23 -47 32 -47 58 0 40 -31 120 -64 163 -15 20 -51 47 -79 62
-154 76 -303 -35 -376 -282 -12 -40 -27 -74 -34 -74 -20 -2 -50 2 -89 12 -34
9 -37 13 -48 64 -13 63 1 103 48 130 36 22 70 71 78 115 4 19 12 42 19 50 7 8
20 31 30 50 23 46 22 46 43 27 28 -25 139 -50 191 -43 120 16 121 16 141 57
11 21 20 46 20 55 0 12 6 15 26 10 34 -9 108 34 129 74 34 65 0 139 -71 156
-16 4 -50 26 -75 49 -26 23 -67 47 -90 54 -24 7 -62 21 -84 32 l-41 19 -1 62
c0 35 -4 77 -8 95 -12 51 49 154 132 227 l68 58 101 -6 102 -6 26 31 c75 89
139 297 121 396 -10 62 -28 78 -87 78 l-51 0 -12 43 c-28 93 -59 109 -149 76z
m231 -286 c-10 -221 -60 -317 -153 -294 l-26 7 25 33 c31 40 63 144 77 250 12
90 31 125 69 126 11 0 13 -22 8 -122z m-491 -410 c-8 -18 -28 -63 -45 -100
-17 -37 -31 -74 -31 -83 0 -8 -4 -15 -10 -15 -15 0 -12 66 4 105 19 45 74 125
87 125 5 0 3 -15 -5 -32z m-483 -396 c-23 -30 -101 -87 -109 -80 -3 4 11 30
30 58 20 29 36 57 36 63 0 6 12 31 28 56 l27 46 3 -59 c2 -45 -1 -66 -15 -84z
m11 -136 c0 -28 -6 -53 -16 -62 -16 -17 -209 -76 -218 -68 -14 15 202 187 225
180 6 -2 10 -24 9 -50z m-674 -100 c0 -8 -7 -17 -16 -20 -25 -10 -30 2 -8 19
24 18 24 18 24 1z m683 -79 c28 -37 15 -48 -67 -54 -78 -7 -82 1 -30 52 42 42
68 43 97 2z m-822 -70 c-20 -42 -41 -56 -81 -57 -8 0 10 25 40 55 29 30 56 53
58 50 2 -2 -5 -24 -17 -48z m36 1 c-3 -8 -6 -5 -6 6 -1 11 2 17 5 13 3 -3 4
-12 1 -19z m823 -159 c-7 -11 -14 -18 -17 -15 -8 8 5 36 17 36 7 0 7 -6 0 -21z
m133 -12 c16 -11 15 -16 -12 -60 -42 -64 -61 -63 -61 6 0 30 3 57 7 60 11 11
48 8 66 -6z m487 -35 c37 -27 71 -100 68 -146 -3 -38 -4 -39 -68 -62 -73 -26
-90 -43 -90 -91 0 -27 -5 -34 -25 -39 -41 -10 -152 6 -176 25 -20 16 -21 21
-11 68 29 132 83 220 156 255 48 22 107 18 146 -10z m-835 -72 c3 -5 -1 -10
-9 -10 -9 0 -16 5 -16 10 0 6 4 10 9 10 6 0 13 -4 16 -10z m105 -54 c0 -35
-244 -495 -272 -512 -6 -4 49 111 122 254 112 220 150 285 150 258z m-540
-216 c0 -5 -4 -10 -10 -10 -5 0 -10 5 -10 10 0 6 5 10 10 10 6 0 10 -4 10 -10z
m-4 -101 c15 -41 18 -137 5 -123 -11 10 -41 119 -41 147 0 29 22 15 36 -24z
m74 -20 c0 -5 -4 -9 -10 -9 -5 0 -10 7 -10 16 0 8 5 12 10 9 6 -3 10 -10 10
-16z m-148 -47 c10 -27 31 -68 47 -93 l30 -44 -23 -39 c-12 -21 -27 -39 -32
-40 -13 -2 -61 92 -74 146 -10 39 -9 52 5 82 10 20 20 36 24 36 3 0 14 -22 23
-48z m-192 -71 c0 -10 -15 -40 -32 -67 -37 -54 -73 -71 -121 -57 l-32 9 48 23
c26 12 47 26 47 29 0 12 68 82 79 82 6 0 11 -8 11 -19z m7580 -10 c0 -5 -14
-11 -31 -15 -73 -14 -153 -1 -106 17 21 9 137 7 137 -2z m-194 -16 c18 -14 16
-15 -25 -13 -25 2 -46 9 -49 16 -5 17 50 16 74 -3z m-126 -4 c-49 -15 -120
-22 -120 -12 0 13 25 19 90 19 40 0 48 -2 30 -7z m-7126 -95 c24 -47 40 -86
36 -86 -8 0 -139 48 -152 56 -6 4 10 38 49 102 8 13 17 22 19 19 3 -2 24 -43
48 -91z m6966 84 c0 -5 -7 -10 -15 -10 -8 0 -15 5 -15 10 0 6 7 10 15 10 8 0
15 -4 15 -10z m-5265 -88 c-6 -5 -84 -60 -175 -122 -148 -102 -327 -230 -417
-298 -18 -13 -33 -22 -33 -19 0 7 176 151 333 271 70 54 127 103 127 107 0 5
-10 9 -22 9 -32 0 -290 -61 -437 -104 -69 -20 -126 -34 -129 -32 -7 8 132 106
195 137 76 38 106 33 38 -6 -101 -57 -118 -69 -108 -72 6 -2 134 25 285 61
332 79 309 73 333 75 11 1 15 -3 10 -7z m-2136 -63 c149 -43 151 -53 11 -45
-63 3 -166 6 -229 6 -63 0 -112 3 -108 6 4 4 182 57 216 63 1 1 51 -13 110
-30z m2700 -88 c11 -7 4 -12 -25 -19 -21 -6 -136 -36 -254 -68 -211 -56 -371
-93 -399 -94 -83 -1 398 154 569 183 46 8 95 7 109 -2z m79 3 c12 -4 22 -11
22 -16 0 -10 -39 -1 -54 13 -12 11 -1 11 32 3z m3372 -58 c0 -2 -28 -14 -62
-26 -43 -15 -75 -35 -100 -62 -27 -30 -58 -47 -125 -73 -115 -42 -146 -58
-194 -102 -44 -40 -49 -59 -18 -68 11 -4 18 -9 15 -12 -3 -3 -27 3 -54 12
l-48 18 -155 -46 c-225 -67 -240 -70 -252 -58 -6 6 -19 11 -29 11 -17 0 -17 2
2 37 10 20 17 40 14 45 -10 16 -86 -34 -117 -78 -32 -45 -59 -54 -65 -22 -4
20 80 108 126 132 33 17 419 129 802 232 226 60 260 68 260 60z m-5845 -46 c3
-5 0 -22 -8 -36 -16 -31 -27 -21 -20 19 5 27 17 35 28 17z m55 -14 c0 -3 -4
-8 -10 -11 -5 -3 -10 -1 -10 4 0 6 5 11 10 11 6 0 10 -2 10 -4z m680 1 c0 -2
-19 -21 -42 -42 l-42 -40 33 43 c27 34 51 53 51 39z m-228 -329 c-23 -35 -42
-60 -42 -56 0 14 72 129 77 124 3 -3 -13 -34 -35 -68z m-688 28 c33 -12 64
-29 69 -37 7 -11 -7 -48 -48 -129 -91 -182 -416 -794 -429 -808 -10 -10 -19
-10 -47 2 -47 20 -76 5 -109 -54 -38 -70 -36 -24 3 72 70 168 418 884 464 955
19 28 22 28 97 -1z m2591 -159 c207 -122 339 -206 332 -213 -9 -9 -576 327
-640 379 -31 27 109 -50 308 -166z m3225 174 c0 -11 -58 -19 -138 -19 -79 0
-53 11 41 19 45 3 85 7 90 7 4 1 7 -2 7 -7z m-5702 -226 c-18 -36 -34 -61 -36
-56 -3 10 55 121 64 121 2 0 -11 -29 -28 -65z m7697 46 c6 -11 -63 -36 -73
-26 -9 9 27 35 49 35 10 0 20 -4 24 -9z m-3105 -25 c0 -3 -4 -8 -10 -11 -5 -3
-10 -1 -10 4 0 6 5 11 10 11 6 0 10 -2 10 -4z m3171 -67 c16 -39 -1 -60 -31
-41 -27 16 -30 15 -30 -8 0 -27 -16 -25 -36 5 -17 26 -10 50 12 41 8 -3 21 5
30 19 19 29 38 23 55 -16z m-2686 21 c-3 -5 -14 -10 -23 -10 -15 0 -15 2 -2
10 20 13 33 13 25 0z m1112 -42 c50 -49 59 -50 218 -12 l113 26 74 -22 c84
-25 114 -46 97 -66 -18 -22 -137 -84 -404 -212 -137 -66 -289 -138 -337 -161
l-87 -42 -7 -55 c-3 -30 -10 -57 -15 -60 -5 -3 -9 -17 -9 -32 0 -38 -32 -86
-82 -122 -24 -18 -142 -81 -263 -142 -121 -61 -322 -164 -447 -230 -125 -66
-231 -117 -236 -114 -5 3 -14 30 -21 60 l-12 55 38 38 c26 27 55 77 93 163 30
69 78 168 107 220 28 52 48 99 43 103 -4 5 -99 2 -211 -7 -112 -9 -265 -22
-339 -28 -474 -38 -782 68 -1140 393 -44 40 -78 74 -76 76 2 2 57 -27 122 -65
66 -38 129 -73 141 -76 23 -7 405 52 505 79 49 12 61 13 91 0 82 -34 253 -49
556 -50 l294 0 21 29 c44 63 97 113 143 139 75 40 584 137 721 137 42 0 82 -9
82 -19 -1 -12 -178 -138 -290 -205 -124 -74 -410 -264 -410 -273 0 -13 354
199 530 318 63 43 155 105 203 138 110 76 134 78 194 19z m-5610 0 c-3 -7 -5
-2 -5 12 0 14 2 19 5 13 2 -7 2 -19 0 -25z m-518 -119 c-34 -68 -132 -259
-219 -424 -86 -165 -201 -384 -255 -487 -90 -173 -127 -227 -111 -163 13 50
634 1210 643 1201 3 -2 -24 -59 -58 -127z m4686 121 c-3 -5 -13 -10 -21 -10
-8 0 -12 5 -9 10 3 6 13 10 21 10 8 0 12 -4 9 -10z m-3490 -9 c-3 -5 -19 -12
-35 -16 -34 -8 -80 -57 -80 -87 0 -12 18 -38 40 -60 l41 -38 -25 -10 c-75 -28
-229 -63 -281 -64 -83 0 -126 25 -226 134 -94 102 -117 139 -43 69 154 -146
212 -174 342 -166 134 8 147 19 87 77 -64 62 -42 98 88 142 90 30 101 33 92
19z m1845 -31 c0 -6 28 -28 63 -50 79 -50 63 -51 -27 -2 -72 39 -93 62 -57 62
12 0 21 -5 21 -10z m-3177 -37 c-50 -121 -443 -887 -450 -879 -11 10 34 140
78 229 100 198 373 687 384 687 2 0 -3 -17 -12 -37z m1982 -48 c-45 -19 -81
-29 -72 -19 11 11 67 32 87 32 8 0 2 -5 -15 -13z m-196 -30 c68 -32 283 -166
277 -173 -11 -10 -96 10 -154 38 -51 24 -222 145 -222 157 0 11 53 -1 99 -22z
m1008 -41 c6 -17 -131 -77 -156 -69 -30 9 -20 18 64 54 71 30 86 33 92 15z
m-1074 -40 c21 -14 37 -28 34 -30 -8 -8 -75 25 -80 41 -9 21 3 19 46 -11z
m-204 -62 c-41 -20 -122 -59 -178 -86 -56 -26 -105 -55 -109 -64 -7 -20 77
-98 199 -184 49 -35 85 -64 79 -66 -36 -12 -400 232 -400 268 0 16 206 95 375
145 112 33 122 29 34 -13z m1468 -50 c63 -52 88 -80 81 -87 -2 -2 -53 6 -113
18 -106 22 -110 23 -107 47 3 27 45 70 67 70 8 0 40 -22 72 -48z m-1224 -9
c36 -27 65 -39 105 -44 59 -8 202 -58 202 -71 0 -4 -14 -15 -32 -24 -25 -13
-63 -17 -167 -18 l-134 -1 -13 55 c-18 81 -26 140 -18 140 3 0 29 -17 57 -37z
m587 -3 c159 -80 640 -381 640 -401 0 -24 -216 97 -510 287 -248 161 -281 190
-130 114z m4783 34 c8 -8 -3 -34 -14 -34 -5 0 -9 9 -9 20 0 19 11 26 23 14z
m-4116 -149 c45 -14 82 -39 72 -49 -5 -5 -260 51 -267 59 -12 12 149 4 195
-10z m-637 -22 c0 -5 -7 -17 -15 -27 -8 -11 -15 -28 -15 -39 0 -10 -4 -15 -10
-12 -15 9 -12 52 6 69 16 17 34 21 34 9z m3710 -13 c0 -5 -4 -10 -10 -10 -5 0
-10 5 -10 10 0 6 5 10 10 10 6 0 10 -4 10 -10z m-63 -36 c-3 -3 -12 -4 -19 -1
-8 3 -5 6 6 6 11 1 17 -2 13 -5z m-3839 -16 c-7 -19 -63 -22 -78 -4 -11 14 -7
16 35 16 33 0 45 -4 43 -12z m1581 -97 c7 -5 17 -28 21 -52 5 -24 12 -53 16
-64 7 -18 6 -18 -9 -7 -20 17 -77 105 -77 120 0 14 29 16 49 3z m2401 5 c0 -2
-18 -13 -40 -25 -22 -11 -40 -16 -40 -11 0 5 12 16 28 24 26 15 52 20 52 12z
m-3937 -51 c15 -21 16 -31 7 -65 -6 -22 -15 -40 -20 -40 -8 0 -30 84 -30 115
0 23 23 17 43 -10z m199 4 c112 -24 218 -98 218 -153 0 -35 -12 -86 -20 -86
-4 0 -12 18 -19 40 -7 24 -23 47 -39 57 -15 9 -40 27 -55 40 -36 29 -40 29
-73 -2 -15 -14 -30 -25 -33 -25 -18 0 -51 34 -51 53 0 12 -7 31 -15 41 -11 14
-12 23 -4 33 14 16 23 16 91 2z m298 -47 c0 -5 -6 -16 -13 -27 -15 -20 -31
-15 -47 16 -10 17 -7 19 25 19 19 0 35 -4 35 -8z m-711 -44 c21 -78 31 -150
31 -219 0 -60 -3 -70 -23 -84 -35 -22 -81 -29 -94 -13 -17 20 -43 117 -43 158
0 73 66 200 104 200 8 0 19 -19 25 -42z m831 0 c16 -22 30 -45 30 -50 0 -9
-113 -11 -123 -2 -6 6 49 94 58 94 3 0 18 -19 35 -42z m3113 -145 c-30 -29
-42 -49 -48 -80 -8 -49 -18 -52 -74 -24 l-37 20 -50 -38 c-44 -34 -49 -41 -49
-77 0 -68 -32 -88 -103 -63 -30 10 -34 8 -77 -35 -35 -36 -45 -54 -45 -79 0
-27 -6 -36 -43 -56 -23 -13 -102 -64 -176 -113 l-133 -88 -69 0 c-37 0 -70 4
-73 8 -11 19 24 60 88 103 57 37 75 56 100 104 l31 58 160 84 c355 187 627
324 633 319 3 -3 -13 -23 -35 -43z m-3021 -21 c8 -8 2 -19 -22 -42 -17 -16
-36 -30 -41 -30 -5 0 -19 16 -31 35 -13 19 -31 35 -40 35 -9 0 -20 5 -24 11
-9 16 143 6 158 -9z m-197 -22 c3 -5 1 -10 -4 -10 -6 0 -11 5 -11 10 0 6 2 10
4 10 3 0 8 -4 11 -10z m-986 -170 c9 -26 7 -32 -12 -44 -27 -17 -67 -30 -67
-21 0 13 52 95 60 95 4 0 13 -14 19 -30z m-3188 -30 c10 -6 19 -21 19 -34 0
-27 -78 -277 -90 -290 -5 -5 -13 9 -19 30 -31 118 -51 214 -51 251 l0 42 53 4
c28 2 56 4 60 5 5 1 17 -3 28 -8z m6032 -12 c3 -13 9 -55 13 -94 5 -53 3 -73
-6 -79 -17 -10 -60 38 -60 66 0 11 -8 31 -17 46 -17 25 -16 26 15 54 39 35 48
36 55 7z m-6241 -5 c9 -10 20 -27 26 -38 12 -25 82 -319 82 -348 0 -33 -42
-137 -52 -131 -6 4 -57 102 -114 218 -97 197 -125 268 -111 283 8 7 105 31
133 32 11 1 28 -7 36 -16z m413 -6 c54 -11 60 -15 63 -40 2 -18 -39 -121 -124
-309 -69 -156 -128 -285 -130 -287 -8 -9 -15 10 -46 129 l-32 122 49 147 c26
80 59 170 73 199 28 59 37 62 147 39z m-637 -52 c35 -29 246 -439 258 -499 8
-45 -21 -153 -45 -165 -9 -5 -31 -11 -49 -14 -18 -4 -62 -18 -98 -33 -45 -18
-69 -23 -76 -16 -14 14 -198 629 -198 662 0 28 15 40 50 40 12 0 19 -10 23
-36 8 -45 23 -64 53 -64 32 0 37 14 19 56 -20 48 -19 71 3 83 24 15 27 14 60
-14z m834 -5 c84 -32 81 -24 53 -136 -26 -102 -80 -224 -186 -419 -89 -164
-76 -153 -160 -126 -38 12 -73 29 -75 36 -3 7 28 94 69 192 127 302 212 473
237 473 5 0 33 -9 62 -20z m5213 -40 c0 -27 -22 -39 -31 -16 -8 22 3 49 19 43
6 -2 12 -14 12 -27z m-1115 16 c0 -3 -4 -8 -10 -11 -5 -3 -10 -1 -10 4 0 6 5
11 10 11 6 0 10 -2 10 -4z m-5143 -176 c65 -194 145 -469 141 -487 -2 -11 -35
8 -122 70 -134 96 -121 77 -202 310 -40 116 -41 137 -11 164 31 29 119 74 137
71 10 -2 30 -49 57 -128z m6513 81 c12 -23 11 -23 -98 -46 -105 -22 -130 -20
-144 10 -21 46 0 55 123 55 97 0 109 -2 119 -19z m-5119 -258 c-202 -408 -453
-871 -483 -889 -13 -8 8 31 350 678 130 246 238 445 241 443 2 -3 -46 -107
-108 -232z m-1870 150 c-27 -32 -57 -65 -66 -73 -69 -64 -107 -110 -176 -213
-44 -65 -90 -140 -103 -165 -38 -75 -95 -237 -126 -355 -16 -60 -32 -112 -35
-116 -4 -3 -4 5 -1 19 3 14 10 52 16 85 48 261 217 565 442 793 94 94 124 110
49 25z m5419 37 c0 -5 -6 -10 -14 -10 -8 0 -18 5 -21 10 -3 6 3 10 14 10 12 0
21 -4 21 -10z m-3270 -87 c0 -8 -9 0 -50 45 l-45 47 48 -45 c26 -24 47 -45 47
-47z m7356 65 c9 -9 18 -41 21 -77 l6 -62 -119 3 -119 3 3 28 c5 38 28 91 48
112 23 22 136 17 160 -7z m-9257 -71 c40 -82 84 -197 78 -204 -14 -14 -237
161 -237 186 0 16 94 100 112 101 4 0 25 -37 47 -83z m9027 61 c-3 -13 -8 -44
-11 -70 l-6 -48 -65 0 -64 0 0 38 c0 73 29 99 113 101 34 1 37 -1 33 -21z
m374 1 c58 -12 70 -28 70 -93 l0 -46 -74 0 -73 0 -7 41 c-8 52 2 109 20 109 7
0 36 -5 64 -11z m405 -9 c3 -5 1 -10 -4 -10 -6 0 -11 5 -11 10 0 6 2 10 4 10
3 0 8 -4 11 -10z m-966 -41 c21 -62 17 -69 -42 -69 -94 0 -133 59 -57 86 62
22 87 18 99 -17z m-1239 12 c0 -12 -69 -55 -76 -48 -3 3 12 17 33 31 42 29 43
29 43 17z m2306 -27 c93 -56 159 -111 251 -208 135 -144 283 -380 283 -452 0
-50 -33 -19 -102 95 -90 151 -159 240 -265 342 -80 76 -111 102 -236 193 -37
27 -38 29 -21 47 9 10 20 19 24 19 3 0 33 -16 66 -36z m-1419 -17 c-6 -15
-163 -137 -177 -137 -12 0 -21 30 -15 51 3 9 43 43 87 73 71 49 84 54 96 42 8
-8 12 -21 9 -29z m1126 12 c39 -21 44 -33 23 -61 -14 -19 -42 -22 -95 -12 -34
7 -40 29 -21 79 11 29 23 28 93 -6z m-4117 -27 c-21 -5 -106 26 -106 38 0 5
28 -1 63 -13 38 -13 55 -23 43 -25z m-3733 20 c16 -17 15 -20 -11 -43 -55 -50
-72 -62 -78 -56 -7 7 54 117 65 117 4 0 15 -8 24 -18z m5120 -60 c16 -26 39
-60 51 -75 l23 -29 42 22 c45 23 60 19 82 -23 8 -14 7 -23 -5 -36 -14 -15 -24
-17 -59 -10 -23 5 -114 18 -202 30 -88 12 -163 23 -167 26 -13 7 -9 91 5 100
13 9 151 40 182 42 14 0 29 -14 48 -47z m1777 38 c0 -5 -17 -10 -37 -10 -28 0
-34 3 -23 10 20 13 60 13 60 0z m-1510 -39 c0 -11 -4 -22 -9 -25 -12 -8 -34
21 -26 34 11 17 35 11 35 -9z m-7244 -57 c190 -128 204 -141 234 -221 15 -40
26 -74 23 -77 -7 -6 -61 15 -258 103 -211 95 -248 117 -236 140 20 37 104 121
121 121 9 0 62 -30 116 -66z m9864 46 c21 -11 42 -25 45 -31 11 -16 -47 -71
-165 -158 -125 -92 -160 -114 -167 -108 -13 14 115 206 185 280 42 43 49 44
102 17z m-7875 -67 c52 -63 54 -69 38 -82 -10 -7 -100 -54 -201 -103 -230
-113 -244 -109 -164 47 50 97 73 124 147 165 100 56 113 54 180 -27z m-1071
-100 c31 -121 30 -113 7 -113 -13 0 -29 21 -54 68 -37 72 -37 65 -1 162 9 24
19 -2 48 -117z m8729 47 c-9 -17 -28 -43 -40 -58 l-22 -27 -1 33 c0 34 39 82
67 82 11 0 11 -6 -4 -30z m356 13 c6 -12 4 -29 -6 -56 -19 -48 -12 -55 26 -27
58 41 90 5 55 -62 -34 -67 -266 -409 -281 -415 -16 -6 -60 37 -170 166 -61 71
-72 103 -52 140 18 32 366 270 396 271 12 0 26 -8 32 -17z m-456 -95 c-6 -68
-28 -121 -63 -153 -17 -15 -23 -17 -30 -6 -11 19 -33 198 -25 211 3 5 32 10
65 10 l58 0 -5 -62z m-149 43 c3 -5 9 -48 12 -96 l7 -88 -24 6 c-13 3 -42 12
-65 21 -23 8 -77 18 -120 21 -43 3 -94 8 -112 11 -32 5 -32 6 -26 47 10 63 20
75 62 80 76 8 261 7 266 -2z m-356 -42 c-4 -31 -24 -35 -39 -8 -10 19 -9 25 7
36 22 16 37 4 32 -28z m-9206 0 c29 -11 140 -59 247 -107 l194 -87 24 -54 c13
-30 21 -61 18 -69 -11 -30 -119 -184 -131 -189 -8 -3 -49 16 -91 43 -157 96
-483 316 -483 325 0 17 52 113 73 137 26 28 78 29 149 1z m2290 -59 c54 -90
56 -105 22 -142 -31 -32 -207 -176 -250 -205 -26 -17 -27 -16 -55 18 -16 19
-36 53 -46 76 -10 24 -23 43 -30 43 -15 0 -93 80 -93 95 0 20 359 185 394 182
11 -1 34 -28 58 -67z m6830 53 c38 -34 15 -73 -43 -73 -76 0 -89 22 -38 64 36
30 55 32 81 9z m-8098 -50 c7 -20 4 -23 -23 -23 -25 0 -31 4 -31 21 0 11 5 29
11 41 10 19 11 19 24 1 7 -10 15 -28 19 -40z m6241 27 c3 -5 1 -10 -4 -10 -6
0 -11 5 -11 10 0 6 2 10 4 10 3 0 8 -4 11 -10z m-6731 -81 c53 -39 96 -76 96
-83 0 -7 -10 -17 -22 -23 -18 -8 -35 -4 -84 20 -55 27 -62 34 -78 81 -10 28
-21 57 -23 64 -10 25 17 11 111 -59z m4008 39 c9 -18 22 -53 29 -78 11 -36 21
-49 53 -64 29 -14 44 -31 62 -70 12 -28 26 -64 30 -81 l7 -30 -38 35 c-55 52
-154 178 -177 226 -22 44 -19 94 6 94 7 0 20 -15 28 -32z m3948 22 c0 -5 -5
-10 -11 -10 -5 0 -7 5 -4 10 3 6 8 10 11 10 2 0 4 -4 4 -10z m1835 -8 c28 -20
65 -76 65 -99 0 -37 -235 -274 -306 -309 -91 -44 -93 -32 -20 84 94 148 227
332 240 332 6 0 16 -4 21 -8z m-2885 -66 c0 -32 -16 -42 -29 -18 -7 13 -7 22
1 30 19 19 28 14 28 -12z m-6460 -19 c0 -17 -38 -53 -46 -44 -8 8 23 57 36 57
6 0 10 -6 10 -13z m220 -6 c0 -12 -20 -25 -27 -18 -7 7 6 27 18 27 5 0 9 -4 9
-9z m7293 -58 c65 -59 82 -81 73 -90 -7 -8 -196 34 -212 48 -11 9 -11 15 1 39
19 36 43 60 61 60 8 0 42 -26 77 -57z m126 51 c27 -6 38 -18 71 -78 22 -39 40
-77 40 -83 0 -8 -13 -13 -31 -13 -26 0 -47 15 -116 82 -70 69 -81 84 -66 90
23 9 63 10 102 2z m-1029 -24 c0 -5 -4 -10 -10 -10 -5 0 -10 5 -10 10 0 6 5
10 10 10 6 0 10 -4 10 -10z m-6814 -29 c-8 -13 -36 -15 -36 -3 0 4 5 13 12 20
14 14 34 0 24 -17z m-831 -93 c204 -121 390 -250 374 -258 -8 -4 -77 -13 -154
-19 l-140 -12 -80 41 c-104 53 -214 128 -238 161 -21 29 -18 48 24 147 l18 42
38 -15 c21 -9 92 -48 158 -87z m1889 41 c31 -33 56 -67 56 -75 0 -8 -17 -45
-38 -82 -21 -37 -44 -82 -51 -99 -24 -59 -71 -42 -113 41 -11 22 -29 53 -40
68 l-19 28 37 70 c36 69 73 110 99 110 7 0 38 -27 69 -61z m6941 -4 c41 -57
53 -85 37 -85 -19 0 -92 107 -92 135 0 16 20 -1 55 -50z m1711 -28 c22 -48 27
-44 -131 -97 -124 -41 -145 -46 -145 -31 0 12 91 102 163 163 l60 50 18 -24
c10 -12 26 -40 35 -61z m-9952 57 c20 -8 21 -28 2 -43 -11 -10 -17 -7 -30 11
-9 12 -16 26 -16 30 0 10 22 10 44 2z m1875 -79 c13 -35 21 -71 18 -80 -8 -18
-55 -42 -200 -99 -128 -51 -134 -51 -157 4 -16 38 -13 41 106 130 134 100 185
131 199 120 6 -5 21 -39 34 -75z m3548 38 c-3 -10 -5 -4 -5 12 0 17 2 24 5 18
2 -7 2 -21 0 -30z m-5217 7 c0 -5 -4 -10 -10 -10 -5 0 -10 5 -10 10 0 6 5 10
10 10 6 0 10 -4 10 -10z m274 -32 c-10 -35 -34 -78 -42 -78 -11 0 -82 60 -82
70 0 9 67 27 108 29 20 1 22 -2 16 -21z m-429 -95 c-4 -20 -10 -31 -17 -27
-11 7 -5 96 9 117 11 16 16 -47 8 -90z m511 72 c4 -15 1 -32 -7 -41 -14 -18
-69 -48 -75 -41 -2 2 5 27 17 55 24 58 54 70 65 27z m7431 -1 c98 -24 168 -62
149 -81 -6 -7 -313 53 -355 69 -20 7 -21 11 -10 24 16 20 109 15 216 -12z
m-7725 -35 c15 -8 18 -17 13 -37 -4 -15 -12 -33 -18 -40 -9 -11 -13 -11 -24 4
-19 26 -16 84 4 84 3 0 13 -5 25 -11z m7946 -14 c26 -7 29 -23 6 -32 -10 -3
-26 5 -42 22 -29 29 -29 29 36 10z m-6772 -57 c14 -26 13 -28 -31 -65 -60 -50
-107 -75 -119 -63 -13 13 17 85 60 143 35 48 36 48 56 30 11 -10 26 -30 34
-45z m7602 34 c4 -12 -45 -28 -55 -18 -8 8 28 36 41 33 6 -2 11 -8 14 -15z
m-8660 -12 c37 -23 43 -50 10 -50 -13 0 -37 -9 -55 -20 -42 -25 -50 -11 -28
46 19 50 26 52 73 24z m9635 -44 c30 -82 34 -80 -186 -73 -192 7 -237 12 -237
28 0 30 266 100 365 96 38 -2 40 -4 58 -51z m-4396 18 c6 -17 -21 -24 -63 -17
-34 6 -36 7 -18 20 22 16 76 14 81 -3z m-782 -25 c61 -6 115 -16 120 -21 6 -6
-6 -8 -35 -4 -25 3 -85 8 -135 11 -49 4 -98 9 -108 11 -27 8 -8 26 21 20 15
-3 77 -10 137 -17z m-5601 -27 c108 -51 171 -91 159 -103 -12 -12 -210 -24
-258 -15 l-37 7 7 62 c6 61 18 87 37 87 6 0 47 -17 92 -38z m696 -36 c-1 -38
-2 -40 -15 -22 -8 11 -15 35 -15 54 0 30 2 33 15 22 9 -7 15 -29 15 -54z
m1987 24 c7 -19 12 -56 12 -82 l1 -48 -62 0 c-80 0 -269 27 -282 40 -6 6 11
19 49 36 86 40 238 94 255 91 8 -1 20 -18 27 -37z m-1431 21 c-8 -12 -46 -21
-46 -11 0 9 18 18 38 19 7 1 11 -3 8 -8z m5050 -41 c14 0 38 7 53 15 27 14 41
11 41 -7 0 -12 -121 -65 -245 -108 -60 -20 -138 -51 -172 -69 -85 -43 -103
-41 -103 7 l0 37 108 42 c59 23 131 49 161 58 29 10 67 30 85 46 l31 28 8 -25
c6 -17 16 -24 33 -24z m-4456 4 l25 -14 -29 2 c-16 2 -31 9 -34 16 -5 16 7 15
38 -4z m411 -11 c12 -33 -8 -53 -55 -53 -56 0 -61 14 -20 49 47 38 61 39 75 4z
m-1386 -3 c3 -5 -1 -10 -9 -10 -9 0 -16 5 -16 10 0 6 4 10 9 10 6 0 13 -4 16
-10z m8975 0 c0 -13 -20 -13 -40 0 -12 8 -9 10 13 10 15 0 27 -4 27 -10z m859
-41 c124 -15 157 -54 75 -89 -49 -21 -51 -40 -4 -40 59 0 80 -30 43 -62 -32
-28 -451 -163 -465 -149 -4 3 -12 38 -18 76 -6 39 -25 110 -41 158 -30 86 -30
89 -12 109 17 20 25 20 183 14 91 -4 198 -12 239 -17z m-7897 -120 c22 -179
-21 -478 -99 -689 -114 -307 -287 -524 -532 -670 -98 -58 -120 -63 -192 -39
-34 11 -68 18 -76 15 -9 -4 -27 7 -44 25 -70 75 -237 383 -225 414 10 27 41 2
256 -212 112 -111 205 -203 207 -203 2 0 3 20 3 45 0 39 -3 46 -30 60 -34 18
-75 53 -287 249 -145 132 -153 142 -153 177 0 39 27 70 120 134 35 24 40 25
62 12 12 -8 38 -18 56 -22 30 -6 33 -4 43 24 21 61 37 46 179 -184 51 -82 108
-171 127 -198 44 -60 40 -83 -26 -132 -28 -20 -53 -45 -56 -55 -6 -20 10 -60
24 -60 18 0 101 69 178 148 109 112 201 242 267 377 62 125 73 160 49 151 -13
-5 -15 0 -9 36 7 46 21 68 42 68 22 0 26 18 9 49 -20 40 -20 41 20 94 44 57
54 123 55 347 0 175 12 190 32 39z m4313 81 c3 -4 -13 -3 -35 2 -22 6 -37 14
-35 19 6 9 62 -8 70 -21z m707 0 c3 -16 1 -30 -4 -30 -4 0 -8 6 -8 14 0 8 -3
21 -6 30 -3 9 -2 16 4 16 5 0 12 -13 14 -30z m-6888 11 c8 -12 -4 -95 -15
-112 -12 -18 -35 11 -51 64 -10 32 -9 40 3 48 18 11 56 12 63 0z m-394 -26 c0
-29 -29 -51 -81 -60 -28 -5 -48 -1 -88 19 -28 15 -51 30 -51 35 0 5 35 12 78
16 42 3 84 8 92 9 41 9 50 6 50 -19z m1480 21 c0 -3 -4 -8 -10 -11 -5 -3 -10
-1 -10 4 0 6 5 11 10 11 6 0 10 -2 10 -4z m100 -5 c0 -8 -70 -41 -87 -41 -12
0 10 18 42 34 34 18 45 20 45 7z m-1285 -42 c9 -17 14 -33 12 -36 -3 -2 -24 8
-47 22 -33 21 -40 29 -29 36 26 16 48 9 64 -22z m1443 -48 l3 -74 -40 7 c-58
9 -201 55 -201 65 0 17 172 81 210 78 24 -2 25 -5 28 -76z m-1971 39 c61 -35
70 -46 46 -58 -37 -20 -421 -123 -464 -125 l-44 -2 -3 45 c-2 25 -1 64 3 87 6
39 9 43 46 53 45 12 193 27 294 29 61 1 77 -3 122 -29z m2288 -8 c109 -21 119
-33 111 -130 -6 -76 -10 -82 -44 -81 -36 0 -328 84 -324 92 1 4 2 39 2 78 l0
72 83 -7 c45 -4 122 -15 172 -24z m4975 8 c0 -5 -11 -10 -25 -10 -14 0 -25 5
-25 10 0 6 11 10 25 10 14 0 25 -4 25 -10z m-1826 -37 l16 -33 -33 0 c-32 0
-129 40 -140 57 -3 4 28 8 68 8 73 0 74 0 89 -32z m3662 11 c80 -16 119 -34
75 -34 -44 0 -205 49 -165 50 7 0 47 -7 90 -16z m-8781 -31 c25 -38 35 -90 14
-77 -13 7 -48 82 -49 102 0 20 8 14 35 -25z m193 -3 c34 -22 62 -44 62 -48 0
-12 -55 -81 -78 -98 -37 -29 -76 -5 -88 54 -8 39 14 132 30 132 7 0 41 -18 74
-40z m5012 15 c0 -8 -7 -15 -15 -15 -16 0 -20 12 -8 23 11 12 23 8 23 -8z
m-5306 -20 c-7 -16 -30 -20 -38 -6 -7 11 4 21 25 21 12 0 16 -5 13 -15z m9023
-12 c-9 -9 -19 -14 -23 -11 -10 10 6 28 24 28 15 0 15 -1 -1 -17z m98 -4 c14
-14 -16 -10 -50 6 l-30 14 35 -6 c19 -3 39 -10 45 -14z m-8675 7 c0 -3 -4 -8
-10 -11 -5 -3 -10 -1 -10 4 0 6 5 11 10 11 6 0 10 -2 10 -4z m-485 -30 c31
-24 32 -28 39 -120 3 -53 11 -108 16 -122 6 -15 8 -29 5 -32 -10 -10 -281 -50
-467 -68 -137 -14 -179 -15 -190 -6 -18 14 -42 143 -34 176 8 33 59 56 276
121 102 31 196 60 210 65 51 17 111 11 145 -14z m9480 14 c3 -5 1 -10 -4 -10
-6 0 -11 5 -11 10 0 6 2 10 4 10 3 0 8 -4 11 -10z m-1721 -51 c71 -19 32 -17
-66 4 -54 11 -98 24 -98 28 0 7 69 -7 164 -32z m1635 -4 c91 -82 72 -215 -40
-279 l-34 -19 22 24 c11 13 33 46 48 73 26 46 26 51 12 75 -8 14 -20 52 -27
83 -11 47 -18 59 -39 67 -24 9 -25 9 -4 10 13 1 40 -15 62 -34z m-7646 -2 l28
-14 -23 -41 c-13 -22 -34 -48 -47 -56 -21 -14 -24 -14 -33 1 -5 9 -15 17 -23
17 -23 0 -27 18 -14 58 6 20 13 43 15 50 5 16 52 8 97 -15z m7262 -111 c-16
-66 -25 -127 -22 -136 4 -10 19 -16 44 -17 21 -1 49 -5 63 -10 45 -16 -89 0
-175 21 -44 10 -116 27 -160 37 -44 9 -70 19 -59 21 12 2 75 -9 139 -23 65
-15 121 -23 125 -18 4 4 12 45 18 89 11 78 39 170 49 160 3 -3 -7 -59 -22
-124z m461 101 c-10 -10 -19 5 -10 18 6 11 8 11 12 0 2 -7 1 -15 -2 -18z
m-8516 -3 c0 -43 -88 -180 -115 -180 -27 0 -27 27 0 82 44 89 115 149 115 98z
m6049 16 c-2 -2 -77 -16 -167 -31 -161 -27 -212 -27 -212 -2 0 10 15 12 58 10
31 -2 104 3 162 10 110 15 166 20 159 13z m244 -13 c13 -12 -46 -63 -72 -63
-33 0 -101 24 -104 36 -1 5 30 14 68 20 89 15 100 15 108 7z m2557 -93 c0 -5
-7 -10 -14 -10 -19 0 -66 61 -66 86 0 15 9 10 40 -23 22 -23 40 -47 40 -53z
m550 27 c0 -36 -5 -70 -12 -79 -14 -16 -93 -31 -257 -48 -103 -11 -104 -11
-160 17 -31 15 -56 35 -56 43 0 11 34 25 115 48 104 29 326 80 358 81 8 1 12
-18 12 -62z m-8354 12 c184 -53 204 -63 204 -101 0 -45 -30 -167 -43 -175 -24
-15 -156 -20 -330 -12 -182 9 -227 15 -227 29 0 5 36 50 81 100 44 50 96 116
115 146 19 30 41 54 48 54 7 0 75 -18 152 -41z m4614 2 c0 -11 -29 -18 -105
-27 -73 -8 -66 10 10 24 67 13 95 14 95 3z m-6470 -57 c49 -46 60 -64 40 -64
-13 0 -88 68 -101 92 -17 33 10 20 61 -28z m5535 16 c-8 -13 -85 -13 -105 0
-11 7 4 10 48 10 40 0 61 -4 57 -10z m-4200 -30 c8 -13 -45 -13 -65 0 -11 7
-6 10 22 10 20 0 40 -4 43 -10z m7771 -17 c-10 -10 -19 5 -10 18 6 11 8 11 12
0 2 -7 1 -15 -2 -18z m-1127 2 c3 -4 -7 -17 -22 -29 -36 -29 -145 -81 -152
-74 -4 3 -9 32 -12 64 l-6 57 93 -6 c50 -3 95 -9 99 -12z m-6769 1 c0 -15 -24
-66 -31 -66 -12 0 -11 14 3 45 9 20 28 35 28 21z m-60 -14 c0 -5 -7 -17 -15
-28 -14 -19 -14 -19 -15 2 0 11 3 24 7 27 9 10 23 9 23 -1z m6925 -79 c25 -32
45 -66 45 -75 0 -28 -76 -62 -109 -50 -32 12 -108 31 -140 34 -56 7 -29 44 79
109 36 21 68 39 72 39 4 0 28 -26 53 -57z m1681 43 c18 -14 18 -15 -8 -21 -31
-8 -48 0 -48 21 0 18 30 18 56 0z m-9432 -53 c2 -16 8 -49 11 -75 7 -52 3 -55
-74 -61 -31 -2 -39 3 -73 48 -50 66 -50 92 0 100 20 4 44 8 52 10 8 1 29 3 47
4 27 1 32 -3 37 -26z m9865 -27 c-8 -61 -14 -76 -32 -76 -21 0 -222 81 -236
95 -13 12 -13 15 0 19 23 8 78 13 180 14 l96 2 -8 -54z m-2331 -331 c109 -232
334 -470 568 -601 79 -44 91 -60 38 -49 -21 4 -53 8 -69 9 -65 3 -270 156
-381 284 -147 167 -254 371 -300 565 -14 62 -16 82 -6 98 7 10 12 29 13 41 0
13 24 -44 52 -127 29 -82 67 -181 85 -220z m-7468 304 c0 -21 -4 -39 -9 -39
-9 0 -21 70 -14 83 10 17 23 -7 23 -44z m9557 12 c37 -18 96 -51 131 -74 l64
-42 -5 -47 c-2 -26 -12 -59 -21 -73 -17 -26 -17 -26 -46 -8 -41 26 -237 194
-285 244 l-40 41 67 -5 c46 -3 88 -14 135 -36z m-115 -83 c172 -150 231 -211
231 -242 0 -34 -53 -115 -79 -122 -12 -3 -41 0 -65 6 -70 19 -379 171 -379
187 0 8 19 41 41 75 23 33 57 94 76 135 19 41 38 73 43 71 5 -2 65 -51 132
-110z m-9897 92 c9 -15 -151 -177 -197 -201 -20 -10 -96 -31 -169 -45 -141
-28 -233 -29 -250 -3 -16 24 -51 148 -45 158 8 12 142 36 395 71 225 32 257
34 266 20z m90 -9 c3 -5 1 -12 -5 -16 -5 -3 -10 1 -10 9 0 18 6 21 15 7z
m9514 -91 c2 -48 -1 -80 -7 -80 -13 0 -22 50 -22 123 0 93 24 57 29 -43z
m-8213 64 c48 -28 56 -39 22 -28 -55 16 -89 34 -83 44 9 14 11 13 61 -16z
m7833 10 c2 -2 -14 -4 -37 -4 -22 0 -44 5 -47 10 -6 10 73 3 84 -6z m-9044
-34 c10 -11 13 -20 7 -20 -18 0 -62 22 -62 32 0 16 37 8 55 -12z m338 5 c1 -5
-6 -11 -15 -13 -11 -2 -18 3 -18 13 0 17 30 18 33 0z m-495 -77 c-22 -39 -61
-58 -118 -58 -22 1 -18 8 44 67 64 61 70 64 82 48 12 -15 10 -24 -8 -57z m792
63 c0 -14 -28 -33 -40 -26 -20 12 -10 35 15 35 14 0 25 -4 25 -9z m75 -22 c7
-21 -2 -126 -12 -142 -7 -12 -32 13 -53 53 -19 37 -16 53 18 93 20 23 39 22
47 -4z m7352 -1 c34 -32 28 -37 -22 -20 -41 13 -44 16 -28 28 23 17 23 18 50
-8z m-7280 -10 c37 -41 38 -65 3 -99 -43 -43 -54 -29 -45 55 3 36 10 66 14 66
4 0 17 -10 28 -22z m209 -69 c-15 -82 -21 -97 -32 -87 -6 7 13 118 27 155 18
48 21 15 5 -68z m7962 74 c-2 -11 -14 -19 -31 -21 -29 -4 -35 6 -15 26 19 19
50 15 46 -5z m-8400 -9 c27 -19 29 -44 3 -44 -21 0 -54 38 -45 52 7 12 17 10
42 -8z m1261 -4 c35 -5 66 -12 69 -15 8 -8 -38 -142 -53 -155 -7 -6 -33 -4
-72 5 -66 16 -373 123 -386 135 -5 5 -6 18 -2 30 l7 23 187 -7 c102 -4 215
-11 250 -16z m-1483 -14 c7 -18 -22 -86 -36 -86 -20 0 -23 32 -7 66 17 36 34
44 43 20z m8534 -6 c0 -5 -5 -10 -11 -10 -5 0 -7 5 -4 10 3 6 8 10 11 10 2 0
4 -4 4 -10z m-8632 -38 c4 -38 -3 -39 -42 -8 -27 22 -27 24 -10 35 31 18 49 9
52 -27z m7538 24 c15 -12 16 -17 7 -27 -10 -10 -15 -9 -28 1 -16 13 -21 40 -7
40 5 0 17 -6 28 -14z m-7876 0 c0 -3 -4 -8 -10 -11 -5 -3 -10 -1 -10 4 0 6 5
11 10 11 6 0 10 -2 10 -4z m619 -30 l23 -25 -23 -30 c-28 -35 -44 -38 -59 -12
-7 14 -6 29 5 55 18 43 24 44 54 12z m825 8 c20 -8 253 -265 299 -331 l36 -52
-45 -60 c-25 -34 -50 -63 -55 -67 -25 -15 -57 22 -183 203 -109 157 -136 203
-136 230 0 21 6 36 15 39 8 4 15 15 15 25 0 19 23 25 54 13z m6686 -39 c134
-33 170 -44 170 -55 0 -11 -187 -84 -266 -105 -94 -24 -122 -2 -53 42 52 33
71 53 67 71 -5 26 -42 26 -96 -2 -51 -26 -62 -25 -62 4 0 32 80 84 115 76 11
-3 67 -17 125 -31z m-7946 16 c21 -5 44 -15 50 -21 18 -20 -113 -5 -132 14
-15 15 -14 16 13 16 17 0 47 -5 69 -9z m542 -18 c-7 -7 -26 7 -26 19 0 6 6 6
15 -2 9 -7 13 -15 11 -17z m-604 -78 c57 -53 103 -100 103 -105 0 -32 -411
-450 -443 -450 -24 0 -89 46 -125 90 -32 38 -31 46 20 140 44 80 233 366 262
398 42 43 71 31 183 -73z m-253 27 c-54 -91 -229 -350 -257 -380 -18 -19 -36
-30 -43 -27 -14 9 -99 125 -99 135 0 16 101 127 191 209 85 79 96 86 153 96
33 7 65 10 69 8 4 -3 -2 -21 -14 -41z m1865 -13 c183 -69 178 -65 143 -133
-16 -30 -37 -62 -47 -71 -18 -16 -21 -15 -53 9 -29 22 -158 159 -222 235 l-20
24 32 -6 c17 -3 92 -29 167 -58z m-1038 30 c16 -17 16 -22 4 -29 -16 -10 -70
-14 -70 -5 0 10 32 55 40 55 4 0 15 -9 26 -21z m8624 4 c-1 -16 -29 -45 -40
-41 -6 2 -5 11 5 26 16 21 35 30 35 15z m-9650 -21 c0 -11 -157 -162 -198
-191 -18 -13 -38 -21 -45 -18 -7 3 -28 33 -46 67 -27 50 -31 64 -20 71 23 15
144 50 221 64 93 17 88 16 88 7z m1280 -7 c0 -19 -36 -91 -50 -100 -17 -10
-11 22 12 70 22 45 38 58 38 30z m8802 -142 c81 -42 155 -84 164 -94 22 -25
11 -51 -41 -94 l-45 -36 -94 46 c-128 62 -169 101 -206 194 -17 40 -30 79 -30
87 0 19 69 -9 252 -103z m-1403 93 c9 -11 7 -27 -9 -69 -18 -49 -29 -61 -77
-91 -85 -53 -160 -81 -186 -69 -28 13 -81 88 -72 103 11 17 139 78 233 110
102 35 96 34 111 16z m-8067 -18 c-9 -9 -15 -9 -24 0 -9 9 -7 12 12 12 19 0
21 -3 12 -12z m8978 -1 c0 -7 -6 -21 -13 -32 -19 -26 -30 -3 -11 23 17 25 24
28 24 9z m225 -29 c9 -24 19 -49 22 -55 9 -23 -23 -14 -67 18 l-42 31 23 24
c32 34 44 30 64 -18z m-8730 -2 c-28 -37 -73 -71 -82 -62 -8 8 16 35 61 68 50
36 53 35 21 -6z m-180 -2 c-23 -17 -32 -10 -15 11 7 8 17 12 23 8 6 -4 3 -11
-8 -19z m7859 20 c24 -9 19 -22 -14 -39 -43 -22 -51 -20 -39 15 11 30 23 35
53 24z m132 -38 c6 -15 -100 -315 -136 -385 -11 -23 -26 -41 -33 -41 -23 1
-107 70 -113 94 -6 27 13 110 46 198 21 56 24 59 103 103 85 46 124 55 133 31z
m1639 4 c-4 -6 -1 -17 5 -25 16 -20 7 -53 -34 -121 -150 -249 -413 -458 -688
-548 -100 -32 -153 -43 -144 -27 5 7 -4 11 -28 11 -50 0 -45 15 12 36 237 88
346 140 451 216 130 95 323 304 394 429 12 21 26 39 30 39 5 0 5 -5 2 -10z
m-1399 -8 c16 -10 44 -68 44 -90 0 -19 -150 -303 -199 -377 -33 -50 -56 -53
-126 -21 -52 24 -55 27 -55 61 0 45 115 398 135 415 10 8 24 8 52 1 30 -8 50
-7 84 3 55 18 52 17 65 8z m-8326 -17 c-7 -9 -15 -13 -17 -11 -7 7 7 26 19 26
6 0 6 -6 -2 -15z m8923 -125 c19 -94 28 -170 30 -250 l2 -115 -62 -22 c-98
-35 -97 -36 -197 217 -47 118 -88 222 -91 231 -5 14 7 18 72 29 43 6 98 20
123 30 89 36 91 34 123 -120z m-9102 114 c9 -11 13 -38 12 -78 -4 -108 -21
-146 -118 -272 -122 -159 -167 -204 -203 -204 -23 0 -129 53 -154 79 -12 11
421 491 443 491 4 0 13 -7 20 -16z m659 -4 c0 -5 -2 -10 -4 -10 -3 0 -8 5 -11
10 -3 6 -1 10 4 10 6 0 11 -4 11 -10z m8502 -19 c25 -16 55 -42 66 -58 24 -34
74 -158 93 -232 15 -59 10 -68 -58 -108 -47 -27 -73 -25 -73 5 0 11 -7 36 -16
57 -8 20 -28 101 -45 178 -16 78 -31 152 -34 165 -7 30 11 28 67 -7z m-582 9
c0 -5 -2 -10 -4 -10 -3 0 -8 5 -11 10 -3 6 -1 10 4 10 6 0 11 -4 11 -10z m136
-23 c13 -12 -60 -202 -74 -193 -19 11 -54 129 -48 159 10 48 20 55 71 47 25
-4 48 -10 51 -13z m-8638 -38 c2 -37 -1 -49 -23 -69 l-25 -23 0 34 c0 49 19
111 33 106 7 -2 13 -24 15 -48z m538 -41 l51 -78 7 -202 c3 -112 3 -219 -2
-238 -10 -44 -40 -59 -122 -63 -62 -2 -63 -2 -72 28 -11 41 30 572 48 620 12
30 39 10 90 -67z m33 56 c24 -30 27 -48 9 -42 -17 6 -53 68 -40 68 6 0 20 -12
31 -26z m-159 -49 c0 -82 -49 -556 -60 -582 -7 -17 -18 -23 -40 -23 -27 0 -33
6 -51 47 -21 50 -32 49 -46 -7 -10 -38 -36 -50 -72 -30 -29 15 -46 86 -76 315
-29 235 -30 272 -7 302 16 21 26 23 157 26 77 1 152 4 168 5 26 2 27 1 27 -53z
m8313 -72 c61 -144 113 -281 121 -320 7 -30 5 -32 -31 -42 -58 -16 -108 -14
-126 7 -9 10 -33 54 -54 97 -49 104 -50 156 -4 278 18 48 37 87 41 87 4 0 29
-48 53 -107z m-816 62 c-6 -39 -56 -155 -66 -155 -4 0 -24 18 -46 40 -34 35
-37 41 -24 56 13 16 127 94 137 94 2 0 2 -16 -1 -35z m1353 -16 c59 -36 150
-111 150 -124 0 -13 -82 -75 -99 -75 -12 0 -37 47 -75 139 -37 92 -35 96 24
60z m-731 -73 l25 -77 -18 -52 c-10 -29 -34 -85 -53 -124 l-34 -73 -49 0 c-62
0 -100 14 -100 38 0 39 176 375 193 369 6 -2 23 -38 36 -81z m-8496 -96 c25
-199 40 -367 34 -383 -4 -11 -16 -13 -59 -6 -29 5 -66 13 -83 17 l-30 9 2 94
c2 97 27 283 45 328 5 14 21 41 35 60 34 44 37 36 56 -119z m-831 -76 c152
-132 281 -218 435 -290 65 -30 153 -72 196 -92 120 -56 96 -70 -53 -28 -196
55 -383 154 -542 289 -64 54 -188 198 -188 218 0 25 39 0 152 -97z m1494 4
c71 -116 119 -217 108 -227 -19 -18 -146 -53 -156 -43 -21 21 -39 362 -19 362
6 0 36 -42 67 -92z m-801 15 c-9 -89 -31 -198 -51 -251 -18 -48 -17 -48 -111
-6 -29 13 -53 29 -53 37 0 22 201 287 218 287 2 0 1 -30 -3 -67z m8695 -9 c19
-49 42 -165 36 -181 -5 -12 -17 -14 -56 -11 -28 3 -53 8 -57 12 -16 15 38 206
58 206 5 0 14 -12 19 -26z m190 -820 c0 -8 -5 -12 -10 -9 -6 4 -8 11 -5 16 9
14 15 11 15 -7z"/>
<path d="M8790 5023 c-41 -27 -80 -66 -80 -80 0 -18 41 -16 68 3 33 23 67 94
44 94 -4 0 -19 -7 -32 -17z"/>
<path d="M8630 4982 c-54 -24 -110 -89 -93 -106 15 -15 40 -3 80 36 52 51 60
91 13 70z"/>
<path d="M8830 4950 c-12 -8 -9 -10 13 -10 15 0 27 5 27 10 0 13 -20 13 -40 0z"/>
<path d="M11381 5520 c-53 -5 -76 -11 -83 -23 -16 -29 -60 -45 -310 -113 -134
-36 -249 -71 -256 -77 -19 -15 -6 -21 129 -56 63 -16 153 -46 199 -66 76 -33
89 -36 117 -25 34 12 101 -1 207 -40 28 -11 114 -35 191 -55 199 -51 228 -67
337 -189 113 -126 177 -215 190 -262 7 -26 40 -69 113 -143 56 -58 128 -142
160 -186 67 -94 209 -331 236 -392 18 -43 18 -43 -4 -54 -12 -7 -25 -17 -29
-23 -10 -15 -10 -128 0 -143 21 -33 172 -74 201 -54 10 6 15 30 15 78 l1 68
-45 23 c-43 22 -45 24 -45 68 -1 39 -23 90 -148 337 -102 201 -148 302 -147
324 0 23 -11 44 -39 77 -39 45 -153 227 -187 298 -16 34 -16 39 -2 55 9 10 23
36 32 58 21 51 29 55 102 55 46 0 65 4 77 18 25 27 21 67 -8 91 -40 31 -113
42 -350 50 -224 9 -262 15 -302 53 -27 26 -30 77 -7 113 15 23 15 26 -17 54
l-32 30 26 12 c32 14 34 25 8 39 -21 11 -211 11 -330 0z m242 -77 c-7 -2 -19
-2 -25 0 -7 3 -2 5 12 5 14 0 19 -2 13 -5z"/>
<path d="M9637 199 c-9 -6 -15 -14 -12 -18 8 -13 55 0 55 15 0 16 -18 18 -43
3z"/>
</g>
</svg>
