<?xml version="1.0" standalone="no"?>
<!DOCTYPE svg PUBLIC "-//W3C//DTD SVG 20010904//EN"
 "http://www.w3.org/TR/2001/REC-SVG-20010904/DTD/svg10.dtd">
<svg version="1.0" xmlns="http://www.w3.org/2000/svg"
 width="1280.000000pt" height="695.000000pt" viewBox="0 0 1280.000000 695.000000"
 preserveAspectRatio="xMidYMid meet">
<metadata>
Created by potrace 1.15, written by Peter Selinger 2001-2017
</metadata>
<g transform="translate(0.000000,695.000000) scale(0.100000,-0.100000)"
fill="#000000" stroke="none">
<path d="M7590 6939 c-41 -17 -80 -61 -91 -104 -7 -28 -19 -45 -39 -57 -63
-36 -86 -117 -52 -185 38 -74 105 -97 200 -69 41 12 68 15 95 9 38 -8 44 -16
223 -298 118 -187 182 -296 178 -307 -3 -10 7 -38 22 -64 l28 -47 -26 -46
c-31 -55 -28 -92 10 -122 16 -12 22 -23 16 -27 -76 -50 -174 -128 -170 -136 2
-6 48 -108 101 -226 53 -118 103 -230 110 -247 l14 -33 -103 -125 c-84 -103
-143 -161 -337 -327 -401 -345 -841 -707 -949 -781 -14 -9 -35 -24 -47 -33
-23 -16 -23 -16 -17 17 4 19 4 31 1 28 -4 -3 -8 -20 -10 -38 -4 -29 -27 -51
-243 -218 -351 -273 -504 -370 -678 -428 -90 -30 -113 -31 -140 -6 -13 12 -55
26 -106 36 -47 10 -90 22 -97 27 -21 17 -147 207 -240 363 -106 178 -200 351
-355 650 -63 123 -119 220 -127 220 -16 0 -176 345 -164 355 4 4 75 25 158 46
138 36 154 42 198 82 38 33 55 42 85 42 49 0 77 21 107 80 17 33 44 63 87 96
35 26 77 60 94 76 24 23 58 36 145 59 63 16 119 31 126 33 8 4 7 21 -7 66 -23
77 -60 139 -104 178 -68 60 -146 70 -621 82 -340 8 -494 17 -635 36 -25 3
-112 24 -194 46 -134 36 -153 39 -188 29 -49 -15 -78 -59 -78 -120 0 -33 -3
-42 -14 -38 -18 7 -42 -12 -50 -39 -6 -18 1 -23 56 -38 35 -9 99 -28 144 -41
l80 -24 17 -54 c9 -30 34 -81 56 -113 79 -121 162 -174 286 -182 60 -3 352 15
510 33 l50 6 -38 -21 c-25 -14 -123 -38 -269 -66 -126 -24 -234 -44 -239 -44
-13 0 -11 -22 13 -137 12 -59 26 -103 33 -103 18 0 196 -402 184 -416 -6 -8 8
-49 45 -130 127 -279 147 -388 107 -583 -22 -103 -57 -218 -71 -234 -4 -5 -25
22 -45 60 -241 432 -650 822 -1086 1035 l-129 63 0 47 c0 97 -84 216 -182 258
-49 21 -65 22 -278 21 -327 -2 -959 -19 -1276 -35 -267 -14 -275 -15 -319 -41
-110 -64 -156 -199 -119 -355 4 -21 0 -28 -27 -44 -92 -54 -289 -215 -404
-331 -72 -71 -173 -186 -224 -255 l-94 -125 -168 -5 c-160 -5 -169 -6 -193
-29 -48 -46 -95 -215 -96 -348 0 -51 4 -66 21 -82 19 -18 114 -41 168 -41 18
0 22 -4 17 -17 -4 -9 -22 -69 -41 -133 -50 -172 -85 -358 -120 -625 -13 -101
-14 -103 -10 -30 35 600 36 628 23 641 -35 35 -39 6 -64 -437 -13 -238 -22
-439 -20 -446 8 -20 37 -15 43 6 3 11 11 17 21 14 10 -2 38 7 64 21 l46 25 6
-37 c3 -20 8 -64 11 -97 22 -215 107 -499 215 -721 454 -932 1469 -1437 2491
-1238 661 128 1237 550 1563 1147 l58 107 116 0 115 0 -180 -134 c-99 -74
-196 -153 -215 -176 -75 -87 -103 -225 -62 -305 33 -66 87 -86 243 -93 75 -3
169 0 227 7 246 31 691 176 1001 327 106 52 153 89 153 120 0 16 16 19 25 4 3
-6 16 -10 28 -11 18 0 17 -3 -11 -17 -28 -14 -32 -20 -27 -42 4 -14 10 -29 15
-33 11 -12 79 25 115 63 26 27 30 39 30 85 0 42 -5 59 -23 78 l-22 24 147 12
c82 6 186 21 233 32 68 17 134 23 335 29 266 8 305 14 435 69 82 34 207 119
256 174 82 90 127 256 106 390 -13 86 -40 155 -82 207 l-30 38 38 7 c94 16
216 118 266 225 55 116 37 253 -49 366 -14 18 -25 37 -25 43 0 11 -190 189
-226 211 -13 8 -24 18 -24 23 0 5 -15 23 -32 42 -18 18 -42 42 -52 54 -26 28
-77 28 -111 -2 -15 -12 -58 -76 -95 -142 -38 -66 -73 -119 -78 -118 -122 27
-265 30 -322 7 -41 -16 -87 -68 -82 -91 2 -7 -4 -13 -13 -13 -8 0 -15 -9 -15
-19 0 -10 -7 -22 -16 -25 -9 -3 -14 -13 -10 -21 3 -8 -2 -19 -12 -24 -15 -8
-17 -21 -15 -70 l3 -61 -51 0 -51 0 7 38 c19 104 110 260 237 404 58 65 429
407 763 704 139 123 335 282 490 399 139 104 499 355 509 355 2 0 23 -30 46
-67 24 -38 44 -69 45 -71 2 -2 34 16 71 40 38 25 74 47 79 50 6 4 24 -18 40
-47 l29 -54 -140 -143 c-208 -214 -340 -398 -459 -643 -230 -476 -307 -1006
-220 -1520 20 -114 77 -340 110 -436 27 -78 235 -509 244 -508 4 0 40 43 81
95 41 51 77 94 80 94 4 0 16 -20 28 -45 12 -25 50 -89 85 -143 311 -478 795
-827 1339 -966 220 -56 335 -70 578 -70 223 0 339 12 520 54 767 179 1397 757
1644 1505 83 254 110 430 110 715 0 286 -27 462 -110 715 -211 641 -704 1161
-1336 1409 -65 25 -124 46 -133 46 -18 0 -18 -1 -4 38 l10 30 36 -15 c20 -8
103 -46 186 -84 82 -38 152 -69 157 -69 17 0 259 114 255 120 -9 15 -233 159
-293 189 -111 56 -305 129 -452 171 -79 22 -149 40 -157 40 -8 0 1 14 21 34
46 43 50 98 11 144 -78 93 -340 52 -569 -89 -44 -27 -61 -31 -171 -40 -271
-20 -495 -77 -765 -194 -87 -37 -214 -104 -262 -137 l-26 -18 -48 87 c-167
309 -586 997 -645 1058 -46 49 -47 51 -42 102 3 29 12 58 19 64 19 15 18 34
-3 66 -16 25 -16 25 2 20 62 -18 115 -28 243 -47 184 -26 204 -26 239 4 49 41
82 215 83 424 0 201 -20 223 -207 230 -242 10 -502 -52 -655 -154 l-49 -33
-14 32 c-7 17 -34 76 -59 130 -43 93 -45 101 -35 140 15 54 -1 115 -41 161
-44 50 -88 67 -167 65 -44 -1 -81 4 -105 15 -42 18 -81 20 -118 5z m755 -937
c-15 -2 -32 2 -36 10 -16 25 -9 28 28 10 l36 -17 -28 -3z m-5170 -1283 c22 -6
55 -22 73 -36 36 -27 82 -109 82 -146 l0 -25 -67 25 c-109 40 -320 91 -474
114 -192 30 -545 33 -719 6 -242 -37 -457 -104 -648 -202 -88 -45 -105 -50
-110 -36 -9 21 -9 109 1 143 9 35 52 85 89 104 54 28 598 49 1608 62 69 1 143
-3 165 -9z m7480 -69 c153 -13 279 -34 383 -66 82 -25 84 -26 77 -52 -3 -15
-10 -31 -15 -35 -4 -5 -51 1 -104 12 -510 111 -1055 38 -1524 -204 -97 -50
-108 -53 -119 -38 -22 29 -15 40 45 76 268 162 627 279 937 306 131 12 186 12
320 1z m-8316 -837 c-1 -137 -3 -240 -6 -230 -2 9 -35 116 -72 237 l-68 219
41 5 c39 5 82 12 99 15 4 0 6 -110 6 -246z m310 237 c41 -6 76 -12 78 -14 2
-2 -14 -96 -37 -210 -35 -174 -54 -242 -126 -443 -47 -130 -86 -239 -88 -241
-2 -1 -11 18 -20 44 -14 41 -16 107 -16 461 l0 413 68 0 c37 0 100 -5 141 -10z
m8136 -10 c33 -7 61 -13 63 -14 1 -2 -42 -129 -97 -282 -54 -153 -125 -352
-156 -442 -32 -89 -60 -160 -64 -157 -8 8 -279 889 -275 893 18 22 418 23 529
2z m-8533 -300 l88 -285 0 -330 c-1 -360 -3 -374 -54 -361 -17 4 -28 1 -34
-10 -7 -13 -13 -14 -29 -5 -20 10 -568 1003 -591 1069 l-11 32 60 31 c131 66
400 152 458 146 23 -2 30 -19 113 -287z m538 284 c0 -12 -53 -154 -56 -151 -2
2 3 35 11 73 8 38 15 72 15 77 0 8 30 10 30 1z m7435 -6 c37 -112 285 -927
285 -939 0 -15 -127 -379 -135 -387 -5 -5 -330 204 -343 221 -5 6 -85 215
-177 462 -92 248 -170 456 -173 463 -9 24 222 121 403 168 103 26 134 29 140
12z m-7289 -23 c132 -36 167 -52 159 -73 -3 -9 -113 -245 -243 -524 -236 -504
-237 -506 -269 -510 -19 -2 -34 1 -37 8 -2 6 27 171 65 365 63 323 75 370 141
556 39 112 76 203 82 203 6 0 52 -11 102 -25z m7984 17 c0 -5 -75 -211 -166
-458 -91 -247 -172 -465 -179 -484 -11 -30 -14 -32 -20 -16 -5 10 -3 33 3 50
6 17 69 195 140 396 72 201 142 400 157 443 21 59 32 77 46 77 11 0 19 -4 19
-8z m-1950 -45 c0 -7 -32 -44 -71 -82 -182 -179 -348 -420 -461 -669 -42 -93
-117 -305 -119 -335 0 -10 -3 -11 -6 -4 -2 7 8 52 22 100 113 372 281 662 538
930 73 76 97 91 97 60z m2152 -13 c66 -24 254 -110 286 -132 10 -6 -33 -118
-181 -467 l-194 -458 -177 -105 c-98 -57 -181 -100 -186 -96 -4 5 -19 46 -33
91 l-25 81 206 556 c121 326 211 556 218 556 7 0 46 -12 86 -26z m-7864 -84
c42 -21 83 -43 90 -48 11 -7 -9 -63 -94 -263 l-108 -254 -173 -217 c-162 -204
-175 -218 -205 -218 -86 0 -98 -36 151 493 125 265 233 497 240 515 7 17 15
32 17 32 3 0 39 -18 82 -40z m6402 -62 c14 -33 306 -818 315 -847 12 -39 -12
-15 -39 37 -33 64 -356 783 -356 791 0 6 50 39 63 40 4 1 12 -9 17 -21z
m-8010 -228 c86 -158 130 -253 191 -414 43 -115 79 -212 79 -217 0 -4 -39 18
-87 49 -49 32 -226 147 -395 256 -170 109 -308 202 -308 206 0 4 46 52 103
106 105 101 287 238 299 226 3 -4 57 -99 118 -212z m1831 145 c-79 -103 -251
-314 -251 -309 0 4 29 75 64 158 35 83 71 168 80 189 l15 38 50 -33 c29 -19
46 -37 42 -43z m8079 -3 c104 -74 334 -294 328 -313 -4 -12 -797 -484 -802
-477 -6 8 359 858 369 858 5 0 53 -31 105 -68z m-7971 -66 c36 -30 104 -93
151 -140 81 -82 83 -86 65 -101 -138 -103 -247 -174 -490 -317 -158 -93 -288
-168 -289 -166 -2 2 32 83 73 182 l77 178 167 209 c92 115 170 209 173 209 4
0 37 -24 73 -54z m5679 -216 l32 -59 -59 37 -60 37 21 22 c12 13 24 23 27 23
3 0 21 -27 39 -60z m-7728 -289 l405 -262 57 -151 c53 -142 55 -151 36 -156
-15 -3 -19 -11 -15 -29 3 -17 -2 -27 -17 -35 -11 -6 -24 -15 -27 -20 -3 -5
-72 -18 -153 -29 l-147 -18 -435 246 c-393 222 -434 248 -428 267 26 82 156
305 243 414 33 42 45 51 59 43 9 -5 199 -127 422 -270z m7735 207 c55 -34 66
-47 125 -150 35 -62 146 -254 247 -427 101 -173 183 -316 183 -317 0 -1 -20
-5 -45 -9 -45 -6 -49 -5 -473 235 -235 133 -431 246 -437 251 -21 20 165 350
255 452 32 37 33 37 59 20 14 -9 53 -34 86 -55z m-6714 -188 c-21 -107 -41
-188 -44 -180 -30 85 -31 80 25 238 29 83 54 147 55 144 2 -4 -15 -95 -36
-202z m1373 106 c30 -45 71 -111 91 -148 34 -63 35 -68 18 -75 -10 -4 -153
-62 -317 -130 -195 -80 -312 -123 -335 -123 -20 0 -79 7 -131 15 -52 8 -112
15 -132 15 -21 0 -38 4 -38 8 0 4 118 96 262 203 294 218 494 345 515 327 8
-6 38 -48 67 -92z m8066 -12 c68 -102 138 -235 179 -341 l20 -52 -441 -225
-442 -226 -204 35 c-112 19 -206 36 -209 38 -2 3 32 89 75 193 l80 188 428
252 c236 139 432 250 436 248 4 -3 39 -52 78 -110z m-8967 -228 c-47 -113 -63
-140 -89 -157 -30 -18 -109 -27 -102 -11 5 13 243 310 246 308 1 -2 -23 -65
-55 -140z m-1005 -155 c4 -10 -5 -7 -26 7 -24 17 -40 46 -71 128 -23 58 -41
108 -41 112 0 7 128 -222 138 -247z m419 177 c-2 -13 -4 -3 -4 22 0 25 2 35 4
23 2 -13 2 -33 0 -45z m873 -1 c-8 -8 -77 -60 -153 -116 -102 -75 -144 -100
-158 -96 -10 4 -19 10 -19 15 0 8 325 208 340 210 2 0 -2 -6 -10 -13z m768
-54 c6 -16 20 -51 31 -80 l20 -51 -150 -77 -150 -76 -179 32 c-99 18 -178 35
-176 36 5 5 580 242 588 243 3 0 11 -12 16 -27z m-1590 -151 c-12 -57 -32 -82
-49 -65 -15 15 -6 169 11 208 l13 30 18 -60 c16 -51 17 -68 7 -113z m8042 144
c0 -30 -98 -296 -116 -316 -24 -24 -17 2 41 163 30 83 55 158 55 165 0 6 5 12
10 12 6 0 10 -11 10 -24z m-9328 -317 c225 -128 407 -234 404 -236 -5 -5 -919
27 -925 32 -16 16 87 435 108 435 2 0 188 -104 413 -231z m6199 195 c24 -15
90 -49 147 -75 110 -50 128 -67 169 -155 57 -125 22 -269 -89 -369 -59 -53
-103 -77 -170 -93 -44 -11 -48 -10 -97 21 -37 23 -53 41 -60 67 -14 46 -14 50
5 50 12 0 15 6 11 20 -4 16 -2 20 12 15 13 -4 25 8 47 47 69 125 83 208 47
271 -15 26 -124 104 -166 120 -5 1 4 28 19 59 24 50 30 56 55 53 14 -2 46 -16
70 -31z m1827 -178 c207 -117 393 -221 412 -231 19 -10 31 -20 25 -21 -16 -5
-891 -114 -915 -114 -22 0 -22 1 -16 93 4 50 16 137 27 191 19 102 75 296 85
296 3 0 175 -96 382 -214z m783 146 c28 -64 18 -62 -14 4 -15 31 -23 52 -16
49 6 -4 19 -28 30 -53z m-7921 -89 c35 -66 33 -113 -5 -113 -19 0 -27 10 -41
48 -9 26 -28 74 -41 106 -12 33 -23 61 -23 63 0 2 18 -9 40 -23 25 -16 51 -48
70 -81z m6207 85 c-3 -8 -6 -5 -6 6 -1 11 2 17 5 13 3 -3 4 -12 1 -19z m2011
-203 c-23 -12 -64 -44 -90 -70 -27 -26 -50 -46 -52 -44 -2 3 -76 196 -124 327
-2 7 66 -33 152 -89 l156 -101 -42 -23z m-6150 143 c34 -110 36 -128 15 -128
-26 -1 -283 54 -283 60 0 5 227 126 242 129 4 0 16 -27 26 -61z m6796 -45
c-25 -60 -57 -136 -71 -170 l-25 -63 -45 50 c-25 28 -65 62 -90 76 -24 15 -41
29 -38 32 10 10 299 181 307 182 4 0 -13 -48 -38 -107z m1255 75 c40 -129 66
-276 77 -440 6 -98 5 -108 -11 -108 -25 0 -856 139 -885 149 -21 6 36 38 385
218 226 116 413 211 417 212 3 0 11 -14 17 -31z m-9679 -3 c0 -14 -4 -25 -10
-25 -5 0 -10 11 -10 25 0 14 5 25 10 25 6 0 10 -11 10 -25z m8079 -65 c11 -35
19 -65 18 -67 -3 -3 -80 17 -85 22 -1 1 7 28 19 59 11 32 23 56 25 54 2 -2 12
-33 23 -68z m-7756 -87 c3 -5 1 -17 -4 -28 -6 -17 -8 -17 -8 -2 -1 9 -5 17
-11 17 -5 0 -10 5 -10 10 0 12 27 14 33 3z m87 -24 l32 -12 -46 -20 c-26 -11
-49 -18 -52 -15 -7 8 14 58 24 58 5 0 24 -5 42 -11z m262 -81 c97 -29 176 -53
174 -55 -1 -1 -64 -12 -139 -24 -126 -20 -145 -21 -227 -8 -83 12 -90 15 -90
35 0 14 -8 25 -20 29 -11 3 -20 9 -20 13 0 7 115 58 135 61 6 1 90 -22 187
-51z m-1242 -103 c-9 -11 -32 -15 -89 -14 l-76 2 80 12 c44 7 84 13 89 14 5 0
3 -6 -4 -14z m9130 -20 c85 -15 156 -28 158 -30 3 -2 -211 -115 -328 -172 -3
-2 -6 30 -7 70 0 39 -8 92 -17 116 -20 55 -21 54 12 47 15 -3 97 -17 182 -31z
m-8120 11 c0 -3 -4 -8 -10 -11 -5 -3 -10 -1 -10 4 0 6 5 11 10 11 6 0 10 -2
10 -4z m6884 -28 c9 -12 16 -26 16 -30 0 -9 -44 12 -75 36 -19 15 -19 15 12
16 22 0 37 -7 47 -22z m-47 -40 c51 -28 93 -55 93 -59 0 -5 -39 -36 -87 -69
-49 -33 -99 -69 -113 -79 -23 -18 -65 -21 -489 -40 -368 -16 -467 -18 -473 -8
-4 6 -7 50 -6 97 l3 85 485 61 c267 34 487 62 489 63 3 0 47 -22 98 -51z
m1998 -63 c259 -43 473 -81 477 -84 10 -9 -10 -203 -32 -306 -11 -49 -32 -129
-46 -177 -24 -78 -29 -87 -48 -83 -12 3 -217 50 -456 104 -239 55 -447 102
-462 106 -18 5 -71 58 -164 166 -75 88 -133 163 -130 167 16 15 372 191 381
188 6 -2 222 -39 480 -81z m-10965 54 l65 -2 -90 -12 c-133 -19 -145 -19 -145
6 0 20 4 21 53 15 28 -3 81 -6 117 -7z m674 -20 l310 -12 57 -34 c68 -40 74
-46 59 -74 -9 -16 -8 -24 6 -40 21 -24 18 -29 -113 -167 l-98 -103 -484 -89
c-266 -50 -487 -88 -491 -85 -11 7 -48 146 -66 247 -8 46 -17 135 -21 198 l-6
116 204 26 c246 31 254 31 643 17z m5066 -39 c-19 -37 -24 -40 -61 -40 -36 0
-40 3 -37 21 2 16 17 26 58 39 30 10 56 18 58 19 1 1 -7 -17 -18 -39z m-4646
21 c11 -4 15 -10 9 -14 -5 -3 -19 0 -29 8 -20 15 -11 18 20 6z m2290 -193
c-21 -203 -94 -482 -123 -473 -9 2 -225 52 -481 110 -256 58 -470 111 -476
118 -6 7 -41 47 -78 89 l-66 77 43 5 c23 2 121 10 217 16 234 15 879 88 925
105 38 14 44 6 39 -47z m6819 -108 c64 -74 114 -136 114 -137 -2 -1 -250 56
-355 82 -23 6 -23 6 13 46 37 41 85 131 85 159 0 19 1 18 143 -150z m-9061 51
c-3 -23 1 -29 18 -34 18 -5 22 -11 18 -31 -4 -18 0 -26 16 -31 19 -6 -2 -11
-213 -50 -33 -6 -32 -4 54 88 88 96 115 110 107 58z m5133 14 c44 0 90 -6 101
-13 44 -24 121 -120 134 -166 18 -64 9 -170 -19 -224 -55 -107 -181 -182 -384
-226 l-28 -7 41 52 c81 103 105 183 98 327 -4 81 -8 99 -44 171 -41 84 -41
110 1 95 11 -4 56 -8 100 -9z m-2002 -71 c95 -25 173 -47 174 -48 6 -5 53
-274 55 -316 l3 -45 -47 -3 c-45 -3 -48 -2 -61 31 -14 33 -17 34 -103 47 -121
18 -270 17 -381 -4 l-92 -18 -17 -51 c-27 -82 -27 -39 0 55 14 47 28 102 31
122 4 20 9 36 11 36 2 0 42 -20 87 -45 46 -25 93 -45 104 -45 25 0 29 24 39
208 4 67 11 122 16 122 5 0 87 -21 181 -46z m-2097 -31 c32 -38 64 -75 71 -84
11 -13 -11 -10 -114 13 -71 17 -130 31 -132 33 -10 11 11 35 30 35 17 0 20 4
15 24 -4 18 -1 28 11 35 38 22 60 12 119 -56z m6656 38 c18 -25 74 -57 116
-66 38 -8 41 -19 10 -38 -22 -14 -975 -193 -983 -185 -5 4 -49 178 -58 226 -4
17 -3 32 1 33 52 4 793 47 839 48 50 1 64 -3 75 -18z m740 -136 c27 -8 52 -16
54 -18 4 -4 -175 -228 -218 -272 -19 -20 -19 -19 -13 90 3 61 8 147 11 191 l6
81 54 -29 c30 -17 78 -36 106 -43z m-195 23 c-4 -24 -9 -118 -13 -210 l-7
-166 -314 -381 c-280 -339 -317 -380 -334 -370 -91 48 -409 334 -409 367 0 19
668 729 692 735 13 3 82 15 153 27 72 11 148 25 170 29 69 15 68 15 62 -31z
m-8124 8 c18 -4 27 -13 27 -26 0 -11 7 -20 15 -20 13 0 15 -12 13 -71 l-3 -71
-70 -18 c-38 -10 -99 -30 -134 -44 -52 -21 -82 -26 -152 -26 l-86 0 -6 -77
c-2 -43 -4 -79 -2 -81 1 -1 40 -5 86 -9 70 -5 97 -12 162 -45 l78 -39 -27 -32
c-15 -18 -130 -157 -256 -309 l-229 -278 -59 40 c-99 68 -201 154 -287 244
-46 47 -83 89 -83 94 0 5 151 171 335 370 299 321 340 362 373 368 20 4 89 17
152 29 63 12 117 18 120 15 3 -4 17 -10 33 -14z m7802 14 c-3 -5 -15 -10 -26
-10 -11 0 -17 5 -14 10 3 6 15 10 26 10 11 0 17 -4 14 -10z m855 -181 l0 -191
-115 150 c-63 83 -115 153 -115 155 0 2 26 10 58 16 31 6 80 22 107 35 28 14
53 25 58 25 4 1 7 -85 7 -190z m431 96 c14 -5 620 -705 643 -743 16 -28 -205
-225 -367 -326 l-77 -48 -23 28 c-12 16 -147 193 -299 394 l-277 365 -1 211 0
211 193 -44 c105 -24 199 -46 208 -48z m-8202 34 l153 -34 57 -65 c78 -88 81
-95 45 -87 -16 3 -123 13 -239 22 -298 23 -275 16 -275 75 0 64 7 80 36 80 17
0 25 7 30 26 5 18 12 24 23 21 9 -2 86 -19 170 -38z m-1289 -14 c0 -3 -142
-159 -316 -346 -244 -261 -319 -337 -329 -329 -23 19 -122 172 -169 260 -47
89 -110 239 -103 246 2 2 152 31 333 65 181 33 383 71 449 84 146 28 135 26
135 20z m8060 0 c0 -3 -142 -158 -316 -345 -260 -280 -319 -338 -331 -328 -51
42 -248 394 -268 479 l-6 26 143 27 c79 15 283 53 453 85 171 32 313 59 318
60 4 0 7 -1 7 -4z m882 -206 l118 -155 6 -491 7 -491 -39 -9 c-61 -12 -391 -8
-471 6 l-73 13 0 36 c0 21 11 243 24 494 l23 457 94 113 c178 217 172 210 184
196 5 -7 63 -83 127 -169z m-8387 150 c5 -16 12 -19 34 -14 19 4 32 1 41 -10
21 -25 -6 -42 -77 -48 l-63 -5 0 43 c0 33 4 45 18 48 33 9 41 7 47 -14z m445
-25 l0 -47 -72 7 c-49 5 -77 12 -85 23 -17 22 -10 27 16 11 18 -11 22 -10 34
6 10 14 21 17 40 12 20 -5 27 -2 32 14 3 11 13 20 21 20 10 0 14 -13 14 -46z
m970 -60 c234 -53 429 -101 435 -105 5 -5 -8 -9 -30 -8 -55 0 -754 74 -758 80
-2 2 -30 35 -62 73 -51 59 -56 68 -35 63 14 -4 216 -50 450 -103z m8050 1
c239 -54 439 -102 443 -106 22 -18 -170 -352 -265 -463 l-34 -38 -275 323
c-355 416 -336 394 -319 388 8 -3 211 -50 450 -104z m-9310 40 c11 -13 8 -15
-15 -15 -23 0 -26 2 -15 15 7 8 14 15 15 15 1 0 8 -7 15 -15z m80 0 c25 -14
24 -14 -19 -15 -37 0 -42 2 -31 15 15 18 18 18 50 0z m7691 -748 c-12 -223
-21 -422 -21 -442 0 -37 0 -37 -34 -31 -120 23 -434 147 -500 198 -17 14 -1
36 275 370 236 286 295 351 297 333 2 -13 -6 -205 -17 -428z m869 107 c135
-179 260 -345 279 -370 l33 -44 -83 -39 c-147 -67 -383 -141 -453 -141 l-26 0
0 338 c0 187 -3 394 -7 460 -3 71 -2 122 3 121 5 0 119 -146 254 -325z m-8914
162 c-3 -39 -13 -222 -22 -406 -9 -184 -17 -336 -19 -338 -2 -2 -47 8 -102 23
-181 48 -452 171 -436 198 4 7 119 148 255 313 l249 302 40 -11 40 -10 -5 -71z
m224 39 c80 -9 190 -19 245 -23 l100 -7 3 -387 2 -387 -47 -8 c-76 -12 -360
-8 -450 6 -74 12 -83 16 -83 35 0 11 9 190 20 396 11 206 20 381 20 389 0 9 8
11 23 8 12 -3 87 -13 167 -22z m511 -44 c3 -3 97 -127 209 -276 112 -148 208
-276 213 -283 24 -31 -421 -192 -530 -192 l-23 0 0 385 0 385 63 -6 c34 -4 65
-9 68 -13z m2712 -11 c76 -34 164 -57 260 -65 63 -6 67 -8 49 -21 -13 -9 -25
-36 -33 -70 -11 -47 -19 -60 -49 -80 -90 -60 -518 -228 -730 -288 -228 -64
-278 -71 -477 -71 -169 0 -183 1 -210 21 -43 32 -49 70 -24 146 12 35 35 80
51 100 17 20 95 83 173 140 167 121 227 174 227 199 0 18 15 19 349 19 l348 0
66 -30z m-1884 -75 c45 -52 81 -98 81 -103 0 -16 -168 -171 -252 -233 -81 -60
-197 -134 -202 -128 -81 107 -405 538 -410 547 -6 9 66 12 348 12 l354 0 81
-95z m231 89 c0 -9 -97 -139 -113 -152 -10 -9 -29 8 -80 68 -37 43 -67 81 -67
84 0 3 59 6 130 6 72 0 130 -3 130 -6z"/>
<path d="M7470 5477 c-52 -19 -105 -39 -117 -46 -31 -16 -46 -48 -39 -85 5
-29 1 -35 -59 -84 -75 -62 -222 -230 -317 -363 -183 -257 -311 -549 -325 -745
-5 -73 -3 -87 19 -136 16 -35 43 -69 72 -94 45 -37 46 -40 40 -80 -5 -35 -2
-46 15 -63 12 -12 25 -21 30 -21 20 0 53 38 59 69 7 31 10 33 56 37 27 2 61
11 75 21 36 23 446 364 756 629 289 246 302 261 326 399 40 230 -135 476 -364
510 -35 5 -47 12 -47 24 0 25 -37 61 -63 61 -12 0 -65 -15 -117 -33z"/>
</g>
</svg>
