<?xml version="1.0" standalone="no"?>
<!DOCTYPE svg PUBLIC "-//W3C//DTD SVG 20010904//EN"
 "http://www.w3.org/TR/2001/REC-SVG-20010904/DTD/svg10.dtd">
<svg version="1.0" xmlns="http://www.w3.org/2000/svg"
 width="1280.000000pt" height="787.000000pt" viewBox="0 0 1280.000000 787.000000"
 preserveAspectRatio="xMidYMid meet">
<metadata>
Created by potrace 1.15, written by Peter Selinger 2001-2017
</metadata>
<g transform="translate(0.000000,787.000000) scale(0.100000,-0.100000)"
fill="#000000" stroke="none">
<path d="M5246 7854 c-59 -21 -100 -57 -168 -147 -34 -45 -92 -119 -130 -165
-81 -99 -92 -133 -85 -259 5 -85 3 -98 -24 -167 -16 -42 -34 -104 -40 -138
-23 -139 -14 -125 -77 -133 -31 -4 -67 -11 -81 -17 -48 -18 -68 -4 -76 52 -7
49 -25 80 -48 80 -29 0 -131 -129 -241 -307 -66 -106 -123 -193 -128 -193 -4
0 -15 14 -23 31 -15 28 -15 34 1 74 24 65 15 84 -68 134 -96 58 -106 67 -114
105 -10 47 -45 126 -57 126 -6 0 -8 -25 -4 -66 l5 -66 -106 -146 c-246 -344
-295 -402 -378 -448 -63 -35 -64 -37 -64 -77 0 -36 -14 -63 -99 -192 -54 -82
-128 -195 -163 -250 -77 -118 -106 -151 -151 -170 -19 -8 -126 -37 -238 -64
-517 -128 -735 -225 -1184 -530 -252 -170 -407 -274 -446 -295 -47 -27 -19
-32 61 -11 34 9 189 45 345 80 l283 63 139 83 c76 45 174 100 218 121 l80 40
270 -5 c149 -3 374 -12 500 -22 302 -21 335 -25 335 -35 0 -5 -66 -145 -146
-312 -81 -166 -198 -413 -261 -548 -63 -134 -116 -247 -119 -249 -3 -3 -15 7
-27 22 -29 35 -63 46 -118 40 -42 -5 -47 -3 -72 30 -33 43 -83 56 -129 33 -40
-21 -51 -20 -73 4 -9 10 -32 24 -50 30 -31 10 -63 3 -116 -27 -3 -2 -23 10
-44 27 -46 37 -103 41 -142 10 -27 -21 -68 -27 -78 -10 -12 19 -100 11 -129
-11 -26 -21 -28 -21 -72 -4 -58 22 -103 14 -150 -27 -33 -29 -38 -31 -69 -19
-42 15 -92 -3 -135 -49 -25 -26 -32 -29 -55 -20 -62 23 -118 3 -144 -51 -15
-31 -20 -34 -62 -34 -53 0 -92 -23 -121 -71 -18 -31 -24 -34 -66 -34 -55 0
-112 -38 -112 -75 0 -30 -25 -55 -54 -55 -13 0 -44 -16 -69 -35 -35 -27 -46
-42 -49 -67 -3 -29 -7 -33 -41 -39 -47 -7 -97 -53 -97 -88 0 -51 -11 -70 -46
-81 -42 -14 -84 -72 -84 -117 0 -34 -8 -42 -55 -58 -41 -14 -67 -67 -59 -121
5 -39 3 -44 -26 -65 -44 -33 -64 -75 -65 -134 0 -44 -3 -51 -28 -63 -38 -19
-50 -55 -43 -131 6 -56 4 -66 -14 -86 -27 -29 -44 -99 -30 -125 15 -29 12 -51
-11 -76 -32 -34 -37 -105 -10 -142 25 -36 25 -37 1 -87 -25 -52 -25 -99 1
-134 20 -27 20 -30 4 -62 -22 -42 -23 -101 -1 -131 9 -13 23 -32 31 -43 12
-17 12 -28 4 -58 -13 -50 -3 -95 29 -130 24 -25 25 -31 15 -67 -15 -58 2 -106
49 -133 42 -25 50 -44 38 -88 -7 -25 -5 -38 15 -69 14 -23 34 -40 47 -42 20
-3 23 -9 24 -48 1 -67 29 -118 76 -137 42 -17 58 -38 58 -77 0 -30 55 -96 80
-96 24 0 36 -17 44 -62 8 -46 67 -102 98 -92 25 8 68 -31 68 -61 0 -31 50 -75
86 -75 33 0 57 -21 68 -57 12 -40 63 -73 111 -73 62 0 73 -7 85 -51 8 -28 16
-39 30 -39 10 0 22 -4 25 -10 3 -5 17 -10 30 -10 13 0 27 5 30 10 12 19 34 10
75 -30 48 -47 76 -56 125 -40 46 15 79 7 93 -24 6 -14 26 -29 46 -36 32 -10
39 -9 62 9 38 30 58 26 91 -14 39 -50 88 -57 136 -21 42 32 52 32 73 1 14 -21
24 -25 69 -25 50 0 54 2 64 30 13 38 26 38 61 0 24 -26 35 -30 79 -30 46 0 53
3 61 25 5 14 21 27 36 31 22 6 31 2 46 -20 33 -44 109 -32 122 19 7 29 44 34
88 11 47 -25 96 -4 151 63 15 19 24 21 65 15 46 -6 51 -4 97 36 37 32 54 40
72 36 12 -3 35 -9 49 -12 19 -5 29 -1 40 15 8 11 21 21 29 21 7 0 19 17 25 37
17 52 34 64 71 51 25 -9 33 -7 49 8 11 11 26 25 35 32 8 7 15 24 15 37 0 31
39 58 72 50 36 -9 98 50 98 93 0 36 23 62 55 62 31 0 85 62 85 99 0 32 13 46
52 56 44 11 88 69 88 115 0 39 26 80 50 80 18 0 50 64 50 99 0 28 9 42 44 75
58 53 72 88 55 139 -12 36 -11 39 18 70 41 43 58 96 42 130 -11 24 -9 30 24
66 40 45 56 99 38 137 -15 34 -14 70 4 98 18 28 22 113 6 129 -16 16 -14 42 9
79 26 43 25 92 -1 135 -16 25 -19 42 -14 66 14 64 7 116 -20 148 -29 36 -30
39 -10 65 26 34 19 86 -20 137 -28 37 -35 55 -35 92 0 58 -22 111 -49 120 -26
8 -35 42 -22 76 14 39 -19 106 -62 124 -33 14 -63 58 -51 77 3 5 -2 28 -12 49
-14 29 -27 42 -47 46 -30 6 -47 29 -47 65 0 28 -39 98 -60 108 -8 4 -28 12
-45 17 -23 6 -33 18 -43 48 -16 50 -37 71 -86 87 -33 11 -41 19 -49 48 -5 19
-23 50 -40 68 l-32 33 57 112 c138 270 520 958 543 977 24 20 89 -23 138 -92
220 -312 396 -727 473 -1117 20 -103 45 -197 59 -226 26 -55 90 -135 107 -135
19 0 -15 480 -53 744 -11 76 -17 141 -14 144 7 8 101 -85 125 -124 11 -17 26
-62 34 -100 21 -97 23 -101 64 -111 32 -8 41 -17 85 -98 27 -50 53 -100 57
-112 8 -20 6 -21 -23 -17 -44 7 -157 -66 -157 -101 0 -13 5 -27 10 -30 6 -3
10 -16 10 -28 0 -12 11 -42 25 -66 14 -23 25 -47 25 -53 0 -5 -14 -29 -30 -54
-40 -57 -121 -220 -155 -309 -14 -38 -46 -107 -71 -153 -59 -110 -98 -230
-124 -381 -32 -187 -36 -302 -16 -397 17 -76 20 -81 83 -142 99 -96 93 -94
198 -71 49 11 111 32 138 46 62 34 155 134 233 248 90 133 116 183 189 365 36
91 70 169 74 173 5 5 36 -32 70 -81 173 -252 377 -407 662 -503 190 -64 253
-71 687 -75 228 -2 391 0 387 5 -3 5 -29 12 -58 16 -82 10 -107 16 -107 26 0
5 33 9 74 9 67 0 75 -2 90 -24 8 -14 37 -39 62 -57 l47 -32 64 32 c73 36 73
36 73 16 0 -18 -4 -18 67 0 73 19 128 14 301 -31 155 -40 171 -47 239 -108 43
-39 57 -46 91 -46 73 0 115 83 77 150 -32 56 -8 114 37 89 13 -7 64 -27 115
-45 66 -22 104 -42 139 -72 26 -23 51 -42 55 -42 18 0 8 -40 -18 -70 -26 -31
-26 -34 -15 -88 14 -67 36 -102 63 -102 29 0 34 -26 13 -71 -15 -35 -16 -45
-5 -77 31 -88 53 -121 90 -133 48 -16 53 -26 31 -69 l-19 -36 44 -70 c39 -62
47 -69 82 -74 l38 -5 -3 -46 c-3 -41 1 -52 43 -107 54 -72 58 -75 110 -82 40
-5 40 -5 37 -47 -3 -39 1 -45 53 -97 l56 -57 49 7 50 7 0 -40 c0 -40 2 -42 99
-135 31 -30 69 -36 115 -18 24 9 26 7 26 -16 0 -14 11 -35 25 -48 32 -30 126
-67 141 -55 6 5 27 15 47 24 l36 15 19 -43 c23 -52 33 -60 105 -87 67 -25 99
-21 138 17 31 28 34 25 43 -39 l7 -47 54 -6 c77 -10 101 -1 127 45 34 58 58
49 58 -21 0 -22 6 -32 26 -39 32 -12 126 -12 178 0 25 5 60 5 94 -1 30 -6 82
-8 114 -4 55 7 60 9 78 46 11 21 20 49 20 63 0 25 23 41 43 29 7 -3 31 -21 54
-40 41 -33 42 -33 95 -21 67 15 73 20 94 76 23 62 30 69 51 50 45 -39 61 -41
116 -12 63 32 69 40 62 80 -5 28 -2 33 24 42 24 8 38 6 81 -16 l52 -25 25 31
c13 18 31 32 38 32 30 0 48 47 40 105 -6 53 -6 55 17 55 13 -1 34 -7 48 -15
36 -20 45 -19 85 16 53 47 58 61 39 109 -23 58 -10 71 65 64 l56 -6 43 52 c47
59 49 67 26 127 -23 59 -10 73 59 66 l52 -5 23 44 c27 53 28 73 2 105 -38 49
-28 64 51 77 42 7 55 19 64 61 4 17 14 41 22 54 14 21 13 26 -6 50 -64 80 -62
96 15 121 46 15 47 16 62 75 l15 59 -37 32 c-20 17 -36 36 -36 42 0 7 18 21
39 32 42 21 55 46 65 132 l5 46 -49 32 c-62 40 -63 60 -7 97 34 23 43 35 45
64 5 58 -18 112 -56 131 -47 23 -49 26 -24 44 37 26 55 71 43 106 -6 17 -11
44 -11 59 0 29 -32 59 -84 79 -38 14 -42 36 -13 66 35 35 41 59 23 86 -9 12
-16 31 -16 41 0 29 -45 67 -81 67 -28 0 -31 3 -25 23 20 66 18 93 -11 146 -31
58 -77 91 -125 91 -32 0 -32 3 -16 64 10 40 10 46 -11 72 -12 16 -30 40 -40
53 -14 18 -31 26 -67 30 l-49 6 -3 45 c-3 38 -10 52 -50 93 -47 48 -89 67
-149 67 -33 0 -33 1 -33 48 0 47 -1 48 -52 79 -74 45 -85 47 -113 29 -32 -21
-38 -17 -59 38 -18 48 -40 66 -113 95 -43 16 -53 17 -92 5 -49 -14 -61 -11
-61 14 0 36 -31 61 -97 81 l-66 20 -29 -24 c-16 -14 -33 -25 -37 -25 -4 0 -23
16 -41 36 -62 68 -163 86 -224 39 -41 -31 -54 -31 -66 0 -12 32 -46 45 -114
45 -49 0 -56 -3 -80 -35 -29 -37 -56 -44 -75 -21 -10 12 -8 18 11 30 31 20
327 162 358 171 27 9 118 56 250 130 70 40 364 183 562 274 40 19 48 28 55 59
12 61 9 152 -9 230 -23 100 -37 124 -83 147 -22 10 -65 34 -97 52 -31 18 -68
33 -82 33 -14 0 -94 -37 -178 -81 -265 -141 -487 -249 -500 -244 -7 3 -26 25
-41 50 -53 84 -65 88 -200 81 l-118 -6 -30 33 c-16 17 -35 46 -41 64 -10 28
-14 31 -32 21 -29 -15 -170 -124 -185 -142 -7 -8 -40 -17 -79 -21 -82 -9 -127
-26 -142 -56 l-12 -22 -18 23 c-17 22 -20 23 -136 17 -126 -6 -309 -35 -594
-94 -96 -20 -283 -55 -415 -77 -238 -41 -240 -41 -249 -69 -8 -22 -21 -31 -63
-43 -65 -19 -87 -16 -91 14 -3 20 -9 22 -71 22 -81 0 -133 9 -125 21 3 5 20 9
37 9 18 1 64 7 102 14 39 7 189 34 335 60 563 99 713 127 732 137 11 6 63 15
116 20 53 5 129 16 169 25 44 10 94 15 130 12 70 -6 126 12 351 113 150 68
224 108 237 129 3 5 15 10 26 10 42 0 317 155 577 327 135 89 142 95 136 121
-13 54 -18 55 -275 48 -339 -8 -352 -20 -29 -26 151 -3 268 -8 260 -11 -8 -4
-114 -41 -235 -84 -303 -106 -695 -262 -725 -288 -14 -12 -19 -15 -12 -7 6 8
12 18 12 24 0 5 -20 -11 -45 -35 -25 -24 -45 -51 -45 -61 0 -29 -174 -227
-188 -214 -2 3 13 29 36 58 22 29 44 67 48 83 8 37 27 59 81 97 50 34 67 62
65 101 -2 16 7 44 18 62 11 18 20 39 20 47 0 8 14 27 31 44 39 37 66 87 50 92
-20 7 -12 20 17 27 55 14 121 48 136 70 9 14 30 25 53 30 21 4 43 10 48 14 6
4 188 4 405 -1 406 -8 443 -10 616 -23 108 -8 154 -3 154 18 0 26 45 55 95 62
82 12 87 24 10 25 -38 0 -80 3 -92 6 -21 6 -21 8 -7 29 14 22 14 24 -5 34 -15
9 -23 7 -36 -5 -12 -12 -19 -13 -29 -5 -9 8 -71 11 -192 9 -160 -3 -179 -5
-176 -20 2 -14 -12 -17 -90 -22 -107 -7 -551 -22 -650 -22 -52 0 -72 -4 -88
-19 -22 -20 -22 -20 -48 13 -26 31 -29 32 -105 32 -85 0 -278 -20 -777 -80
-468 -57 -1291 -138 -1530 -151 -292 -16 -567 -1 -762 41 -47 10 -238 61 -425
113 -358 101 -424 117 -477 117 -18 0 -57 7 -86 16 -46 14 -65 28 -128 95 -69
73 -185 159 -279 207 -35 18 -41 26 -46 64 -23 159 -102 241 -232 241 -73 0
-126 -24 -178 -82 -47 -52 -69 -96 -102 -203 -26 -87 -27 -88 -58 -88 -50 0
-105 19 -111 38 -24 89 -11 135 48 171 34 21 76 93 76 130 0 10 6 24 13 30 8
6 22 28 31 49 l18 39 36 -18 c68 -34 143 -43 228 -28 73 13 77 15 95 51 10 20
19 45 19 54 0 12 6 15 26 10 33 -9 99 28 124 70 41 66 15 130 -65 157 -24 9
-60 31 -79 50 -19 19 -56 43 -83 52 -26 10 -67 26 -90 36 l-42 17 6 56 c4 42
2 61 -11 81 -17 26 -16 29 20 105 30 66 48 89 108 140 l71 62 100 -7 100 -6
27 28 c64 66 136 292 123 384 -4 27 -16 60 -27 74 -16 21 -27 24 -65 22 l-45
-2 -18 52 c-9 29 -23 59 -30 68 -15 18 -62 18 -114 -1z m238 -269 c-3 -168
-62 -315 -128 -315 -51 0 -58 9 -31 44 22 28 75 210 75 256 0 30 21 90 37 105
8 9 23 15 32 13 14 -3 16 -18 15 -103z m-484 -401 c0 -4 -20 -49 -45 -102 -25
-52 -45 -101 -45 -108 0 -8 -4 -14 -10 -14 -30 0 21 162 67 212 16 18 33 24
33 12z m-477 -352 c-4 -38 -13 -65 -27 -81 -24 -26 -106 -85 -106 -76 0 4 18
37 40 74 22 37 40 70 40 74 0 15 43 76 50 72 5 -3 6 -31 3 -63z m-5 -201 c2
-30 -2 -49 -14 -62 -17 -19 -211 -85 -221 -75 -3 3 0 13 8 22 24 30 204 164
214 161 6 -2 11 -23 13 -46z m-681 -116 c-4 -8 -14 -15 -23 -15 -16 0 -16 2 1
20 20 22 31 20 22 -5z m687 -68 c21 -28 21 -29 2 -43 -20 -14 -136 -20 -136
-7 0 4 17 24 37 45 44 45 67 46 97 5z m-818 -65 c-23 -44 -44 -62 -74 -62 -25
0 -24 3 28 55 56 57 73 59 46 7z m37 3 c-3 -9 -8 -14 -10 -11 -3 3 -2 9 2 15
9 16 15 13 8 -4z m827 -154 c0 -5 -7 -14 -15 -21 -12 -10 -15 -10 -15 2 0 8 3
18 7 21 9 10 23 9 23 -2z m125 -25 c17 -13 17 -15 -11 -57 -16 -24 -37 -45
-47 -47 -14 -3 -17 5 -17 51 0 29 3 57 7 60 11 12 48 8 68 -7z m485 -35 c48
-34 71 -81 68 -134 l-3 -49 -64 -23 c-35 -13 -68 -28 -73 -33 -6 -6 -13 -31
-15 -56 l-6 -46 -51 0 c-70 1 -135 15 -153 33 -13 13 -14 23 -3 69 17 73 72
188 103 216 56 52 143 62 197 23z m-835 -71 c3 -5 -1 -10 -9 -10 -9 0 -16 5
-16 10 0 6 4 10 9 10 6 0 13 -4 16 -10z m105 -66 c0 -29 -257 -501 -267 -490
-6 6 250 506 260 506 4 0 7 -7 7 -16z m-347 -34 c-3 -12 -8 -19 -11 -16 -5 6
5 36 12 36 2 0 2 -9 -1 -20z m-193 -170 c0 -5 -5 -10 -11 -10 -5 0 -7 5 -4 10
3 6 8 10 11 10 2 0 4 -4 4 -10z m6 -140 c10 -39 11 -67 5 -77 -7 -13 -14 -1
-31 55 -12 40 -19 80 -16 89 11 27 27 1 42 -67z m64 19 c0 -6 -4 -7 -10 -4 -5
3 -10 11 -10 16 0 6 5 7 10 4 6 -3 10 -11 10 -16z m-133 -79 c8 -19 26 -51 39
-72 l25 -36 -27 -43 -27 -43 -18 22 c-24 31 -59 127 -61 168 -1 18 7 45 17 60
l18 28 10 -24 c5 -14 16 -41 24 -60z m-222 -79 c-40 -79 -90 -106 -150 -81
l-20 8 20 7 c49 17 71 33 99 73 20 29 37 42 53 42 l23 0 -25 -49z m7595 30 c0
-10 -58 -21 -112 -21 -36 0 -47 8 -31 23 10 10 143 8 143 -2z m-194 -16 c18
-13 16 -14 -23 -15 -23 0 -44 4 -47 9 -15 24 40 29 70 6z m-131 -4 c-36 -15
-115 -23 -115 -12 0 12 30 18 90 19 32 1 39 -2 25 -7z m-7122 -91 c25 -49 40
-90 34 -90 -22 0 -147 53 -147 63 0 10 59 117 65 117 2 0 24 -40 48 -90z
m6967 80 c0 -5 -7 -10 -15 -10 -8 0 -15 5 -15 10 0 6 7 10 15 10 8 0 15 -4 15
-10z m-5255 -89 c-6 -5 -70 -48 -144 -96 -74 -48 -193 -130 -265 -183 -204
-149 -226 -164 -226 -159 0 5 218 181 373 301 87 68 102 86 70 86 -10 0 -142
-31 -293 -69 -151 -37 -277 -67 -278 -65 -8 6 137 105 196 134 90 45 100 31
14 -19 -65 -38 -89 -61 -63 -61 5 0 101 23 212 51 187 47 364 86 399 88 8 1
10 -2 5 -8z m-2135 -65 c143 -41 138 -50 -24 -42 -77 3 -180 6 -229 6 -50 0
-88 3 -85 6 9 9 221 63 233 60 6 -2 53 -15 105 -30z m2675 -80 l30 -13 -45
-12 c-25 -7 -144 -38 -265 -71 -255 -67 -369 -94 -387 -88 -25 9 375 141 537
178 97 22 93 22 130 6z m93 -2 c12 -4 22 -11 22 -16 0 -10 -39 -1 -54 13 -12
11 -1 11 32 3z m3372 -58 c0 -2 -34 -16 -75 -30 -59 -22 -78 -34 -93 -61 -20
-33 -24 -35 -205 -101 -51 -18 -147 -96 -147 -119 0 -8 9 -17 21 -20 11 -4 18
-9 15 -12 -3 -3 -27 2 -53 12 l-48 17 -213 -62 c-118 -34 -216 -59 -220 -56
-3 3 2 6 11 6 9 0 17 5 17 10 0 6 -12 10 -26 10 l-26 0 21 34 c26 42 26 46 0
46 -28 0 -84 -44 -109 -87 -21 -36 -52 -42 -58 -12 -4 23 91 117 140 139 55
23 998 288 1036 289 6 1 12 -1 12 -3z m-5851 -83 c-14 -26 -14 -26 -17 -4 -5
34 6 57 20 43 9 -9 8 -18 -3 -39z m61 23 c0 -3 -4 -8 -10 -11 -5 -3 -10 -1
-10 4 0 6 5 11 10 11 6 0 10 -2 10 -4z m680 1 c0 -2 -19 -21 -42 -42 -41 -38
-41 -38 -13 -5 34 40 55 57 55 47z m-220 -321 c-23 -36 -44 -66 -46 -66 -6 0
35 80 58 113 39 54 29 18 -12 -47z m1619 22 c298 -169 617 -365 608 -375 -9
-8 -131 62 -399 228 -134 83 -252 158 -263 165 -36 26 -3 14 54 -18z m-2312
-3 c38 -15 71 -29 75 -33 9 -9 -79 -184 -294 -592 -184 -348 -194 -364 -216
-354 -9 4 -34 9 -54 12 -34 4 -39 1 -55 -28 -26 -46 -50 -76 -57 -69 -9 9 39
118 238 535 193 403 271 554 286 554 5 0 40 -11 77 -25z m5809 8 c-3 -4 -48
-8 -99 -9 -55 -1 -84 2 -72 6 24 10 181 13 171 3z m-5697 -222 c-17 -34 -34
-59 -36 -57 -2 2 10 32 27 66 17 34 34 60 37 57 3 -3 -10 -33 -28 -66z m7696
50 c6 -11 -63 -36 -72 -27 -9 9 28 35 49 36 9 0 19 -4 23 -9z m-2620 -71 c-3
-5 -14 -10 -23 -10 -15 0 -15 2 -2 10 20 13 33 13 25 0z m1100 -31 c22 -22 48
-45 57 -50 12 -6 61 1 153 21 l137 30 71 -21 c83 -24 113 -45 96 -66 -23 -27
-517 -275 -766 -383 -57 -25 -58 -27 -68 -94 -4 -25 -11 -49 -16 -52 -5 -3 -9
-18 -9 -33 0 -15 -5 -32 -11 -38 -7 -7 -12 -22 -13 -34 -1 -17 -22 -34 -96
-74 -207 -114 -901 -466 -909 -461 -4 3 -13 31 -20 62 l-13 56 35 29 c22 18
46 55 68 106 19 43 68 147 111 230 42 84 73 155 68 158 -5 3 -157 -6 -337 -20
-439 -35 -492 -35 -678 4 -82 17 -167 35 -187 41 -35 10 -327 200 -438 286
-56 43 -139 124 -128 124 4 0 60 -31 125 -69 65 -38 128 -71 139 -75 24 -7
228 22 414 61 150 31 147 31 235 4 90 -28 263 -40 562 -41 174 0 235 3 242 13
84 104 122 144 161 163 45 22 275 71 557 119 129 22 158 24 197 14 25 -6 46
-13 46 -16 0 -15 -150 -122 -286 -203 -103 -62 -416 -272 -411 -276 5 -6 89
40 162 88 91 60 463 294 541 341 34 21 65 44 68 53 6 15 60 43 86 43 8 1 33
-18 55 -40z m1585 9 c12 -22 12 -30 2 -40 -10 -10 -17 -10 -32 0 -27 16 -30
15 -30 -8 0 -27 -16 -25 -36 5 -18 28 -10 48 16 40 13 -4 20 0 25 15 9 28 35
22 55 -12z m-7170 -8 c0 -11 -4 -20 -10 -20 -5 0 -10 9 -10 20 0 11 5 20 10
20 6 0 10 -9 10 -20z m4155 -10 c-3 -5 -13 -10 -21 -10 -8 0 -12 5 -9 10 3 6
13 10 21 10 8 0 12 -4 9 -10z m-4632 -17 c-3 -10 -90 -178 -191 -373 -102
-195 -238 -458 -304 -585 -65 -126 -123 -234 -128 -239 -5 -5 -13 -6 -17 -2
-4 4 27 76 69 159 82 160 422 794 514 960 52 92 71 119 57 80z m1147 12 c0 -3
-18 -12 -40 -21 -42 -17 -80 -60 -80 -90 0 -9 19 -34 41 -55 l42 -38 -29 -12
c-16 -6 -82 -24 -147 -41 -179 -46 -233 -29 -357 113 -102 115 -102 120 -2 32
122 -107 174 -133 266 -133 76 0 141 14 152 32 4 6 -4 21 -18 33 -26 22 -48
56 -48 73 0 24 59 64 129 87 81 26 91 28 91 20z m1840 -35 c0 -5 25 -26 55
-46 30 -20 55 -39 55 -41 0 -3 -32 13 -72 34 -74 40 -96 63 -59 63 12 0 21 -4
21 -10z m-3164 -24 c-10 -40 -454 -901 -461 -894 -9 8 29 137 55 189 45 88
381 702 392 717 16 19 21 14 14 -12z m1969 -61 c-42 -18 -81 -29 -73 -20 8 8
79 34 93 34 6 0 -3 -6 -20 -14z m-176 -41 c31 -14 97 -52 148 -85 50 -32 96
-59 102 -59 6 0 11 -5 11 -10 0 -19 -102 1 -164 33 -54 26 -216 143 -216 155
0 9 66 -9 119 -34z m988 -30 c5 -14 -132 -78 -151 -71 -29 12 -17 24 57 55 73
31 88 34 94 16z m-1048 -55 c30 -24 13 -24 -34 -2 -19 9 -35 23 -35 30 0 16
26 5 69 -28z m-164 -9 c-4 -6 -85 -49 -181 -95 -106 -51 -174 -90 -174 -99 0
-19 94 -102 202 -179 48 -33 85 -63 83 -65 -22 -22 -405 231 -405 268 0 10 38
26 270 111 187 69 216 78 205 59z m1392 -79 c60 -48 98 -89 90 -97 -3 -3 -21
-1 -39 4 -18 6 -66 16 -105 23 -67 11 -73 14 -73 36 0 25 43 73 66 73 7 0 34
-17 61 -39z m-1210 -18 c35 -27 62 -39 102 -44 58 -8 201 -59 201 -71 0 -4
-15 -15 -32 -24 -26 -14 -62 -17 -167 -18 l-135 -1 -12 60 c-23 117 -25 135
-15 135 5 0 31 -17 58 -37z m5368 17 c0 -7 -6 -15 -12 -17 -8 -3 -13 4 -13 17
0 13 5 20 13 18 6 -3 12 -11 12 -18z m-4799 -9 c17 -10 41 -22 55 -26 13 -4
51 -27 84 -50 33 -23 151 -97 263 -166 219 -133 272 -172 255 -182 -14 -9
-603 346 -704 424 -22 17 -23 19 -4 19 11 0 34 -8 51 -19z m681 -126 c27 -8
58 -25 69 -37 18 -20 18 -21 0 -15 -10 4 -71 17 -135 28 -64 11 -120 25 -125
30 -16 15 135 10 191 -6z m-637 -22 c0 -5 -7 -17 -15 -27 -8 -11 -15 -28 -15
-39 0 -10 -4 -15 -10 -12 -15 10 -12 46 7 67 16 18 33 24 33 11z m3710 -13 c0
-5 -4 -10 -10 -10 -5 0 -10 5 -10 10 0 6 5 10 10 10 6 0 10 -4 10 -10z m-63
-36 c-3 -3 -12 -4 -19 -1 -8 3 -5 6 6 6 11 1 17 -2 13 -5z m-3834 -19 c-4 -15
-76 -12 -81 3 -3 10 7 12 39 10 24 -2 43 -7 42 -13z m1576 -94 c7 -5 17 -26
21 -47 5 -22 12 -50 16 -64 7 -22 6 -24 -9 -12 -20 17 -77 105 -77 120 0 14
29 16 49 3z m2401 4 c0 -2 -18 -14 -40 -25 -44 -23 -56 -9 -12 14 27 15 52 20
52 11z m-3938 -49 c12 -16 15 -34 11 -64 -9 -69 -32 -47 -48 46 -8 49 9 57 37
18z m210 0 c79 -17 116 -35 169 -83 40 -37 46 -56 33 -122 -9 -41 -18 -39 -30
6 -6 26 -22 46 -54 70 -76 55 -73 54 -112 27 -45 -32 -73 -21 -88 36 -6 21
-15 42 -21 45 -12 8 7 35 25 35 6 0 41 -7 78 -14z m288 -44 c0 -5 -7 -17 -15
-28 -15 -19 -15 -19 -30 0 -22 29 -19 36 15 36 17 0 30 -4 30 -8z m-711 -34
c10 -33 24 -121 36 -230 5 -48 3 -60 -13 -76 -26 -26 -91 -38 -107 -20 -18 18
-45 119 -45 165 0 44 36 126 73 166 34 35 43 34 56 -5z m861 -55 c0 -9 -17
-13 -60 -13 -34 0 -60 4 -60 10 0 6 12 29 26 52 l27 42 33 -39 c19 -21 34 -44
34 -52z m3120 -60 c0 -3 -17 -22 -39 -42 -28 -27 -40 -47 -45 -78 -5 -36 -10
-43 -29 -43 -13 0 -32 7 -43 15 -28 21 -44 18 -98 -21 -46 -34 -48 -38 -42
-72 10 -63 -23 -86 -91 -66 l-45 14 -44 -45 c-35 -36 -44 -52 -44 -80 0 -19
-4 -35 -8 -35 -5 0 -84 -49 -177 -110 l-168 -110 -68 0 c-110 0 -106 34 11
108 71 45 83 57 104 105 l24 55 148 78 c328 172 639 333 647 334 4 0 7 -3 7
-7z m-3058 -61 c8 -8 2 -19 -20 -41 -17 -17 -35 -31 -40 -31 -6 0 -20 16 -32
35 -12 20 -30 35 -40 35 -10 0 -22 5 -26 11 -9 15 142 7 158 -9z m-1183 -192
c9 -26 7 -32 -12 -44 -28 -18 -67 -29 -67 -20 0 11 54 94 62 94 3 0 11 -14 17
-30z m2845 -42 c3 -13 9 -58 12 -100 6 -67 5 -78 -9 -78 -21 0 -57 47 -57 74
0 12 -8 32 -17 45 -16 24 -16 25 17 53 41 34 46 34 54 6z m-6014 -17 c0 -31
-77 -280 -91 -296 -5 -5 -9 -6 -9 -3 0 3 -11 50 -25 104 -14 55 -28 127 -32
162 l-6 62 82 0 81 0 0 -29z m-210 -1 c6 -11 30 -100 54 -197 l43 -178 -18
-52 c-32 -93 -32 -94 -74 -18 -62 111 -195 398 -195 422 0 17 7 24 28 29 15 3
32 7 37 9 6 2 33 4 62 4 43 1 54 -3 63 -19z m394 7 c33 -7 64 -19 69 -28 7
-12 -1 -39 -30 -105 -167 -375 -227 -504 -233 -504 -4 0 -22 57 -39 128 l-32
127 52 155 c49 149 70 201 91 228 13 15 46 15 122 -1z m-602 -90 c33 -53 192
-372 218 -436 18 -48 18 -49 -2 -119 l-21 -71 -51 -12 c-28 -6 -78 -22 -110
-35 -33 -13 -63 -24 -67 -24 -11 0 -30 56 -113 327 -108 352 -112 383 -52 383
17 0 24 -9 34 -45 14 -51 40 -71 67 -51 18 13 18 16 2 58 -22 57 -21 67 6 77
32 12 59 -4 89 -52z m813 30 c52 -19 60 -26 59 -47 -1 -25 -25 -125 -45 -190
-12 -40 -202 -404 -229 -440 l-18 -23 -73 24 c-62 20 -74 27 -72 45 2 20 196
481 235 558 30 59 58 96 71 95 7 0 39 -10 72 -22z m5203 -31 c2 -10 -1 -23 -7
-29 -16 -16 -34 6 -26 33 8 24 28 22 33 -4z m-1118 10 c0 -3 -4 -8 -10 -11 -5
-3 -10 -1 -10 4 0 6 5 11 10 11 6 0 10 -2 10 -4z m1650 -46 c0 -5 -2 -10 -4
-10 -3 0 -8 5 -11 10 -3 6 -1 10 4 10 6 0 11 -4 11 -10z m-6820 -46 c35 -81
184 -584 174 -584 -10 0 -181 120 -216 152 -29 26 -46 57 -81 153 -59 159 -73
221 -57 240 16 19 130 85 148 85 7 0 22 -21 32 -46z m6540 -4 c12 -22 18 -19
-108 -45 -102 -21 -120 -20 -134 10 -21 46 0 55 123 55 98 0 109 -2 119 -20z
m-5059 -147 c-35 -71 -108 -213 -163 -318 -56 -104 -157 -296 -225 -425 -117
-220 -150 -276 -160 -266 -4 4 68 144 332 641 202 381 269 504 274 499 2 -2
-24 -61 -58 -131z m-1934 35 c-30 -35 -79 -88 -108 -118 -59 -60 -182 -238
-229 -331 -51 -99 -91 -209 -126 -344 -23 -87 -33 -113 -29 -78 3 29 18 97 34
150 82 283 196 477 402 686 53 53 100 97 103 97 4 0 -18 -28 -47 -62z m5423
42 c0 -5 -6 -10 -14 -10 -8 0 -18 5 -21 10 -3 6 3 10 14 10 12 0 21 -4 21 -10z
m-3270 -87 c0 -8 -9 0 -50 45 l-45 47 48 -45 c26 -24 47 -45 47 -47z m7357 64
c8 -8 17 -42 20 -76 l6 -62 -119 3 -119 3 4 30 c4 34 25 81 50 109 13 15 26
17 80 13 36 -3 69 -11 78 -20z m-9265 -48 c32 -62 91 -220 85 -226 -7 -6 -220
151 -231 170 -9 16 -3 26 44 68 30 27 59 48 65 46 5 -2 22 -28 37 -58z m9034
34 c-3 -16 -8 -47 -11 -70 l-7 -43 -64 0 -64 0 0 38 c0 74 29 99 113 101 37 1
38 0 33 -26z m409 -5 c29 -16 35 -28 35 -80 l0 -48 -74 0 c-74 0 -74 0 -81 30
-3 16 -3 50 1 75 l7 47 46 -7 c25 -4 55 -12 66 -17z m370 2 c3 -5 1 -10 -4
-10 -6 0 -11 5 -11 10 0 6 2 10 4 10 3 0 8 -4 11 -10z m-966 -41 c21 -62 17
-69 -42 -69 -59 0 -97 20 -97 51 0 10 1 19 3 19 1 0 20 7 42 15 63 23 82 19
94 -16z m1100 -39 c119 -80 235 -191 326 -311 87 -116 195 -323 178 -340 -21
-21 -39 -2 -100 103 -34 58 -89 141 -122 185 -74 99 -244 263 -340 328 -39 27
-71 54 -71 60 0 12 20 35 31 35 4 0 48 -27 98 -60z m-2339 45 c0 -8 -63 -45
-75 -45 -14 1 47 50 63 50 6 0 12 -2 12 -5z m890 -31 c0 -14 -71 -74 -143
-122 -32 -21 -40 -23 -48 -11 -5 8 -9 20 -9 26 0 16 46 57 117 105 43 28 60
34 70 26 7 -6 13 -17 13 -24z m1123 5 c39 -21 43 -29 27 -60 -11 -20 -42 -24
-99 -13 -34 7 -40 29 -21 79 11 29 23 28 93 -6z m-4117 -27 c-21 -5 -106 26
-106 38 0 5 28 -1 63 -13 38 -13 55 -23 43 -25z m-3734 21 c10 -9 18 -19 18
-22 0 -11 -100 -84 -106 -78 -6 6 56 117 65 117 2 0 13 -7 23 -17z m5121 -61
c16 -26 39 -60 52 -77 l24 -29 42 23 41 23 26 -25 c23 -23 24 -29 14 -53 -9
-18 -17 -24 -29 -19 -10 3 -69 13 -133 21 -63 8 -151 20 -195 27 l-80 12 -3
47 c-4 56 2 61 113 82 99 20 97 20 128 -32z m1782 38 c4 -6 -11 -10 -37 -10
-31 0 -39 3 -28 10 20 13 57 13 65 0z m-1517 -42 c-4 -27 -23 -34 -32 -13 -8
21 1 35 20 35 10 0 14 -8 12 -22z m-7228 -63 c201 -137 192 -128 223 -212 15
-42 26 -78 23 -80 -5 -5 -241 95 -382 163 -109 52 -122 65 -102 96 27 40 97
108 113 108 8 0 64 -34 125 -75z m9854 52 c22 -12 41 -28 44 -34 2 -7 -15 -30
-38 -50 -47 -43 -281 -213 -292 -213 -17 0 -5 23 61 122 82 123 147 198 169
198 10 0 35 -10 56 -23z m-7889 -49 c66 -73 70 -84 43 -102 -13 -8 -103 -54
-200 -102 -149 -73 -180 -85 -193 -74 -10 8 -13 21 -9 34 11 37 98 188 120
209 29 28 144 87 171 87 13 0 39 -19 68 -52z m-1061 -105 c31 -121 31 -123 8
-123 -13 0 -28 21 -51 69 l-34 68 18 53 c9 28 21 48 25 43 5 -4 20 -54 34
-110z m8729 37 c-9 -17 -28 -43 -40 -58 l-22 -27 -1 33 c0 34 39 82 67 82 11
0 11 -6 -4 -30z m357 15 c10 -13 10 -23 -5 -55 -23 -50 -14 -60 26 -31 67 49
88 1 38 -87 -55 -97 -251 -383 -267 -389 -15 -6 -31 10 -174 172 -65 74 -74
109 -35 146 12 11 76 60 142 108 208 151 247 170 275 136z m-457 -97 c-10
-108 -82 -214 -98 -145 -12 54 -25 188 -20 197 3 6 33 10 65 10 l60 0 -7 -62z
m-148 42 c3 -5 9 -49 12 -96 l6 -87 -24 6 c-13 3 -43 12 -66 21 -24 9 -88 19
-143 22 -56 4 -104 12 -110 19 -6 7 -5 29 3 61 12 48 13 49 57 55 77 10 258
10 265 -1z m-357 -41 c-4 -30 -24 -35 -37 -10 -9 15 -7 23 5 36 20 20 37 7 32
-26z m-9221 2 c43 -15 163 -66 266 -111 l188 -83 25 -48 c13 -27 24 -56 24
-64 0 -27 -130 -216 -143 -208 -61 35 -380 239 -447 284 -136 94 -127 78 -91
146 32 61 75 113 91 113 5 0 44 -13 87 -29z m2281 -18 c28 -40 72 -130 72
-147 0 -8 -22 -35 -49 -61 -56 -53 -239 -195 -252 -195 -12 0 -89 119 -89 137
0 7 -6 13 -13 13 -21 0 -100 87 -92 100 12 20 356 179 387 180 9 0 25 -12 36
-27z m6862 -3 c19 -45 8 -60 -44 -60 -83 0 -97 20 -45 64 42 35 73 34 89 -4z
m-8115 -10 c21 -41 19 -50 -15 -50 -33 0 -37 11 -20 54 12 33 16 33 35 -4z
m6255 -11 c0 -6 -4 -7 -10 -4 -5 3 -10 11 -10 16 0 6 5 7 10 4 6 -3 10 -11 10
-16z m-6754 -55 c44 -31 89 -66 102 -78 l23 -23 -26 -17 c-25 -16 -27 -16 -88
16 -59 31 -63 36 -84 96 -12 34 -19 62 -14 62 5 0 44 -25 87 -56z m4035 5 c10
-24 21 -57 26 -74 6 -21 21 -36 48 -50 42 -22 79 -82 92 -148 l6 -32 -43 40
c-53 51 -159 190 -177 234 -11 26 -12 40 -4 58 15 34 33 24 52 -28z m3939 41
c0 -5 -5 -10 -11 -10 -5 0 -7 5 -4 10 3 6 8 10 11 10 2 0 4 -4 4 -10z m1838
-8 c24 -16 62 -76 62 -101 0 -18 -34 -59 -132 -157 -72 -73 -145 -140 -162
-148 -49 -23 -86 -30 -86 -16 0 27 276 430 294 430 6 0 17 -4 24 -8z m-2888
-72 c0 -34 -14 -39 -29 -12 -7 13 -6 23 1 30 19 19 28 14 28 -18z m-6450 -8
c0 -5 -13 -21 -30 -37 -23 -22 -30 -25 -30 -12 0 9 9 26 20 37 21 21 40 26 40
12z m202 -24 c-6 -6 -15 -8 -19 -4 -4 4 -1 11 7 16 19 12 27 3 12 -12z m7317
-64 l76 -76 -47 7 c-99 13 -183 39 -186 58 -5 23 44 87 65 87 8 0 50 -34 92
-76z m115 67 c25 -5 36 -19 68 -81 21 -41 38 -78 38 -82 0 -5 -14 -8 -31 -8
-26 0 -47 15 -116 82 -70 69 -81 84 -66 90 22 8 67 8 107 -1z m-1034 -27 c0
-8 -4 -12 -10 -9 -5 3 -10 10 -10 16 0 5 5 9 10 9 6 0 10 -7 10 -16z m-6818
-26 c-15 -15 -26 -4 -18 18 5 13 9 15 18 6 9 -9 9 -15 0 -24z m-876 -59 c207
-125 437 -280 428 -288 -5 -5 -74 -14 -153 -21 l-143 -12 -57 29 c-101 52
-195 111 -237 147 -41 35 -42 37 -33 77 16 72 50 139 69 139 4 0 61 -32 126
-71z m1942 10 c28 -33 52 -68 52 -77 0 -10 -25 -62 -54 -117 -42 -78 -58 -99
-73 -97 -27 6 -42 21 -65 66 -11 23 -31 56 -44 73 l-25 33 44 77 c40 70 72
102 102 103 6 0 34 -27 63 -61z m6953 -26 c16 -23 29 -46 29 -52 0 -37 -58 27
-86 95 l-16 39 22 -20 c12 -11 35 -39 51 -62z m1679 25 c16 -29 30 -58 30 -64
0 -14 -50 -35 -187 -79 -66 -21 -103 -28 -103 -21 0 17 208 216 226 216 2 0
17 -24 34 -52z m-9929 21 c20 -10 20 -11 3 -30 -17 -19 -19 -19 -31 -3 -27 37
-12 55 28 33z m1859 -46 c12 -32 24 -72 27 -89 5 -29 2 -31 -64 -62 -64 -29
-247 -102 -257 -102 -7 0 -46 66 -46 77 0 19 286 233 311 233 4 0 17 -26 29
-57z m3570 10 c0 -7 -4 -13 -10 -13 -5 0 -10 12 -10 28 0 21 2 24 10 12 5 -8
10 -21 10 -27z m-5230 7 c0 -5 -2 -10 -4 -10 -3 0 -8 5 -11 10 -3 6 -1 10 4
10 6 0 11 -4 11 -10z m275 -20 c6 -10 -31 -90 -41 -90 -11 0 -84 61 -84 70 0
5 19 13 43 18 57 13 75 14 82 2z m-419 -57 c-10 -67 -16 -84 -28 -77 -6 4 -8
26 -4 57 8 56 12 67 28 67 7 0 8 -17 4 -47z m502 15 c2 -20 -5 -32 -31 -52
-19 -14 -37 -26 -40 -26 -13 0 -7 31 14 71 23 46 52 50 57 7z m7400 11 c110
-21 170 -47 180 -78 4 -11 -5 -12 -44 -6 -66 9 -314 64 -326 71 -17 11 14 34
46 34 17 0 82 -9 144 -21z m-7694 -42 c14 -10 17 -21 11 -45 -12 -55 -36 -52
-51 5 -7 25 1 53 14 53 4 0 16 -6 26 -13z m7944 -12 c26 -7 29 -23 6 -32 -10
-3 -26 5 -42 22 -29 29 -29 29 36 10z m-6784 -37 c29 -48 28 -50 -47 -110 -46
-36 -97 -51 -97 -28 0 28 93 180 110 180 5 0 20 -19 34 -42z m7606 2 c-8 -5
-24 -10 -35 -10 -19 1 -18 2 4 21 17 14 27 17 35 9 8 -8 7 -14 -4 -20z m-8649
-1 c45 -23 47 -41 3 -50 -16 -3 -41 -13 -56 -23 -14 -9 -28 -13 -31 -9 -7 12
22 103 34 103 5 0 28 -9 50 -21z m9629 -31 c11 -24 20 -53 20 -65 0 -23 -1
-23 -137 -22 -156 1 -288 11 -300 23 -14 13 25 33 110 56 123 33 198 48 245
49 41 1 44 -1 62 -41z m-4394 11 c12 -20 -11 -29 -56 -20 -43 8 -44 9 -20 19
33 14 67 15 76 1z m-721 -39 c38 -7 21 -8 -75 -6 -124 4 -172 12 -151 25 11 7
141 -4 226 -19z m-5707 5 c53 -19 222 -113 222 -125 0 -9 -205 -24 -260 -18
-34 3 -35 4 -38 54 -3 50 10 104 25 104 5 0 27 -7 51 -15z m742 -31 c9 -26 9
-39 1 -47 -15 -15 -22 -5 -28 42 -7 52 11 55 27 5z m1989 -1 c6 -21 12 -58 13
-83 l3 -45 -95 1 c-107 1 -260 22 -260 36 0 5 25 21 56 35 63 29 243 93 261
93 7 0 17 -17 22 -37z m-1433 18 c-8 -12 -46 -21 -46 -11 0 9 18 18 38 19 7 1
11 -3 8 -8z m5024 -16 c0 -20 5 -25 25 -25 15 0 39 7 55 15 19 10 31 11 35 5
8 -14 -13 -40 -32 -40 -7 0 -36 -11 -64 -25 -27 -14 -93 -40 -147 -57 -53 -17
-127 -46 -164 -64 -91 -46 -108 -45 -108 5 0 37 2 39 45 51 25 7 48 16 50 21
3 4 55 24 116 44 72 24 123 48 143 66 38 35 46 36 46 4z m-4424 -20 c18 -15
18 -15 -10 -13 -16 2 -31 9 -34 16 -5 17 20 15 44 -3z m404 -11 c14 -36 -3
-54 -49 -54 -63 0 -69 14 -21 49 52 38 58 38 70 5z m-1385 -4 c3 -5 -1 -10
-10 -10 -9 0 -13 5 -10 10 3 6 8 10 10 10 2 0 7 -4 10 -10z m8975 0 c0 -13
-20 -13 -40 0 -12 8 -9 10 13 10 15 0 27 -4 27 -10z m860 -41 c124 -18 155
-55 74 -89 -49 -21 -51 -40 -4 -40 43 0 60 -10 60 -35 0 -17 -11 -28 -42 -43
-79 -38 -436 -144 -443 -132 -3 4 -9 39 -15 76 -11 80 -22 118 -52 191 -21 52
-21 53 -2 74 18 21 24 21 184 15 91 -4 199 -11 240 -17z m-7906 -269 c1 -190
-2 -227 -22 -319 -65 -289 -195 -530 -402 -745 -93 -96 -114 -113 -190 -148
-127 -60 -135 -61 -202 -37 -32 11 -62 18 -68 14 -19 -12 -50 17 -103 98 -125
189 -204 357 -169 357 22 0 361 -317 408 -381 20 -27 40 -47 45 -43 5 3 9 22
9 43 0 29 -5 40 -22 48 -29 14 -96 71 -290 251 -155 142 -158 146 -158 186 0
39 4 44 66 91 90 68 90 68 116 51 13 -8 38 -17 56 -21 30 -6 33 -4 43 24 13
37 19 38 46 9 30 -32 267 -387 281 -421 18 -43 16 -48 -48 -102 -62 -52 -74
-81 -45 -105 20 -17 68 15 156 102 168 166 306 372 353 531 13 43 13 48 -1 43
-13 -5 -14 0 -8 31 8 42 21 63 40 63 20 0 27 31 10 50 -21 23 -19 31 20 90 42
63 55 143 56 360 0 115 3 140 11 120 8 -16 12 -104 12 -240z m4296 245 c39
-20 38 -26 -2 -14 -18 5 -34 9 -35 9 -2 0 -3 5 -3 10 0 13 6 13 40 -5z m732
-15 c5 -33 -6 -28 -17 8 -3 12 -2 22 3 22 5 0 12 -14 14 -30z m-6883 -12 c-2
-50 -13 -91 -25 -95 -6 -2 -21 19 -33 47 -26 59 -18 80 30 80 26 0 29 -3 28
-32z m-392 5 c9 -23 -37 -60 -86 -68 -33 -5 -49 -2 -91 21 -27 15 -50 31 -50
35 0 4 35 10 78 14 42 3 86 7 97 9 41 7 46 6 52 -11z m1473 13 c0 -3 -4 -8
-10 -11 -5 -3 -10 -1 -10 4 0 6 5 11 10 11 6 0 10 -2 10 -4z m89 -21 c-13 -7
-35 -16 -49 -20 -25 -8 -25 -7 -6 13 18 21 53 32 70 24 5 -3 -2 -10 -15 -17z
m-1274 -25 c22 -42 19 -44 -25 -19 -40 23 -46 30 -33 42 15 16 44 5 58 -23z
m1449 -1 c5 -14 6 -47 2 -74 l-8 -47 -38 6 c-60 9 -200 56 -200 66 0 7 28 19
170 73 33 13 65 2 74 -24z m-1967 -15 c31 -20 52 -39 47 -44 -22 -21 -461
-143 -497 -138 -21 3 -22 8 -22 80 1 45 6 82 13 91 17 20 170 41 335 45 62 2
73 -1 124 -34z m2196 11 c136 -21 175 -32 187 -55 11 -21 13 -91 4 -139 -9
-42 -24 -41 -211 11 l-153 43 0 77 0 78 35 0 c19 0 81 -7 138 -15z m5052 -5
c4 -6 -5 -10 -19 -10 -14 0 -26 5 -26 10 0 6 9 10 19 10 11 0 23 -4 26 -10z
m-1819 -36 c18 -35 19 -34 -18 -34 -33 0 -130 40 -141 57 -3 4 29 7 70 6 70
-2 76 -4 89 -29z m3661 9 c88 -18 125 -39 53 -30 -52 7 -173 45 -148 46 10 1
52 -6 95 -16z m-8758 -75 c6 -15 6 -30 1 -33 -11 -7 -47 52 -55 90 l-6 30 25
-30 c14 -16 30 -42 35 -57z m169 42 c34 -22 62 -44 62 -49 0 -20 -67 -96 -93
-105 -23 -8 -31 -6 -50 12 -18 19 -22 33 -20 82 1 57 15 100 32 100 4 0 36
-18 69 -40z m5012 15 c0 -8 -7 -15 -15 -15 -16 0 -20 12 -8 23 11 12 23 8 23
-8z m-5302 -17 c-7 -19 -38 -22 -38 -4 0 10 9 16 21 16 12 0 19 -5 17 -12z
m9022 -7 c0 -12 -20 -25 -27 -18 -7 7 6 27 18 27 5 0 9 -4 9 -9z m90 -13 c10
-6 3 -7 -20 -2 -19 3 -39 10 -45 16 -12 11 42 0 65 -14z m-9176 -11 c22 -12
42 -29 47 -37 4 -8 12 -60 17 -115 6 -55 13 -107 17 -117 8 -20 -1 -23 -132
-43 -351 -52 -512 -65 -531 -42 -9 11 -32 134 -32 172 0 26 107 69 335 135
116 34 215 63 220 65 17 6 19 5 59 -18z m506 13 c0 -5 -4 -10 -10 -10 -5 0
-10 5 -10 10 0 6 5 10 10 10 6 0 10 -4 10 -10z m8995 -10 c3 -5 1 -10 -4 -10
-6 0 -11 5 -11 10 0 6 2 10 4 10 3 0 8 -4 11 -10z m-1687 -65 c4 -4 -4 -5 -18
-2 -13 4 -59 14 -102 23 -43 9 -78 20 -78 24 0 9 188 -34 198 -45z m1608 8
c73 -80 64 -195 -18 -256 -50 -37 -65 -43 -41 -16 11 13 33 46 48 73 26 46 26
51 12 75 -8 14 -21 52 -28 83 -11 46 -19 60 -39 68 -23 9 -23 10 8 5 18 -2 44
-17 58 -32z m-7654 1 c30 -15 29 -28 -4 -77 -28 -39 -58 -54 -70 -33 -5 9 -15
16 -23 16 -23 0 -27 18 -14 58 6 20 13 43 15 50 5 16 52 8 96 -14z m5316 11
c-7 -7 -359 -65 -392 -65 -23 0 -54 25 -43 36 3 3 14 0 24 -7 16 -9 54 -7 189
13 174 26 231 32 222 23z m1947 -123 c-16 -66 -25 -127 -22 -136 4 -10 19 -16
39 -17 18 -1 47 -5 63 -10 62 -17 -90 0 -170 20 -44 11 -116 27 -160 37 -44
10 -70 20 -59 22 12 1 75 -9 139 -23 89 -20 120 -24 125 -15 4 7 12 49 18 95
10 73 39 162 50 151 2 -3 -8 -59 -23 -124z m461 101 c-10 -10 -19 5 -10 18 6
11 8 11 12 0 2 -7 1 -15 -2 -18z m-8519 -18 c-6 -38 -71 -142 -99 -159 -13 -8
-21 -7 -30 2 -24 24 80 192 119 192 12 0 14 -8 10 -35z m6281 -12 c-33 -36
-57 -43 -98 -28 -19 7 -44 16 -55 20 -18 6 -19 7 -3 16 19 10 158 28 171 21 5
-2 -2 -15 -15 -29z m2572 -64 c0 -5 -6 -9 -14 -9 -21 0 -66 58 -66 83 1 19 6
16 40 -22 22 -24 40 -47 40 -52z m550 28 c0 -36 -5 -70 -12 -79 -14 -16 -93
-31 -255 -48 -96 -10 -105 -10 -152 11 -56 24 -79 45 -65 59 14 14 418 117
467 119 14 1 17 -8 17 -62z m-8354 12 c179 -52 204 -64 204 -97 0 -54 -23
-153 -40 -175 -18 -22 -22 -22 -212 -19 -106 1 -224 6 -263 10 -94 10 -96 24
-12 110 35 37 85 100 111 140 26 39 53 72 60 72 7 0 75 -18 152 -41z m4614 2
c0 -13 -23 -20 -98 -27 -46 -4 -64 -3 -57 4 20 21 155 41 155 23z m-6470 -57
c49 -46 60 -64 40 -64 -13 0 -88 68 -101 92 -17 33 10 20 61 -28z m5540 16 c0
-13 -90 -13 -110 0 -11 7 3 10 48 10 35 0 62 -4 62 -10z m-4205 -30 c8 -13
-45 -13 -65 0 -11 7 -6 10 22 10 20 0 40 -4 43 -10z m7771 -17 c-10 -10 -19 5
-10 18 6 11 8 11 12 0 2 -7 1 -15 -2 -18z m-1134 -1 c8 -8 -3 -19 -34 -39 -57
-36 -127 -68 -134 -61 -3 3 -8 32 -11 63 l-6 58 87 -5 c49 -3 93 -11 98 -16z
m-6826 -27 c-7 -29 -26 -34 -26 -7 0 18 20 45 28 37 2 -2 2 -16 -2 -30z m53
-3 c-11 -32 -29 -44 -29 -19 0 15 30 60 36 54 2 -2 -1 -18 -7 -35z m6876 -59
c25 -32 45 -66 45 -75 0 -9 -16 -26 -36 -39 -38 -23 -34 -23 -150 12 -17 5
-42 9 -56 9 -14 0 -31 6 -37 14 -9 10 -4 19 23 39 40 31 148 97 158 97 4 0 28
-26 53 -57z m1681 43 c18 -14 18 -15 -9 -21 -30 -8 -54 6 -43 24 10 15 28 14
52 -3z m-9431 -48 c3 -13 7 -48 8 -78 l2 -54 -48 -8 c-57 -10 -67 -5 -109 61
-41 66 -38 78 25 89 92 17 116 15 122 -10z m9862 -34 c-7 -72 -16 -81 -64 -65
-77 26 -208 86 -208 96 0 12 77 21 194 23 l84 2 -6 -56z m-2426 -76 c111 -382
323 -654 674 -861 48 -28 64 -42 52 -45 -10 -2 -31 1 -47 6 -16 6 -37 8 -47 6
-10 -3 -45 11 -78 31 -290 175 -511 468 -593 789 -22 88 -25 109 -14 126 6 11
12 30 12 42 0 37 10 14 41 -94z m2213 44 c60 -30 124 -68 141 -84 31 -27 32
-30 23 -71 -5 -23 -16 -52 -24 -65 -13 -19 -18 -21 -37 -11 -27 14 -159 126
-258 217 l-72 67 29 6 c47 11 82 0 198 -59z m-9584 7 c0 -21 -4 -39 -10 -39
-5 0 -10 21 -10 46 0 27 4 43 10 39 6 -3 10 -24 10 -46z m9413 -46 c150 -130
228 -204 248 -237 17 -28 17 -30 -6 -76 -37 -74 -50 -83 -104 -75 -41 6 -339
141 -390 177 -20 14 -19 15 21 74 22 32 58 96 80 142 21 45 42 82 45 82 3 0
51 -39 106 -87z m-9865 59 c6 -18 -173 -189 -211 -201 -58 -19 -279 -61 -321
-61 -78 0 -84 5 -111 92 -14 43 -25 81 -25 83 0 15 151 42 445 80 197 26 216
26 223 7z m92 -12 c0 -5 -4 -10 -10 -10 -5 0 -10 5 -10 10 0 6 5 10 10 10 6 0
10 -4 10 -10z m1299 -17 c22 -14 39 -28 38 -30 -9 -8 -97 31 -97 43 0 20 13
17 59 -13z m7830 11 c9 -8 -75 -3 -88 5 -8 5 5 7 35 4 27 -3 51 -7 53 -9z
m375 -6 c9 -35 7 -148 -3 -148 -13 0 -21 38 -21 108 0 62 12 82 24 40z m-9419
-28 c15 -17 16 -20 3 -20 -9 0 -26 9 -39 20 -23 19 -23 19 -3 20 11 0 29 -9
39 -20z m341 9 c7 -12 -15 -31 -28 -23 -4 3 -8 12 -8 20 0 17 26 19 36 3z
m294 -18 c0 -5 -7 -14 -16 -22 -13 -10 -17 -10 -25 2 -14 23 -11 29 16 29 14
0 25 -4 25 -9z m8230 -1 c0 -5 -2 -10 -4 -10 -3 0 -8 5 -11 10 -3 6 -1 10 4
10 6 0 11 -4 11 -10z m-9004 -15 c3 -8 -4 -30 -16 -49 -22 -36 -66 -56 -120
-56 -22 1 -18 7 39 60 65 61 87 71 97 45z m853 -10 c5 -29 -10 -145 -19 -145
-14 0 -60 73 -60 95 0 24 47 78 63 72 7 -2 14 -12 16 -22z m7361 -16 c9 -15 7
-16 -23 -7 -17 6 -39 13 -47 15 -11 3 -8 8 10 18 27 14 43 8 60 -26z m-7286 0
c14 -17 26 -39 26 -49 0 -23 -59 -75 -72 -62 -10 10 1 142 12 142 5 0 20 -14
34 -31z m211 -21 c-9 -75 -24 -128 -35 -128 -13 0 -12 13 5 90 18 78 22 90 31
90 3 0 3 -24 -1 -52z m7953 35 c-2 -11 -14 -19 -31 -21 -29 -4 -35 6 -15 26
19 19 50 15 46 -5z m-7144 -14 c79 -11 84 -18 62 -81 -31 -89 -42 -101 -84
-93 -43 8 -403 134 -415 145 -5 4 -4 18 3 30 11 21 13 22 193 15 100 -4 209
-11 241 -16z m-1240 -11 c5 -9 7 -20 4 -23 -11 -11 -47 5 -59 26 -9 18 -8 20
17 17 15 -2 32 -11 38 -20z m-241 -27 c-1 -32 -18 -61 -34 -61 -13 0 -11 57 2
81 15 29 34 17 32 -20z m8537 19 c0 -5 -5 -10 -11 -10 -5 0 -7 5 -4 10 3 6 8
10 11 10 2 0 4 -4 4 -10z m-8629 -38 c8 -39 -4 -41 -46 -7 l-29 24 24 10 c35
14 44 9 51 -27z m7545 16 c4 -5 1 -15 -4 -20 -13 -13 -42 6 -42 27 0 15 36 9
46 -7z m-7886 2 c0 -5 -4 -10 -10 -10 -5 0 -10 5 -10 10 0 6 5 10 10 10 6 0
10 -4 10 -10z m618 -16 c27 -19 28 -27 0 -64 -40 -55 -77 -24 -51 43 17 42 20
43 51 21z m876 -46 c88 -91 226 -250 257 -295 l30 -44 -52 -64 c-29 -36 -58
-65 -65 -65 -20 0 -82 77 -196 244 -110 159 -125 197 -95 228 7 7 16 21 20 31
12 32 49 19 101 -35z m6596 17 c223 -56 234 -62 161 -94 -90 -38 -262 -92
-284 -89 -33 5 -27 29 13 54 53 34 72 54 68 72 -5 25 -53 27 -87 3 -64 -46
-101 -6 -38 41 55 43 51 42 167 13z m-7912 6 c24 -5 49 -14 55 -21 10 -10 0
-11 -49 -7 -68 7 -94 15 -94 28 0 11 31 11 88 0z m548 -18 c-7 -7 -26 7 -26
19 0 6 6 6 15 -2 9 -7 13 -15 11 -17z m-597 -83 l104 -99 -49 -58 c-27 -31
-123 -133 -213 -225 -115 -118 -170 -168 -186 -168 -50 0 -160 106 -149 144
10 35 91 173 190 321 105 159 113 170 134 178 45 17 66 5 169 -93z m-280 2
c-46 -83 -192 -300 -232 -346 -22 -25 -38 -37 -46 -32 -17 11 -101 126 -101
139 0 13 247 264 275 280 29 16 129 35 133 25 2 -4 -11 -34 -29 -66z m1838 34
c165 -61 213 -83 213 -98 0 -18 -54 -111 -74 -127 -25 -21 -72 23 -270 247
-29 33 -7 29 131 -22z m-988 10 l22 -23 -23 -7 c-29 -7 -68 -8 -68 0 0 8 34
53 41 54 3 0 16 -11 28 -24z m8621 5 c0 -5 -8 -19 -18 -32 -23 -28 -37 -11
-16 19 15 22 34 29 34 13z m-9655 -33 c-7 -17 -143 -142 -193 -177 -18 -13
-38 -21 -45 -18 -19 7 -81 127 -71 137 14 12 103 38 189 54 140 27 128 26 120
4z m1266 -47 c-23 -44 -41 -60 -41 -36 0 17 25 70 44 94 21 26 19 -15 -3 -58z
m8823 -94 c88 -45 164 -90 170 -99 9 -15 2 -27 -40 -69 l-51 -51 -104 50
c-126 61 -168 101 -203 196 -14 37 -26 74 -26 82 0 17 52 -5 254 -109z m-1406
100 c15 -18 -20 -116 -50 -139 -12 -10 -63 -38 -112 -63 -66 -33 -94 -42 -107
-35 -29 16 -81 89 -75 106 7 18 140 82 246 118 88 30 85 29 98 13z m-8053 -17
c-3 -5 -12 -10 -20 -10 -8 0 -17 5 -20 10 -4 6 5 10 20 10 15 0 24 -4 20 -10z
m8965 -2 c-1 -18 -29 -53 -36 -45 -4 3 1 18 10 32 18 28 26 32 26 13z m210 10
c0 -2 9 -27 20 -55 24 -64 14 -68 -49 -22 l-42 32 22 23 c18 19 49 33 49 22z
m-8710 -38 c-24 -33 -67 -70 -83 -70 -6 0 11 23 38 50 55 56 78 66 45 20z
m-170 10 c0 -5 -9 -14 -20 -20 -22 -12 -27 -1 -8 18 14 14 28 16 28 2z m7844
4 c24 -9 19 -22 -14 -39 -43 -22 -51 -20 -39 15 11 30 23 35 53 24z m125 -33
c25 -16 -131 -431 -162 -431 -16 0 -85 48 -105 73 -18 21 -9 87 27 192 l27 80
85 47 c86 49 104 54 128 39z m1632 -118 c-64 -119 -208 -283 -332 -379 -124
-95 -291 -179 -427 -214 -92 -23 -95 -23 -87 -10 4 6 -8 10 -29 10 -66 0 -46
18 62 55 354 124 571 290 762 584 l54 83 14 -36 c13 -33 12 -38 -17 -93z
m-1364 89 c7 -8 16 -30 19 -49 5 -29 -5 -54 -76 -185 -115 -214 -145 -258
-172 -258 -31 0 -127 46 -134 63 -3 8 2 41 11 73 31 112 120 364 130 368 6 2
33 -1 60 -7 41 -8 56 -7 80 6 33 18 63 14 82 -11z m-8347 3 c-7 -9 -15 -13
-17 -11 -7 7 7 26 19 26 6 0 6 -6 -2 -15z m8903 -52 c41 -182 50 -246 51 -338
l1 -100 -63 -22 c-98 -35 -94 -39 -201 227 -50 125 -91 230 -91 232 0 3 35 11
78 18 42 6 97 20 122 30 80 32 86 29 103 -47z m-9073 32 c8 -10 10 -32 5 -67
-16 -132 -24 -150 -112 -264 -111 -143 -181 -214 -211 -214 -25 0 -65 19 -124
58 l-37 24 35 47 c69 91 395 431 413 431 10 0 24 -7 31 -15z m650 5 c0 -5 -2
-10 -4 -10 -3 0 -8 5 -11 10 -3 6 -1 10 4 10 6 0 11 -4 11 -10z m8519 -33 c50
-34 96 -121 131 -251 21 -73 21 -79 5 -97 -19 -20 -93 -59 -113 -59 -7 0 -12
9 -12 20 0 12 -7 34 -15 50 -11 22 -85 350 -85 378 0 9 50 -14 89 -41z m-599
23 c0 -5 -2 -10 -4 -10 -3 0 -8 5 -11 10 -3 6 -1 10 4 10 6 0 11 -4 11 -10z
m136 -22 c6 -7 -31 -120 -56 -167 l-18 -36 -22 49 c-31 68 -36 120 -17 149 14
22 20 23 61 17 26 -4 49 -9 52 -12z m-8642 -4 c12 -30 5 -79 -13 -101 -29 -35
-34 -28 -27 31 9 82 25 109 40 70z m545 -78 l51 -84 0 -230 c0 -171 -3 -232
-12 -240 -14 -11 -116 -32 -156 -32 l-25 0 6 178 c7 180 32 465 42 483 4 5 15
9 25 9 13 0 35 -27 69 -84z m51 23 c0 -17 -18 -9 -34 16 -25 38 -18 53 9 22
14 -15 25 -32 25 -38z m-188 -64 c-5 -206 -34 -501 -54 -537 -6 -12 -20 -18
-42 -18 -31 0 -35 4 -48 41 -16 51 -30 52 -44 2 -12 -41 -37 -53 -73 -33 -29
15 -46 85 -76 310 -30 231 -31 277 -7 307 16 21 26 23 157 26 77 2 151 3 165
3 l25 -1 -3 -100z m8337 -67 c63 -150 92 -229 105 -280 6 -25 3 -28 -31 -37
-21 -6 -57 -11 -81 -11 -37 0 -44 4 -54 28 -7 15 -19 38 -29 52 -25 38 -59
137 -59 172 0 34 68 228 79 228 4 0 36 -68 70 -152z m-859 28 c-18 -42 -35
-76 -38 -76 -4 0 -25 16 -47 34 -49 43 -45 53 46 115 59 40 64 42 67 23 2 -11
-11 -55 -28 -96z m1413 39 c29 -19 68 -49 87 -65 l35 -30 -44 -40 c-24 -22
-50 -40 -58 -40 -14 0 -87 141 -99 194 -9 36 2 33 79 -19z m-775 -22 c41 -111
39 -127 -40 -285 -34 -70 -49 -79 -112 -67 -65 12 -78 23 -65 57 27 74 177
352 189 352 4 0 17 -26 28 -57z m-8504 0 c7 -24 43 -318 51 -418 3 -44 2 -85
-2 -92 -6 -9 -25 -8 -81 2 -40 8 -77 17 -84 21 -14 9 -3 173 21 317 14 78 26
119 45 148 29 43 42 48 50 22z m-888 -135 c28 -24 82 -70 121 -104 129 -113
280 -208 433 -273 148 -64 230 -104 230 -114 0 -12 -90 1 -170 25 -156 48
-391 181 -519 295 -55 48 -171 187 -171 204 0 19 27 7 76 -33z m1584 -87 c79
-134 105 -190 93 -201 -18 -17 -145 -52 -154 -43 -23 23 -41 363 -19 363 5 0
41 -53 80 -119z m-820 -3 c-13 -93 -46 -228 -59 -241 -11 -11 -141 42 -148 60
-7 17 22 60 128 193 94 117 98 116 79 -12z m8704 18 c19 -50 38 -155 30 -167
-6 -10 -68 -12 -100 -3 -19 5 -20 9 -12 56 11 62 46 158 57 158 5 0 16 -20 25
-44z m182 -813 c-10 -10 -19 5 -10 18 6 11 8 11 12 0 2 -7 1 -15 -2 -18z"/>
<path d="M8778 5011 c-72 -46 -92 -102 -27 -79 34 12 82 69 77 93 -2 13 -11
11 -50 -14z"/>
<path d="M8615 4971 c-38 -23 -87 -80 -79 -92 12 -20 46 -7 84 32 22 23 40 50
40 60 0 24 -7 24 -45 0z"/>
<path d="M8835 4950 c-18 -8 -17 -9 8 -9 15 -1 27 4 27 9 0 12 -8 12 -35 0z"/>
<path d="M3407 6253 c-4 -3 -7 -11 -7 -17 0 -6 5 -5 12 2 6 6 9 14 7 17 -3 3
-9 2 -12 -2z"/>
<path d="M11350 5630 c0 -5 7 -10 15 -10 8 0 15 5 15 10 0 6 -7 10 -15 10 -8
0 -15 -4 -15 -10z"/>
<path d="M11425 5630 c3 -5 11 -10 16 -10 6 0 7 5 4 10 -3 6 -11 10 -16 10 -6
0 -7 -4 -4 -10z"/>
<path d="M11680 5626 c0 -2 7 -6 15 -10 8 -3 15 -1 15 4 0 6 -7 10 -15 10 -8
0 -15 -2 -15 -4z"/>
<path d="M11760 5600 c-24 -15 -7 -19 25 -5 23 10 25 14 10 14 -11 0 -27 -3
-35 -9z"/>
<path d="M11384 5521 c-61 -6 -76 -11 -102 -37 -21 -21 -47 -34 -88 -43 -94
-20 -448 -122 -458 -132 -19 -17 11 -31 129 -60 64 -16 152 -45 195 -64 80
-36 114 -43 126 -24 9 15 57 5 179 -36 55 -18 123 -38 152 -44 29 -6 103 -27
165 -47 109 -35 115 -39 178 -103 97 -99 226 -265 241 -308 19 -58 54 -106
121 -164 77 -67 185 -211 290 -387 68 -115 118 -211 118 -228 0 -2 -6 -4 -14
-4 -31 0 -46 -30 -46 -93 0 -34 4 -67 8 -74 12 -19 95 -52 144 -58 62 -8 71 2
72 82 l1 68 -47 24 c-47 23 -48 24 -42 60 5 34 -9 67 -145 334 -110 216 -151
306 -151 332 0 26 -9 45 -34 72 -39 43 -130 186 -178 279 -31 59 -32 63 -15
81 9 11 22 35 28 54 19 55 26 59 99 59 73 0 100 16 100 59 0 75 -37 84 -402
101 -176 7 -212 12 -246 29 -22 11 -42 27 -46 36 -11 29 -6 75 10 100 14 22
14 25 -4 43 -11 11 -26 22 -33 25 -11 5 -10 9 5 21 10 8 24 17 30 19 8 3 7 9
-2 18 -15 16 -218 22 -338 10z m239 -78 c-7 -2 -19 -2 -25 0 -7 3 -2 5 12 5
14 0 19 -2 13 -5z"/>
<path d="M9634 196 c-10 -8 -16 -17 -13 -21 11 -10 59 6 59 21 0 18 -21 18
-46 0z"/>
</g>
</svg>
