<?xml version="1.0" standalone="no"?>
<!DOCTYPE svg PUBLIC "-//W3C//DTD SVG 20010904//EN"
 "http://www.w3.org/TR/2001/REC-SVG-20010904/DTD/svg10.dtd">
<svg version="1.0" xmlns="http://www.w3.org/2000/svg"
 width="1280.000000pt" height="1091.000000pt" viewBox="0 0 1280.000000 1091.000000"
 preserveAspectRatio="xMidYMid meet">
<metadata>
Created by potrace 1.15, written by Peter Selinger 2001-2017
</metadata>
<g transform="translate(0.000000,1091.000000) scale(0.100000,-0.100000)"
fill="#000000" stroke="none">
<path d="M11362 10899 c-57 -11 -141 -50 -174 -81 -31 -30 -53 -95 -44 -132 8
-34 41 -63 90 -79 73 -24 86 -84 25 -113 -17 -9 -209 -14 -635 -19 l-610 -7
-29 24 c-23 20 -27 30 -21 51 5 21 22 35 74 60 75 36 90 59 78 121 -32 171
-401 237 -592 105 -42 -29 -74 -86 -74 -133 0 -37 34 -71 95 -96 58 -24 79
-55 58 -89 -25 -40 -53 -41 -683 -35 -654 7 -640 5 -640 59 0 27 12 38 81 73
30 15 60 39 68 53 37 67 -32 166 -144 209 -82 31 -246 39 -326 16 -67 -20
-141 -65 -164 -100 -9 -14 -19 -43 -22 -65 -8 -56 15 -86 88 -118 42 -18 61
-32 65 -48 8 -30 -11 -64 -39 -69 -12 -3 -303 -9 -647 -13 l-625 -8 -36 -23
c-67 -41 -86 -122 -44 -186 10 -15 44 -38 76 -53 35 -16 59 -33 59 -43 0 -68
-145 -129 -279 -117 -126 11 -219 56 -236 114 -5 20 2 26 59 52 72 32 96 64
96 126 0 51 -27 92 -75 115 -39 19 -63 20 -366 20 -191 0 -329 -4 -334 -9 -6
-6 -139 -11 -310 -13 -279 -3 -302 -4 -334 -23 -52 -31 -76 -69 -75 -120 1
-61 26 -93 95 -123 72 -31 78 -55 23 -101 -124 -102 -442 -66 -478 55 -5 18 2
24 53 46 69 30 101 71 101 131 0 52 -26 94 -75 117 -38 18 -72 19 -665 22
-610 3 -626 3 -659 -17 -52 -31 -76 -69 -75 -120 1 -61 26 -93 95 -124 47 -20
59 -30 59 -48 0 -23 -1 -23 -162 -24 -90 0 -199 -4 -243 -8 -85 -9 -97 -4
-109 35 -6 19 1 24 48 43 75 31 98 59 104 124 4 49 1 57 -26 89 -48 54 -76 58
-400 58 -183 0 -293 4 -297 10 -9 15 -617 13 -667 -2 -21 -6 -52 -27 -68 -45
-24 -27 -30 -43 -30 -82 0 -62 24 -94 99 -130 43 -21 55 -31 53 -46 -6 -31
-39 -61 -95 -86 -74 -33 -226 -32 -311 1 -69 27 -106 59 -106 94 0 20 8 27 50
41 70 23 100 62 100 129 0 40 -6 60 -22 81 -41 53 -59 55 -417 55 -291 0 -330
-2 -335 -16 -3 -9 -6 -150 -6 -314 0 -165 -4 -310 -10 -324 -25 -67 -88 -53
-124 28 -30 68 -62 91 -118 83 -111 -15 -183 -145 -183 -332 0 -156 46 -263
131 -305 79 -39 122 -22 164 66 30 63 52 81 88 70 47 -15 47 -22 44 -655 -3
-619 -5 -641 -45 -649 -43 -8 -64 7 -87 63 -27 66 -50 85 -106 85 -138 0 -237
-230 -190 -442 30 -135 96 -208 187 -208 54 0 71 15 109 93 21 44 30 52 56 55
21 2 36 -4 50 -19 18 -20 19 -44 24 -643 4 -435 8 -628 16 -646 28 -60 88 -92
152 -80 54 10 79 32 108 99 22 50 26 53 51 47 81 -19 131 -185 100 -333 -22
-103 -73 -173 -126 -173 -4 0 -19 27 -33 59 -31 72 -64 96 -129 96 -56 0 -95
-25 -121 -76 -16 -30 -18 -67 -18 -317 0 -239 -2 -286 -15 -298 -13 -13 -15
-63 -15 -321 0 -338 4 -367 57 -413 27 -24 43 -30 81 -30 68 0 104 26 132 94
20 46 28 56 48 56 52 0 103 -90 117 -205 14 -110 -44 -272 -104 -293 -35 -12
-39 -8 -69 60 -23 53 -55 78 -110 85 -54 7 -103 -18 -130 -66 -21 -37 -22 -49
-22 -359 0 -265 2 -322 14 -331 11 -9 99 -11 338 -9 288 3 327 5 356 21 50 27
74 72 69 130 -5 58 -38 98 -98 117 -51 17 -62 31 -50 63 19 50 134 97 238 97
104 0 239 -46 263 -89 19 -37 11 -51 -43 -75 -29 -13 -63 -36 -75 -51 -53 -67
-31 -153 48 -192 43 -22 54 -23 317 -23 l273 0 0 -262 c0 -160 4 -278 11 -303
6 -21 26 -54 44 -72 29 -29 39 -33 88 -33 68 0 100 23 132 96 24 55 39 63 75
44 33 -17 69 -92 82 -168 11 -63 10 -85 -4 -154 -19 -89 -55 -153 -94 -168
-34 -13 -38 -9 -67 54 -29 62 -60 87 -120 93 -33 4 -50 0 -77 -19 -68 -46 -70
-56 -70 -408 0 -233 3 -319 12 -328 9 -9 95 -12 325 -12 330 0 358 -3 369 -46
9 -35 -7 -53 -77 -87 -71 -36 -86 -60 -75 -120 32 -170 403 -236 592 -106 42
29 74 86 74 133 0 34 -34 71 -82 91 -79 31 -100 72 -57 111 20 18 42 19 319
22 l299 3 3 -298 c3 -270 5 -302 22 -337 24 -48 69 -76 121 -76 58 0 97 28
128 94 32 68 54 72 102 22 65 -69 83 -232 39 -358 -20 -60 -64 -108 -97 -108
-21 0 -28 8 -42 44 -26 68 -64 98 -128 104 -49 4 -57 1 -89 -26 -54 -48 -58
-75 -58 -408 0 -263 2 -302 17 -323 l16 -24 321 7 c355 9 380 13 416 71 24 39
26 95 4 136 -11 22 -34 39 -80 60 -58 26 -64 32 -58 52 16 52 81 90 182 106
141 22 332 -43 332 -115 0 -17 -12 -26 -55 -44 -31 -12 -64 -34 -74 -49 -57
-81 -17 -183 84 -210 27 -7 239 -11 642 -11 625 0 646 -1 658 -42 12 -34 -5
-55 -64 -81 -88 -38 -110 -84 -77 -160 29 -68 124 -120 255 -139 189 -28 375
51 397 168 10 53 -10 83 -75 116 -29 15 -59 32 -67 39 -20 17 -17 53 7 75 19
17 46 20 343 26 947 22 928 21 970 44 22 11 47 35 58 54 40 76 11 146 -78 187
-30 14 -58 31 -61 39 -9 25 28 65 85 92 51 24 69 27 167 27 103 0 115 -3 177
-32 100 -47 116 -95 42 -122 -59 -21 -85 -42 -100 -78 -31 -72 -3 -141 69
-173 39 -18 68 -20 357 -20 233 0 319 3 328 12 9 9 12 95 12 327 0 299 -1 317
-21 358 -25 51 -61 73 -121 73 -63 0 -101 -28 -128 -94 -13 -31 -29 -56 -36
-56 -56 0 -105 73 -124 182 -22 126 32 293 102 317 18 7 34 8 36 4 25 -64 62
-118 92 -134 67 -36 142 -15 178 50 21 37 22 50 22 330 l0 291 293 0 c330 0
342 -2 342 -60 0 -33 -3 -37 -66 -67 -81 -39 -99 -70 -79 -136 6 -23 22 -53
33 -65 50 -55 191 -101 305 -102 119 0 257 52 297 114 23 35 31 102 15 131 -7
13 -38 35 -71 50 -63 28 -84 53 -74 86 14 44 54 49 378 49 222 0 306 3 315 12
9 9 12 94 12 320 0 318 4 352 42 363 35 12 60 -6 83 -60 41 -91 90 -113 171
-76 142 64 187 403 74 559 -37 52 -68 72 -119 79 -55 8 -87 -15 -117 -83 -36
-81 -99 -95 -124 -28 -6 14 -10 144 -10 289 l0 264 303 3 c268 3 306 5 335 21
50 27 74 72 69 130 -5 58 -38 98 -98 117 -51 17 -62 31 -50 63 19 49 134 97
237 97 142 0 274 -59 274 -122 0 -12 -18 -26 -53 -42 -29 -13 -63 -36 -75 -51
-53 -67 -31 -153 48 -192 43 -22 52 -23 367 -23 296 0 323 1 332 18 6 10 8
131 5 322 -4 240 -9 314 -21 348 -19 55 -61 82 -125 82 -59 0 -107 -38 -132
-105 -21 -53 -40 -57 -85 -20 -86 73 -96 310 -18 431 18 27 60 54 84 54 2 0
14 -24 27 -52 35 -79 66 -103 131 -103 69 0 104 25 127 91 15 44 17 109 18
638 0 574 -1 591 -20 632 -26 54 -62 77 -116 76 -67 -1 -95 -20 -130 -87 -17
-33 -37 -61 -45 -63 -23 -4 -67 35 -89 79 -23 45 -26 86 -7 114 14 20 80 163
112 240 l16 40 22 -44 c53 -105 186 -105 239 0 16 30 18 68 18 340 0 168 3
308 6 311 3 3 5 139 4 302 0 244 2 302 15 332 20 49 41 63 91 64 48 0 66 -16
104 -93 20 -42 30 -53 54 -55 92 -11 162 97 173 269 12 186 -80 338 -185 305
-12 -4 -29 -28 -42 -62 -26 -63 -50 -84 -98 -84 -44 0 -68 14 -87 49 -22 44
-23 605 -1 630 14 15 16 61 16 324 0 317 4 351 42 362 36 12 58 -6 88 -69 41
-87 84 -104 166 -67 114 52 174 298 115 473 -29 88 -79 143 -144 160 -65 17
-93 1 -130 -75 -32 -65 -62 -86 -96 -67 -12 6 -26 22 -31 36 -6 14 -10 160
-10 328 0 221 -3 305 -12 314 -9 9 -95 12 -324 12 -172 0 -324 4 -337 9 -14 6
-28 19 -32 30 -12 39 5 61 70 90 86 39 103 76 70 154 -43 104 -257 171 -433
136z"/>
</g>
</svg>
