<?xml version="1.0" standalone="no"?>
<!DOCTYPE svg PUBLIC "-//W3C//DTD SVG 20010904//EN"
 "http://www.w3.org/TR/2001/REC-SVG-20010904/DTD/svg10.dtd">
<svg version="1.0" xmlns="http://www.w3.org/2000/svg"
 width="1280.000000pt" height="777.000000pt" viewBox="0 0 1280.000000 777.000000"
 preserveAspectRatio="xMidYMid meet">
<metadata>
Created by potrace 1.15, written by Peter Selinger 2001-2017
</metadata>
<g transform="translate(0.000000,777.000000) scale(0.100000,-0.100000)"
fill="#000000" stroke="none">
<path d="M8277 7363 c-16 -18 -48 -38 -76 -48 -47 -15 -187 -98 -204 -120 -22
-29 36 -277 67 -283 9 -2 30 8 47 22 17 14 34 26 39 26 5 0 12 10 16 23 3 12
38 60 77 107 39 47 72 87 74 89 2 3 8 0 13 -5 14 -14 -6 -258 -26 -312 -9 -24
-27 -50 -40 -59 -13 -8 -24 -23 -24 -31 0 -39 -44 -159 -66 -179 -22 -20 -22
-23 -8 -38 31 -30 54 -14 100 70 72 133 94 220 94 374 0 107 3 131 14 131 8 0
17 -13 21 -30 11 -48 25 -35 25 23 0 44 4 57 25 75 43 38 28 90 -20 71 -11 -4
-34 -8 -50 -8 -33 -1 -50 24 -63 96 l-7 39 -28 -33z"/>
<path d="M7976 6582 c-8 -13 7 -30 34 -40 l25 -10 -27 -7 c-15 -4 -56 -2 -91
4 -101 18 -104 17 -74 -22 l26 -34 -27 -26 -26 -26 -31 57 c-18 31 -39 58 -48
60 -8 2 -30 -3 -49 -11 -52 -22 -65 -72 -49 -190 9 -69 10 -121 2 -212 -6 -66
-13 -226 -17 -355 -6 -216 -8 -239 -29 -287 -13 -28 -34 -57 -47 -64 -12 -7
-56 -41 -96 -77 -40 -35 -87 -72 -105 -82 -18 -10 -36 -30 -42 -46 -13 -40
-12 -40 -36 -11 -25 33 -35 33 -81 2 -45 -31 -98 -33 -123 -5 -23 25 -30 25
-55 0 -14 -14 -18 -27 -14 -50 4 -16 2 -30 -3 -30 -5 0 -51 -36 -102 -80 -52
-44 -101 -80 -110 -80 -9 0 -22 -4 -30 -9 -24 -16 5 -39 57 -47 l47 -7 -80
-27 c-79 -27 -135 -52 -459 -210 -160 -77 -247 -130 -342 -208 -30 -24 -54
-35 -83 -37 -63 -5 -251 -106 -251 -135 0 -8 -9 -21 -20 -28 -44 -27 -107
-129 -126 -204 l-18 -73 -7 68 c-5 40 -14 76 -24 87 -9 10 -44 22 -89 30 -68
11 -75 11 -114 -9 -23 -12 -48 -21 -55 -21 -8 0 -38 -16 -66 -35 -28 -19 -74
-40 -102 -46 -30 -7 -70 -25 -96 -45 -25 -19 -53 -34 -64 -34 -11 0 -29 -5
-40 -11 -61 -32 -137 -42 -339 -42 -191 -1 -207 1 -240 20 -19 12 -62 29 -95
38 -64 18 -137 53 -171 82 -12 10 -58 60 -103 111 -45 51 -94 98 -109 106 -15
8 -61 20 -103 27 -71 12 -79 11 -117 -7 l-40 -20 -18 36 c-31 60 -213 223
-295 264 -40 20 -82 36 -95 36 -43 0 -124 23 -124 36 0 7 -8 10 -19 7 -11 -3
-30 2 -42 11 -13 8 -32 13 -44 10 -12 -3 -42 0 -66 7 -24 6 -100 13 -169 14
-69 2 -145 8 -169 15 -24 6 -80 11 -125 9 -45 -1 -89 1 -98 5 -10 3 -24 8 -32
10 -8 3 -40 -2 -73 -9 -32 -8 -89 -14 -128 -15 -129 0 -185 -15 -228 -58 -32
-32 -41 -51 -53 -108 -21 -98 -11 -151 32 -176 37 -22 41 -30 21 -46 -21 -18
-159 -44 -247 -46 -47 -2 -120 -12 -163 -24 -43 -12 -120 -24 -170 -28 -122
-8 -251 -30 -322 -54 -81 -28 -85 -27 -85 21 0 37 2 41 20 35 67 -21 66 -20
52 -3 -15 18 -94 47 -129 47 -13 0 -35 7 -49 16 -23 15 -28 15 -70 -1 -42 -16
-49 -16 -82 -2 -63 27 -99 30 -152 12 -59 -20 -59 -31 -4 -104 47 -61 58 -106
44 -184 -7 -34 -20 -71 -30 -82 -35 -38 -33 -64 10 -163 37 -87 39 -96 29
-140 -13 -59 -38 -102 -145 -250 -47 -64 -87 -127 -91 -139 -9 -40 5 -70 55
-111 53 -45 193 -122 221 -122 32 0 101 79 138 160 33 71 110 253 117 276 4
11 18 31 31 44 23 21 34 24 108 23 190 -2 360 -14 386 -28 34 -19 71 -51 70
-62 0 -4 -28 -21 -61 -38 -91 -44 -179 -113 -306 -238 -169 -167 -217 -234
-292 -412 -23 -55 -48 -113 -55 -130 -91 -204 -114 -324 -115 -595 0 -334 32
-488 159 -774 53 -119 77 -161 121 -210 30 -34 73 -84 94 -111 113 -143 337
-325 488 -398 186 -90 293 -129 398 -147 41 -6 95 -16 120 -22 68 -14 537 -23
563 -10 12 6 42 13 67 17 76 10 250 65 355 113 55 24 121 51 148 59 31 9 72
35 120 76 39 34 112 95 160 136 160 134 352 377 442 558 l30 60 100 5 c80 4
120 12 200 41 122 44 186 59 385 93 242 40 224 40 273 11 55 -32 67 -51 101
-154 21 -62 36 -90 62 -113 34 -30 36 -30 152 -30 64 0 155 -5 202 -12 74 -10
90 -16 122 -44 80 -71 159 -97 348 -113 186 -17 1536 -33 1744 -21 86 5 89 4
108 -21 11 -14 35 -64 53 -110 24 -58 40 -85 53 -87 23 -4 41 29 44 83 l3 40
18 -52 c12 -34 30 -60 52 -78 19 -14 38 -38 41 -53 10 -40 23 -52 59 -52 31 0
105 25 105 35 0 2 -22 14 -49 25 -46 20 -49 24 -55 68 -7 55 -35 132 -47 132
-5 0 -9 -12 -9 -27 0 -58 -16 -57 -54 3 -39 64 -46 100 -18 108 9 3 60 5 112
4 87 -1 249 5 900 32 352 15 408 31 397 111 -12 89 -82 148 -341 285 -82 44
-188 109 -237 147 -49 37 -97 67 -107 67 -9 0 -39 -18 -66 -41 -52 -42 -98
-50 -104 -18 -2 12 7 18 35 23 56 10 104 27 99 34 -2 4 2 16 10 26 13 18 15
18 32 3 39 -36 120 -6 153 55 9 17 8 19 -10 13 -30 -9 -26 10 7 35 15 12 29
31 32 43 4 13 17 24 37 29 23 6 36 19 51 51 11 24 37 58 56 75 42 36 42 38 17
45 -18 4 -18 8 -5 58 16 60 10 132 -12 150 -11 9 -11 15 1 40 25 47 20 61 -19
54 -30 -6 -34 -4 -40 20 -7 29 7 55 31 55 8 0 11 5 8 10 -3 6 -17 10 -30 10
-25 0 -50 -35 -65 -89 -3 -14 -19 -32 -35 -41 -17 -9 -41 -40 -61 -80 -18 -36
-42 -74 -52 -85 -10 -11 -26 -47 -35 -79 -9 -33 -22 -63 -29 -67 -36 -22 -98
-77 -119 -106 -13 -18 -27 -33 -31 -33 -4 0 -24 24 -44 54 l-36 54 35 79 c37
84 79 205 121 348 63 213 81 265 121 350 78 165 84 180 105 270 12 50 46 142
75 205 29 63 60 148 69 188 22 102 38 132 102 187 38 32 63 65 80 104 l26 56
121 -240 c126 -248 161 -305 258 -415 75 -87 109 -138 109 -165 0 -12 -18 -50
-41 -85 -22 -34 -53 -96 -70 -137 -16 -40 -42 -99 -58 -131 -33 -66 -65 -163
-80 -242 -6 -30 -13 -66 -16 -80 -3 -14 -12 -81 -21 -149 -8 -69 -17 -128 -19
-131 -9 -14 -24 -287 -18 -327 4 -32 10 -43 23 -43 20 0 107 62 194 138 33 29
61 51 63 49 1 -2 5 -30 8 -63 17 -180 36 -250 123 -453 66 -156 133 -269 204
-351 22 -25 46 -60 54 -78 25 -61 325 -325 464 -409 71 -43 322 -143 396 -158
42 -9 86 -20 99 -25 43 -16 510 -13 653 5 19 2 30 0 27 -6 -8 -12 5 -11 62 3
147 35 260 72 275 89 9 10 23 19 32 19 57 0 173 90 351 272 212 216 289 340
373 593 58 177 75 298 69 496 -7 230 -23 346 -62 450 -44 114 -123 292 -179
405 -109 218 -445 530 -696 647 -110 52 -126 58 -355 140 l-70 25 67 31 c73
35 132 83 126 103 -3 8 -35 17 -81 22 -64 8 -77 12 -77 27 0 14 -6 17 -32 12
-25 -3 -39 1 -58 17 -21 18 -33 21 -75 17 -27 -3 -64 -13 -81 -23 -29 -16 -41
-17 -178 -4 -119 11 -156 11 -199 1 -28 -7 -68 -15 -87 -18 -102 -14 -210 -46
-233 -69 -13 -13 -40 -29 -58 -36 -49 -16 -59 -27 -59 -60 0 -29 -3 -27 -45
33 -25 35 -58 86 -73 112 -15 27 -54 85 -87 129 -33 44 -82 113 -110 153 -27
40 -78 112 -113 161 -35 49 -100 143 -147 209 -46 67 -95 127 -109 135 -14 7
-26 17 -26 22 0 4 -6 8 -14 8 -18 0 -9 39 10 47 22 8 16 22 -11 29 -32 8 -31
15 3 37 15 9 41 26 59 38 25 16 36 18 52 10 19 -10 23 -27 33 -120 2 -18 11
-27 32 -32 38 -11 67 -38 65 -63 -3 -39 1 -46 21 -46 35 0 79 29 97 63 19 36
80 204 93 257 5 19 14 36 19 38 19 6 12 27 -19 57 -17 16 -38 52 -47 82 -16
52 -33 70 -33 35 0 -50 -68 -56 -155 -12 -33 16 -76 30 -95 30 -48 0 -59 13
-49 58 4 20 6 38 4 40 -9 9 -45 -11 -45 -25 0 -9 -16 -33 -35 -54 -35 -39 -44
-72 -24 -84 6 -4 21 3 34 15 18 17 30 20 59 15 20 -4 36 -11 36 -15 0 -15 -65
-47 -109 -54 -47 -7 -60 -17 -78 -57 -12 -27 -53 -47 -53 -26 0 14 -66 113
-115 172 -18 23 -42 55 -52 72 -66 109 -188 263 -209 263 -8 0 -14 2 -14 4 0
20 62 166 97 227 31 55 43 88 43 117 0 21 5 64 11 93 19 87 13 116 -22 123 -8
1 -33 21 -57 43 l-43 41 -92 -4 -93 -4 -104 50 c-77 37 -117 50 -150 50 -25 0
-55 3 -67 6 -25 7 -31 24 -9 24 8 0 22 7 30 16 14 14 12 23 -24 94 -26 51 -40
93 -40 118 0 21 -7 47 -15 58 -13 17 -14 13 -15 -52 0 -39 7 -93 15 -119 8
-27 13 -50 12 -51 -24 -18 -44 -21 -62 -8 -10 8 -36 14 -57 14 -21 0 -38 4
-38 10 0 5 16 25 35 44 35 35 46 74 23 80 -47 13 -154 34 -157 31 -1 -2 5 -24
14 -49 20 -51 15 -79 -12 -69 -38 13 -53 36 -53 79 0 47 39 106 69 103 52 -5
65 15 54 85 -4 27 -18 51 -46 79 -34 34 -39 44 -34 72 8 50 -28 78 -145 115
-74 23 -66 22 -72 12z m1794 -1964 c0 -8 -66 -28 -92 -28 -29 0 -21 26 18 60
l37 32 18 -29 c10 -15 19 -31 19 -35z m640 -1274 c12 -19 19 -38 15 -42 -9 -9
-55 44 -55 64 0 25 18 15 40 -22z m1216 -526 c36 -19 74 -61 74 -82 0 -3 -9
-6 -20 -6 -11 0 -20 4 -20 8 0 5 -21 30 -46 55 -51 52 -49 57 12 25z m-916
-92 c0 -5 -9 3 -20 17 -11 14 -20 29 -20 34 1 10 39 -39 40 -51z m555 -97 c78
-7 132 -17 156 -30 38 -19 226 -212 301 -310 41 -53 51 -72 113 -218 45 -105
56 -172 58 -351 2 -187 -10 -242 -63 -287 -17 -13 -30 -33 -30 -42 0 -9 -11
-32 -25 -51 -14 -19 -25 -43 -25 -54 0 -11 -10 -35 -22 -53 -18 -26 -30 -33
-55 -33 -18 0 -33 4 -33 9 0 5 -11 16 -25 25 -24 16 -28 15 -75 -9 -27 -14
-57 -25 -66 -25 -27 0 -154 -43 -154 -52 0 -4 29 -29 64 -55 52 -40 62 -52 56
-69 -11 -27 -27 -39 -85 -58 -58 -19 -258 -40 -288 -30 -11 4 -38 19 -59 34
-21 15 -55 31 -75 35 -21 4 -43 11 -48 15 -11 9 -75 27 -130 37 -16 3 -39 14
-50 23 -11 10 -32 22 -47 25 -15 4 -32 13 -39 21 -6 8 -18 14 -26 14 -17 0
-107 66 -154 112 -34 35 -50 58 -109 155 -17 28 -45 64 -63 80 -18 16 -40 44
-50 62 -17 29 -17 34 -3 56 21 33 56 40 123 26 31 -6 71 -11 88 -11 30 0 32 3
45 55 11 46 18 57 46 70 42 20 43 20 41 -12 -2 -23 4 -31 29 -42 24 -10 38
-28 58 -74 21 -49 29 -59 45 -54 11 2 34 -4 52 -15 46 -28 141 -44 234 -39 44
2 103 4 130 5 l50 1 1 -85 c2 -81 1 -84 -15 -62 -50 71 -56 75 -82 62 -13 -7
-31 -21 -39 -30 -11 -12 -26 -16 -52 -12 -43 5 -43 4 -23 -44 17 -41 63 -64
130 -64 24 0 64 -5 89 -12 39 -10 46 -9 71 10 15 12 33 22 39 22 6 0 18 4 26
10 12 7 9 13 -13 30 -22 17 -27 30 -27 64 0 27 7 52 19 67 10 13 21 34 25 45
5 17 18 23 56 28 30 4 50 12 50 19 0 7 -21 37 -47 66 -59 64 -98 70 -162 28
-22 -15 -43 -27 -45 -27 -3 0 0 15 6 33 16 48 43 67 98 67 60 0 100 28 100 70
0 16 -5 32 -11 35 -7 5 -8 25 -4 56 5 33 3 49 -4 49 -6 0 -22 19 -37 41 -14
23 -39 46 -55 52 -34 13 -38 27 -9 27 12 0 33 12 47 26 22 22 25 32 20 67 -3
22 -1 49 4 58 12 23 4 42 -24 54 -31 14 -33 47 -4 80 l24 28 -28 26 c-14 14
-28 35 -30 46 -3 11 -21 31 -41 44 -25 16 -43 38 -53 65 -9 23 -29 50 -45 61
-39 26 -38 37 3 31 17 -3 86 -11 152 -17z m-215 -189 c0 -5 -2 -10 -4 -10 -3
0 -8 5 -11 10 -3 6 -1 10 4 10 6 0 11 -4 11 -10z m85 -120 c3 -6 -1 -7 -9 -4
-18 7 -21 14 -7 14 6 0 13 -4 16 -10z m20 -30 c3 -5 1 -10 -4 -10 -6 0 -11 5
-11 10 0 6 2 10 4 10 3 0 8 -4 11 -10z m864 -90 c0 -10 -3 -8 -9 5 -12 27 -12
43 0 25 5 -8 9 -22 9 -30z m-91 -908 c-24 -45 -47 -82 -52 -82 -5 0 -4 6 1 13
6 6 13 24 17 39 3 14 16 39 29 55 13 15 27 37 31 47 3 10 9 17 11 14 3 -3 -14
-42 -37 -86z m-1363 -297 c37 -19 75 -41 84 -48 9 -8 27 -17 41 -20 47 -11
135 -37 155 -46 11 -4 42 -17 69 -27 27 -11 51 -24 53 -31 5 -14 -16 -9 -215
53 -135 43 -147 48 -203 100 -32 30 -57 54 -55 54 2 0 34 -16 71 -35z m1085
25 c0 -13 -79 -70 -97 -70 -7 0 -21 -4 -31 -9 -67 -34 -132 -45 -139 -24 -5
15 80 53 121 53 34 0 109 31 120 49 9 14 26 14 26 1z m-620 -220 c0 -5 -2 -10
-4 -10 -3 0 -8 5 -11 10 -3 6 -1 10 4 10 6 0 11 -4 11 -10z"/>
<path d="M11652 2111 c-27 -23 -28 -62 -2 -92 l20 -24 25 28 c27 30 33 75 13
95 -17 17 -31 15 -56 -7z"/>
<path d="M11697 1914 c3 -22 12 -46 19 -54 12 -12 16 -12 29 0 8 9 17 30 21
48 5 27 4 32 -12 32 -11 0 -29 3 -41 6 -21 6 -22 4 -16 -32z"/>
<path d="M11698 1719 c-10 -20 -32 -38 -64 -53 l-49 -23 38 -12 c20 -7 37 -16
37 -19 0 -4 -24 -35 -54 -70 -30 -34 -62 -72 -70 -84 -15 -21 -24 -23 -111
-23 -91 0 -95 0 -95 -22 0 -12 5 -34 11 -50 8 -21 7 -29 -2 -32 -7 -2 19 -12
57 -21 79 -21 97 -13 97 39 0 24 5 31 27 36 15 3 49 29 76 58 50 52 109 127
100 127 -10 0 17 73 40 107 31 47 32 73 0 73 -16 0 -28 -9 -38 -31z"/>
<path d="M8337 6494 c-4 -4 9 -17 29 -28 56 -32 62 -48 41 -103 -26 -66 -32
-97 -19 -89 5 3 19 -6 30 -21 19 -27 21 -27 40 -10 28 26 74 122 70 149 -2 15
-11 24 -24 26 -12 2 -24 11 -27 22 -8 31 -120 74 -140 54z"/>
<path d="M7000 5409 c-25 -23 -97 -88 -160 -144 -120 -108 -199 -185 -187
-185 20 0 117 43 129 57 27 34 202 185 231 199 16 9 49 17 72 19 23 1 51 8 63
14 12 6 58 14 102 18 44 3 80 9 80 13 0 10 -63 20 -121 20 -26 0 -66 7 -89 15
-61 22 -70 20 -120 -26z"/>
</g>
</svg>
