<?xml version="1.0" standalone="no"?>
<!DOCTYPE svg PUBLIC "-//W3C//DTD SVG 20010904//EN"
 "http://www.w3.org/TR/2001/REC-SVG-20010904/DTD/svg10.dtd">
<svg version="1.0" xmlns="http://www.w3.org/2000/svg"
 width="1280.000000pt" height="771.000000pt" viewBox="0 0 1280.000000 771.000000"
 preserveAspectRatio="xMidYMid meet">
<metadata>
Created by potrace 1.15, written by Peter Selinger 2001-2017
</metadata>
<g transform="translate(0.000000,771.000000) scale(0.100000,-0.100000)"
fill="#000000" stroke="none">
<path d="M9935 7690 c-38 -12 -97 -27 -130 -35 -197 -45 -347 -127 -520 -286
l-81 -74 -282 -100 c-221 -79 -283 -104 -289 -120 -3 -11 -9 -58 -12 -105 l-6
-84 -209 -46 c-233 -51 -232 -50 -242 -136 -11 -94 34 -191 85 -181 14 3 118
26 231 51 113 25 208 46 211 46 4 0 9 -10 13 -22 6 -25 -30 -88 -50 -88 -7 0
-22 -8 -34 -18 -23 -19 -23 -19 -4 -50 13 -24 26 -32 46 -32 28 0 33 9 40 69
5 44 23 32 70 -52 160 -281 230 -482 428 -1237 77 -292 138 -496 197 -665 53
-153 59 -185 69 -370 23 -467 -132 -928 -439 -1310 -89 -111 -285 -297 -393
-374 -49 -34 -136 -87 -194 -116 -597 -299 -1308 -340 -2205 -129 -197 46
-366 103 -475 160 -85 44 -200 123 -229 157 -12 15 -9 17 29 17 33 0 43 -4 47
-20 8 -31 19 -24 32 20 10 33 9 45 -5 77 l-17 38 -10 -27 c-10 -27 -14 -28
-82 -28 l-71 0 -40 63 c-68 104 -102 207 -112 337 -18 219 33 435 164 700 127
257 289 477 512 699 l135 133 24 -51 c28 -58 64 -91 100 -91 25 0 93 58 93 79
0 19 -26 12 -50 -14 -13 -14 -31 -25 -40 -25 -32 0 -80 72 -80 118 0 14 85 82
102 82 10 0 38 -79 38 -105 0 -31 26 -33 33 -2 7 25 -4 82 -21 113 -9 18 -8
23 11 31 12 6 37 23 55 38 80 68 76 135 -11 185 -28 16 -68 32 -89 35 l-38 7
0 119 0 119 219 0 219 0 30 34 c44 51 57 98 56 206 -1 115 -23 207 -75 317
-38 80 -72 118 -114 129 -12 3 -73 -11 -137 -30 -233 -71 -312 -81 -608 -81
-296 1 -378 12 -609 81 -219 67 -717 270 -734 300 -5 8 -36 35 -69 60 -159
117 -351 109 -478 -21 l-45 -46 43 -83 c50 -99 171 -248 270 -333 204 -176
389 -269 557 -280 69 -5 84 -10 113 -34 57 -50 183 -131 257 -165 108 -50 216
-76 340 -83 l110 -6 -80 -51 c-44 -28 -111 -67 -150 -86 l-70 -35 -255 -6
c-140 -4 -337 -10 -437 -13 l-183 -7 0 27 c0 15 -4 36 -10 46 -28 53 -332 53
-360 0 -6 -10 -10 -31 -10 -45 l0 -26 -147 3 -148 3 -6 55 c-4 36 -2 62 6 75
14 24 27 597 14 632 -4 12 -17 27 -28 32 -13 7 -212 15 -553 21 -293 5 -626
12 -739 15 l-207 6 -27 -24 -28 -24 12 -329 c7 -181 16 -332 20 -336 3 -4 4
-30 3 -57 l-4 -51 -54 0 c-44 0 -54 -3 -54 -17 0 -14 -5 -12 -27 10 l-28 27
-5 433 -5 432 -67 3 -68 3 0 -435 c0 -415 1 -438 21 -490 24 -66 61 -99 135
-123 51 -16 55 -19 49 -43 -21 -89 -117 -239 -267 -416 -37 -45 -68 -86 -68
-91 0 -5 -39 -31 -87 -58 -97 -54 -162 -94 -271 -167 l-72 -48 -246 0 -246 0
-266 -160 -266 -160 -82 0 -81 0 -7 -52 c-3 -29 -6 -72 -6 -95 l0 -43 40 0 40
0 0 -58 c0 -33 3 -120 7 -195 l6 -136 113 -3 113 -3 -35 -55 c-184 -290 -339
-692 -399 -1041 -15 -88 -16 -99 -1 -127 18 -35 80 -63 145 -65 26 -1 41 -7
41 -15 0 -11 46 -12 248 -7 l247 7 39 -41 c51 -55 87 -73 162 -79 l62 -5 18
-46 c9 -25 29 -71 44 -101 17 -32 33 -88 40 -135 74 -514 415 -960 891 -1166
344 -149 740 -163 1099 -37 516 182 912 660 981 1186 15 115 14 112 49 112 37
0 89 21 113 44 41 42 7 87 -83 113 -54 14 -60 19 -60 42 0 14 -3 43 -6 63 l-7
38 105 0 c179 0 317 -11 311 -25 -9 -25 19 -97 52 -134 78 -86 181 -117 438
-132 613 -36 2820 -21 3327 22 224 18 207 13 280 89 52 54 78 72 135 94 201
79 403 249 579 486 72 96 178 265 229 365 37 72 33 50 -8 -40 -30 -65 -279
-719 -292 -766 -4 -13 8 -17 70 -23 77 -7 310 8 362 23 l30 8 0 -226 c0 -252
9 -313 71 -501 144 -433 493 -783 936 -939 160 -56 290 -76 493 -75 147 0 199
4 285 23 605 129 1048 570 1182 1178 32 145 32 444 0 592 -68 313 -219 584
-441 794 -47 44 -65 67 -54 67 30 0 284 30 348 40 109 18 325 72 325 82 0 12
-44 98 -91 180 -58 99 -174 251 -271 353 -78 82 -84 92 -75 115 5 14 10 59 10
100 2 93 -28 162 -96 231 -87 87 -69 84 -517 83 -426 -1 -585 -11 -805 -50
-182 -33 -240 -47 -357 -90 l-97 -36 -68 21 c-37 11 -84 31 -103 43 l-35 22
100 8 c185 15 208 20 222 48 44 93 44 453 -1 538 -13 24 -27 28 -216 63 -111
21 -204 40 -206 41 -2 2 -23 64 -48 138 -91 277 -206 529 -414 908 -62 112
-112 206 -112 208 0 19 -281 695 -297 713 -2 3 -17 -5 -33 -17 -16 -12 -32
-22 -34 -22 -10 0 -46 78 -55 122 -20 87 29 163 121 189 90 26 246 10 332 -33
29 -15 50 -19 80 -14 23 4 82 9 131 12 50 4 101 11 115 18 33 15 70 72 70 109
0 17 13 51 30 77 109 170 162 454 130 701 l-12 100 -41 21 c-58 29 -138 32
-222 8z m-317 -4905 c-6 -14 -13 -23 -15 -21 -5 5 15 46 22 46 3 0 -1 -11 -7
-25z m-3988 -191 c0 -44 -12 -58 -24 -28 -5 13 -15 15 -54 9 -36 -5 -51 -3
-60 8 -10 12 -6 15 25 21 21 3 50 6 66 6 21 0 27 5 27 21 0 11 5 17 10 14 6
-3 10 -26 10 -51z"/>
</g>
</svg>
