<?xml version="1.0" standalone="no"?>
<!DOCTYPE svg PUBLIC "-//W3C//DTD SVG 20010904//EN"
 "http://www.w3.org/TR/2001/REC-SVG-20010904/DTD/svg10.dtd">
<svg version="1.0" xmlns="http://www.w3.org/2000/svg"
 width="1280.000000pt" height="1034.000000pt" viewBox="0 0 1280.000000 1034.000000"
 preserveAspectRatio="xMidYMid meet">
<metadata>
Created by potrace 1.15, written by Peter Selinger 2001-2017
</metadata>
<g transform="translate(0.000000,1034.000000) scale(0.100000,-0.100000)"
fill="#000000" stroke="none">
<path d="M6120 10315 c-502 -106 -822 -361 -943 -750 -26 -85 -52 -213 -45
-220 2 -3 188 26 412 63 224 37 409 66 412 63 8 -8 4 -571 -4 -571 -12 0 -740
-98 -779 -105 l-33 -6 0 -359 c0 -281 3 -360 13 -360 6 0 111 14 232 30 121
16 223 30 226 30 3 0 54 40 113 89 244 203 471 324 708 377 99 23 327 23 428
1 123 -27 209 -56 323 -110 l109 -51 19 24 c34 44 116 213 143 293 43 127 59
253 53 407 -6 153 -22 238 -67 360 -187 509 -466 744 -945 799 -202 23 -253
22 -375 -4z"/>
<path d="M6450 8440 c-92 -19 -187 -53 -265 -93 -28 -14 -583 -428 -1235 -921
-861 -651 -1186 -891 -1188 -878 -1 9 -8 90 -16 180 -7 89 -15 164 -18 167 -3
3 -54 -13 -114 -36 -60 -22 -221 -81 -359 -131 -383 -138 -638 -241 -822 -333
-456 -226 -697 -468 -799 -800 -26 -85 -28 -101 -28 -280 0 -174 2 -200 28
-310 33 -140 91 -302 167 -467 54 -117 54 -117 89 -118 78 -1 322 -21 424 -35
1182 -164 1889 -910 2182 -2302 l17 -83 93 -90 c288 -279 740 -437 1439 -505
325 -31 469 -36 1350 -45 495 -5 940 -12 989 -16 l89 -6 -7 68 c-3 38 -13 123
-21 189 -34 275 -30 697 10 972 140 958 741 1562 1762 1772 289 59 521 81 945
88 l347 6 42 56 c142 190 168 423 68 612 -17 31 -46 73 -64 93 l-33 36 -1026
0 -1026 0 0 23 c0 36 -36 133 -76 206 -52 95 -117 188 -299 431 -88 118 -185
250 -214 293 -30 43 -58 80 -62 83 -4 2 -311 -232 -681 -522 l-673 -526 -1000
3 c-1071 2 -1041 4 -1153 -48 -108 -51 -196 -173 -240 -338 -13 -49 -23 -69
-33 -67 -86 20 -371 160 -506 248 -223 145 -422 350 -523 538 -31 58 -33 67
-20 80 8 8 471 363 1029 790 1012 774 1014 775 1031 753 11 -15 1278 -1776
1304 -1814 2 -2 1349 1006 1363 1020 9 9 -20 54 -129 197 -77 102 -273 365
-436 585 -585 788 -813 1060 -962 1143 -238 133 -509 182 -740 132z"/>
<path d="M1935 4190 c-523 -44 -999 -271 -1357 -649 -420 -442 -628 -1044
-568 -1642 52 -508 268 -953 636 -1309 820 -793 2128 -780 2935 29 432 434
652 1019 609 1623 -49 687 -420 1294 -1010 1654 -360 219 -825 329 -1245 294z
m465 -754 c557 -129 970 -576 1055 -1141 40 -268 -2 -538 -124 -790 -75 -154
-159 -270 -279 -387 -195 -189 -418 -306 -692 -365 -120 -26 -411 -25 -530 1
-374 81 -684 293 -885 604 -256 397 -287 914 -81 1337 202 414 598 702 1051
764 121 17 365 5 485 -23z"/>
<path d="M10414 4174 c-838 -114 -1531 -733 -1743 -1557 -48 -183 -63 -311
-63 -517 0 -345 61 -615 207 -915 444 -916 1473 -1378 2459 -1105 606 168
1116 620 1361 1205 534 1273 -293 2713 -1658 2890 -145 18 -423 18 -563 -1z
m556 -734 c138 -28 204 -51 345 -120 374 -184 641 -532 732 -953 28 -126 25
-440 -5 -563 -115 -485 -452 -855 -914 -1008 -141 -47 -265 -66 -428 -66 -221
0 -404 41 -595 134 -496 242 -798 750 -771 1296 17 351 153 658 401 905 222
222 495 355 811 395 104 13 308 4 424 -20z"/>
</g>
</svg>
